<svg version="1.1" xmlns="http://www.w3.org/2000/svg" viewBox="0 0 1160.6426519113702 571.2371031908028" width="2321.2853038227404" height="1142.4742063816057" filter="invert(93%) hue-rotate(180deg)">
  <!-- svg-source:excalidraw -->
  
  <defs>
    <style class="style-fonts">
      @font-face {
        font-family: "Virgil";
        src: url("https://excalidraw.com/Virgil.woff2");
      }
      @font-face {
        font-family: "Cascadia";
        src: url("https://excalidraw.com/Cascadia.woff2");
      }
      @font-face {
        font-family: "Assistant";
        src: url("https://excalidraw.com/Assistant-Regular.woff2");
      }
    </style>
    
  </defs>
  <g stroke-linecap="round"><g transform="translate(97.42065662589448 178.72675778784424) rotate(0 0 28.032188840980325)"><path d="M-0.93 0.89 C-1.11 10.26, -0.66 47.55, -0.46 56.92 M0.78 0.32 C0.36 9.29, -1.46 46.08, -1.65 55.24" stroke="#1e1e1e" stroke-width="2" fill="none"></path></g></g><mask></mask><g stroke-linecap="round"><g transform="translate(98.45817423892731 205.45884739767962) rotate(0 525.033012821712 0)"><path d="M-0.46 0.85 C174.75 0.88, 875.27 1.25, 1050.35 1.03 M1.5 0.26 C176.66 -0.11, 874.93 -0.62, 1049.54 -0.55" stroke="#1e1e1e" stroke-width="2" fill="none"></path></g></g><mask></mask><g stroke-linecap="round"><g transform="translate(1150.207283761847 177.12761311837448) rotate(0 0 28.032188840980325)"><path d="M0.28 1.03 C0.34 10.16, 0.01 46.42, -0.08 55.63 M-1.03 0.53 C-1.09 9.75, -1.05 47.41, -1.06 56.94" stroke="#1e1e1e" stroke-width="2" fill="none"></path></g></g><mask></mask><g transform="translate(10 191.3384032302979) rotate(0 30.84996795654297 12.5)"><text x="0" y="0" font-family="Virgil, Segoe UI Emoji" font-size="20px" fill="#1e1e1e" text-anchor="start" style="white-space: pre;" direction="ltr" dominant-baseline="text-before-edge">Server</text></g><g stroke-linecap="round"><g transform="translate(96.93456618790515 388.497269625806) rotate(0 0 28.032188840980325)"><path d="M-0.22 0.24 C-0.19 9.65, 0.07 46.87, 0.11 56.04 M-1.79 -0.68 C-1.9 8.97, -0.95 48.1, -0.78 57.57" stroke="#1e1e1e" stroke-width="2" fill="none"></path></g></g><mask></mask><g stroke-linecap="round"><g transform="translate(97.97208380093798 415.22935923564137) rotate(0 525.033012821712 0)"><path d="M0.11 -0.02 C175.16 -0.2, 874.93 -0.63, 1050.08 -0.82 M-1.29 -1.08 C173.62 -1.15, 873.8 0.19, 1049.13 0.29" stroke="#1e1e1e" stroke-width="2" fill="none"></path></g></g><mask></mask><g stroke-linecap="round"><g transform="translate(1149.7211933238723 386.89812495633623) rotate(0 0 28.032188840980325)"><path d="M0.01 -0.82 C0.14 8.33, 1.04 45.21, 0.91 54.89 M-1.44 1.36 C-1.4 10.62, -0.09 46.78, 0.44 55.81" stroke="#1e1e1e" stroke-width="2" fill="none"></path></g></g><mask></mask><g transform="translate(19.234014349138306 402.63625128284957) rotate(0 27.049972534179688 12.5)"><text x="0" y="0" font-family="Virgil, Segoe UI Emoji" font-size="20px" fill="#1e1e1e" text-anchor="start" style="white-space: pre;" direction="ltr" dominant-baseline="text-before-edge">Client</text></g><g mask="url(#mask-3cTrUKFBj2KLjlBoQCMxn)" stroke-linecap="round"><g transform="translate(103.18290721218727 415.8657858650413) rotate(0 82.37459344988201 -104.64750673309209)"><path d="M-0.75 1.17 C26.49 -33.57, 136.74 -174.36, 164.34 -209.61 M1.06 0.74 C28.02 -33.72, 136 -173.19, 163.17 -208.24" stroke="#1e1e1e" stroke-width="2" fill="none"></path></g><g transform="translate(103.18290721218727 415.8657858650413) rotate(0 82.37459344988201 -104.64750673309209)"><path d="M155.54 -184.43 C160.59 -194.02, 160.98 -202.19, 163.17 -208.24 M155.54 -184.43 C157.71 -189.54, 158.93 -193.88, 163.17 -208.24" stroke="#1e1e1e" stroke-width="2" fill="none"></path></g><g transform="translate(103.18290721218727 415.8657858650413) rotate(0 82.37459344988201 -104.64750673309209)"><path d="M142.02 -194.9 C152.05 -200.47, 157.52 -204.71, 163.17 -208.24 M142.02 -194.9 C147.13 -197.76, 151.23 -199.87, 163.17 -208.24" stroke="#1e1e1e" stroke-width="2" fill="none"></path></g></g><mask id="mask-3cTrUKFBj2KLjlBoQCMxn"><rect x="0" y="0" fill="#fff" width="367.9320941119513" height="725.1607993312255"></rect><rect x="148.09753972456747" y="298.7182791319492" fill="#000" width="74.919921875" height="25" opacity="1"></rect></mask><g transform="translate(148.09753972456747 298.7182791319492) rotate(0 36.879472169654036 12.926687237247734)"><text x="37.4599609375" y="0" font-family="Virgil, Segoe UI Emoji" font-size="20px" fill="#1e1e1e" text-anchor="middle" style="white-space: pre;" direction="ltr" dominant-baseline="text-before-edge">request</text></g><g stroke-linecap="round"><g transform="translate(338.19624898674374 35.80042896810119) rotate(0 0 23.89467820920936)"><path d="M0.02 -0.48 C0.11 7.49, 0.25 39.65, 0.31 47.69 M-0.63 0.47 C-0.57 8.54, -0.11 40.36, 0.03 48.34" stroke="#1e1e1e" stroke-width="2" fill="none"></path></g><g transform="translate(338.19624898674374 35.80042896810119) rotate(0 0 23.89467820920936)"><path d="M-8.49 26.02 C-7.13 32.5, -4.17 38.55, 0.03 48.34 M-8.49 26.02 C-6.2 32.98, -3.6 39.36, 0.03 48.34" stroke="#1e1e1e" stroke-width="2" fill="none"></path></g><g transform="translate(338.19624898674374 35.80042896810119) rotate(0 0 23.89467820920936)"><path d="M7.85 25.76 C4.87 32.32, 3.49 38.44, 0.03 48.34 M7.85 25.76 C5.32 32.86, 3.1 39.31, 0.03 48.34" stroke="#1e1e1e" stroke-width="2" fill="none"></path></g></g><mask></mask><g transform="translate(259.127507126148 10) rotate(0 83.06395721435547 10)"><text x="0" y="0" font-family="Virgil, Segoe UI Emoji" font-size="16px" fill="#1e1e1e" text-anchor="start" style="white-space: pre;" direction="ltr" dominant-baseline="text-before-edge">Start Fetching Data</text></g><g stroke-linecap="round" transform="translate(339.6520234401796 129.2503948887511) rotate(0 77.4287391145026 15)"><path d="M7.5 0 C42.66 1.26, 84.79 -0.22, 147.36 0 C152.54 0.29, 154.95 2.79, 154.86 7.5 C153.02 14.01, 155.74 15.96, 154.86 22.5 C154.24 30.78, 152.9 32.89, 147.36 30 C120.14 34.66, 87.64 29.91, 7.5 30 C-0.83 26.45, 0.18 25.82, 0 22.5 C-1.05 19.34, -0.76 12.15, 0 7.5 C3.3 1.51, 2.5 3.47, 7.5 0" stroke="none" stroke-width="0" fill="#99e9f2"></path><path d="M7.5 0 C57.12 -0.4, 108.29 -1.97, 147.36 0 M7.5 0 C59.96 -1.27, 114.59 0.21, 147.36 0 M147.36 0 C152.85 0.2, 153.22 3, 154.86 7.5 M147.36 0 C150.86 0.66, 155.46 0.47, 154.86 7.5 M154.86 7.5 C155.23 13.48, 154.35 18.35, 154.86 22.5 M154.86 7.5 C154.36 12.72, 154 16.71, 154.86 22.5 M154.86 22.5 C156.39 27.2, 153.62 29.99, 147.36 30 M154.86 22.5 C155.49 27.9, 154.5 30.49, 147.36 30 M147.36 30 C101.33 29.45, 54.01 32.81, 7.5 30 M147.36 30 C93.43 28.99, 37.48 28.9, 7.5 30 M7.5 30 C0.82 31.94, 0.86 25.59, 0 22.5 M7.5 30 C0.72 29.22, 0.36 28.41, 0 22.5 M0 22.5 C0.69 16.59, 0.77 12.51, 0 7.5 M0 22.5 C0.23 16.99, -0.72 12.28, 0 7.5 M0 7.5 C-0.29 0.95, 3.05 0.85, 7.5 0 M0 7.5 C0.9 0.86, 4.43 -2.28, 7.5 0" stroke="transparent" stroke-width="2" fill="none"></path></g><g transform="translate(344.6520234401796 134.2503948887511) rotate(0 25.455978393554688 10)"><text x="0" y="0" font-family="Virgil, Segoe UI Emoji" font-size="16px" fill="#1e1e1e" text-anchor="start" style="white-space: pre;" direction="ltr" dominant-baseline="text-before-edge">Article</text></g><g stroke-linecap="round" transform="translate(337.9969641067619 166.1587925717081) rotate(0 52.58008925501235 15)"><path d="M7.5 0 C40.44 -0.07, 73.11 -0.07, 97.66 0 C104.06 -0.06, 107.56 0.06, 105.16 7.5 C104.78 15.25, 105.66 20.25, 105.16 22.5 C101.68 24.59, 104.58 31.24, 97.66 30 C58.98 25.8, 27.14 27.67, 7.5 30 C5.29 27.79, 3.4 25.88, 0 22.5 C2.57 15.87, 0.09 13.32, 0 7.5 C-0.16 -0.9, 2.93 2.24, 7.5 0" stroke="none" stroke-width="0" fill="#eebefa"></path><path d="M7.5 0 C38.61 -0.2, 67.25 -1.05, 97.66 0 M7.5 0 C28.15 -0.57, 47.49 -0.42, 97.66 0 M97.66 0 C101.36 0.58, 105.68 0.73, 105.16 7.5 M97.66 0 C104.87 0.03, 107.32 3.07, 105.16 7.5 M105.16 7.5 C105.49 10.6, 106.33 15.86, 105.16 22.5 M105.16 7.5 C105.59 12.57, 105.49 17.85, 105.16 22.5 M105.16 22.5 C105.71 27.85, 104.52 30.43, 97.66 30 M105.16 22.5 C105.93 29.44, 104.11 30.73, 97.66 30 M97.66 30 C78.91 31.84, 55.39 32.26, 7.5 30 M97.66 30 C71.7 30.7, 47.84 28.78, 7.5 30 M7.5 30 C0.95 29.32, 0.31 28.29, 0 22.5 M7.5 30 C3.2 28.34, 0.29 28.4, 0 22.5 M0 22.5 C0.5 18.83, -0.11 15.84, 0 7.5 M0 22.5 C0.04 18.31, 0.35 15.6, 0 7.5 M0 7.5 C0.78 1.08, 4.18 -1.99, 7.5 0 M0 7.5 C-0.69 1.93, 3.43 -1.68, 7.5 0" stroke="transparent" stroke-width="2" fill="none"></path></g><g transform="translate(342.9969641067619 171.1587925717081) rotate(0 25.27997589111328 10)"><text x="0" y="0" font-family="Virgil, Segoe UI Emoji" font-size="16px" fill="#1e1e1e" text-anchor="start" style="white-space: pre;" direction="ltr" dominant-baseline="text-before-edge">Profile</text></g><g stroke-linecap="round" transform="translate(339.96012171273105 93.66684044026306) rotate(0 169.2085151058327 15)"><path d="M7.5 0 C108.08 -0.37, 208.38 -2.03, 330.92 0 C337.82 1.18, 336.14 1.88, 338.42 7.5 C335.85 11.19, 339.9 20.17, 338.42 22.5 C341.73 24.69, 334.48 26.67, 330.92 30 C267.73 26.58, 203.03 26.99, 7.5 30 C5.84 28.77, 1.29 30.8, 0 22.5 C-0.12 15.86, 0.33 16.01, 0 7.5 C-3.52 0.76, 3.52 -2.12, 7.5 0" stroke="none" stroke-width="0" fill="#ffc9c9"></path><path d="M7.5 0 C92.75 2.61, 181.07 2.04, 330.92 0 M7.5 0 C107.25 -0.36, 208.09 -1.17, 330.92 0 M330.92 0 C337.84 0.03, 340.29 3, 338.42 7.5 M330.92 0 C335.98 -0.78, 336.83 3.09, 338.42 7.5 M338.42 7.5 C339.22 9.13, 337.43 14.77, 338.42 22.5 M338.42 7.5 C338.72 11.91, 339.21 16.21, 338.42 22.5 M338.42 22.5 C339.09 29.19, 337.18 30.63, 330.92 30 M338.42 22.5 C336.76 27.47, 338.13 32.08, 330.92 30 M330.92 30 C217.87 30.7, 105 30.4, 7.5 30 M330.92 30 C202.06 27.62, 74.38 28.13, 7.5 30 M7.5 30 C3.11 28.56, 0.25 28.28, 0 22.5 M7.5 30 C1.04 31.02, -0.11 28.37, 0 22.5 M0 22.5 C-0.88 16.65, -0.16 13.53, 0 7.5 M0 22.5 C0.25 18.63, 0.59 15.08, 0 7.5 M0 7.5 C-0.6 2, 3.31 -1.46, 7.5 0 M0 7.5 C1.46 3.6, 3.01 0.12, 7.5 0" stroke="transparent" stroke-width="2" fill="none"></path></g><g transform="translate(344.96012171273105 98.66684044026306) rotate(0 36.68797302246094 10)"><text x="0" y="0" font-family="Virgil, Segoe UI Emoji" font-size="16px" fill="#1e1e1e" text-anchor="start" style="white-space: pre;" direction="ltr" dominant-baseline="text-before-edge">Comments</text></g><g mask="url(#mask-jSDSKxtGZvCE0nWYNT6_g)" stroke-linecap="round"><g transform="translate(342.2879487451464 206.50547397214632) rotate(0 69.48602751644103 103.22201653886145)"><path d="M-0.78 0.35 C22.6 34.53, 115.8 171.03, 139.29 205.38 M1.01 -0.52 C24.35 33.75, 115.34 171.65, 138.5 206.36" stroke="#1e1e1e" stroke-width="2" fill="none"></path></g><g transform="translate(342.2879487451464 206.50547397214632) rotate(0 69.48602751644103 103.22201653886145)"><path d="M118.39 191.51 C123.4 195.41, 125.44 200.05, 138.5 206.36 M118.39 191.51 C124.62 195.6, 129.97 200.68, 138.5 206.36" stroke="#1e1e1e" stroke-width="2" fill="none"></path></g><g transform="translate(342.2879487451464 206.50547397214632) rotate(0 69.48602751644103 103.22201653886145)"><path d="M132.64 182.06 C134.56 187.93, 133.49 194.63, 138.5 206.36 M132.64 182.06 C134.66 189.03, 135.72 196.96, 138.5 206.36" stroke="#1e1e1e" stroke-width="2" fill="none"></path></g></g><mask id="mask-jSDSKxtGZvCE0nWYNT6_g"><rect x="0" y="0" fill="#fff" width="581.2600037780285" height="512.9495070498692"></rect><rect x="384.39798444029657" y="299.727490511008" fill="#000" width="54.751983642578125" height="20" opacity="1"></rect></mask><g transform="translate(384.39798444029657 299.727490511008) rotate(0 27.143397578971417 9.701987373549173)"><text x="27.375991821289062" y="0" font-family="Virgil, Segoe UI Emoji" font-size="16px" fill="#1e1e1e" text-anchor="middle" style="white-space: pre;" direction="ltr" dominant-baseline="text-before-edge">Layout</text></g><g stroke-linecap="round" transform="translate(103.39886928537453 424.9592284618834) rotate(0 189.23875462388787 15)"><path d="M7.5 0 C120.19 5.17, 237.31 6.04, 370.98 0 C373.17 -1.43, 375.14 -1.05, 378.48 7.5 C376.69 14.62, 377.13 19.16, 378.48 22.5 C377.25 28.79, 379.28 29.01, 370.98 30 C259.84 30.09, 154.38 27.61, 7.5 30 C0.76 31.02, -2.12 25.81, 0 22.5 C2.45 18.13, 1.32 14.39, 0 7.5 C-0.93 -0.52, 5.54 -2.55, 7.5 0" stroke="none" stroke-width="0" fill="#ced4da"></path><path d="M7.5 0 C126.07 -1.02, 244.91 -2.16, 370.98 0 M7.5 0 C103.6 -0.08, 200.6 -0.3, 370.98 0 M370.98 0 C374.07 -1.48, 380.01 2.2, 378.48 7.5 M370.98 0 C377.43 -0.02, 379.11 2.9, 378.48 7.5 M378.48 7.5 C379.78 14.35, 378.98 18.22, 378.48 22.5 M378.48 7.5 C378.99 11.55, 379.14 16.3, 378.48 22.5 M378.48 22.5 C377.23 26.9, 374.3 31.94, 370.98 30 M378.48 22.5 C379.46 25.3, 374.19 29.22, 370.98 30 M370.98 30 C255.33 30.86, 141.99 29.9, 7.5 30 M370.98 30 C245.8 30.85, 120.91 30.49, 7.5 30 M7.5 30 C0.54 29.78, -0.29 25.95, 0 22.5 M7.5 30 C3.14 30.98, 0.9 25.86, 0 22.5 M0 22.5 C-0.22 17.35, -0.95 11.93, 0 7.5 M0 22.5 C0.03 17.3, 0.03 12.36, 0 7.5 M0 7.5 C-0.04 3.83, 1.14 1.05, 7.5 0 M0 7.5 C0.75 1.05, 2.1 2.1, 7.5 0" stroke="transparent" stroke-width="2" fill="none"></path></g><g transform="translate(108.39886928537453 429.9592284618834) rotate(0 49.69597625732422 10)"><text x="0" y="0" font-family="Virgil, Segoe UI Emoji" font-size="16px" fill="#1e1e1e" text-anchor="start" style="white-space: pre;" direction="ltr" dominant-baseline="text-before-edge">Blank Screen</text></g><g stroke-linecap="round" transform="translate(486.9687084328616 425.3366239378397) rotate(0 41.61234391541984 15)"><path d="M7.5 0 C28.79 -2.56, 52.37 -4.68, 75.72 0 C80.91 -1.68, 86.01 0.29, 83.22 7.5 C82.18 14.38, 85.58 18.59, 83.22 22.5 C83.22 30.97, 80.56 26.6, 75.72 30 C52.69 29.82, 31.02 27.11, 7.5 30 C0.35 31.08, 2.16 30.87, 0 22.5 C-0.83 16.16, 2.14 12.44, 0 7.5 C1.8 -0.59, 1.51 1.3, 7.5 0" stroke="none" stroke-width="0" fill="#a5d8ff"></path><path d="M7.5 0 C33.69 -1.39, 61.76 -1.94, 75.72 0 M7.5 0 C32.55 -1.05, 60.27 -0.46, 75.72 0 M75.72 0 C81.98 -0.01, 83.77 2.85, 83.22 7.5 M75.72 0 C82.87 0.49, 84 4.44, 83.22 7.5 M83.22 7.5 C83.25 14.39, 84.63 19.13, 83.22 22.5 M83.22 7.5 C82.86 10.92, 82.7 15.51, 83.22 22.5 M83.22 22.5 C84.08 25.59, 79.17 29.32, 75.72 30 M83.22 22.5 C83.59 28.41, 81.43 28.34, 75.72 30 M75.72 30 C55.27 29.47, 33.81 29.4, 7.5 30 M75.72 30 C54.47 29.49, 35.04 28.82, 7.5 30 M7.5 30 C3.05 30.85, 0.78 26.08, 0 22.5 M7.5 30 C4.43 27.72, -0.69 26.93, 0 22.5 M0 22.5 C0.83 17.72, 0.19 12.4, 0 7.5 M0 22.5 C-0.03 18.46, -0.52 13.82, 0 7.5 M0 7.5 C0.65 1.24, 2.16 1.82, 7.5 0 M0 7.5 C0.35 4.34, 0.28 -1.86, 7.5 0" stroke="transparent" stroke-width="2" fill="none"></path></g><g transform="translate(491.9687084328616 430.3366239378397) rotate(0 35.927978515625 10)"><text x="0" y="0" font-family="Virgil, Segoe UI Emoji" font-size="16px" fill="#1e1e1e" text-anchor="start" style="white-space: pre;" direction="ltr" dominant-baseline="text-before-edge">Hydration</text></g><g stroke-linecap="round"><g transform="translate(486.7237767727747 511.20618888704075) rotate(0 -0.1726336621468363 -25.378815243967438)"><path d="M-1.15 -0.89 C-0.96 -9.47, 0.31 -42.62, 0.57 -50.94 M0.45 1.26 C0.62 -7.18, 0.18 -41.04, 0.11 -49.49" stroke="#1e1e1e" stroke-width="2" fill="none"></path></g><g transform="translate(486.7237767727747 511.20618888704075) rotate(0 -0.1726336621468363 -25.378815243967438)"><path d="M8.9 -26.09 C5.09 -30.55, 4.06 -36.72, 0.11 -49.49 M8.9 -26.09 C7.14 -32.87, 3.91 -39.24, 0.11 -49.49" stroke="#1e1e1e" stroke-width="2" fill="none"></path></g><g transform="translate(486.7237767727747 511.20618888704075) rotate(0 -0.1726336621468363 -25.378815243967438)"><path d="M-8.2 -25.91 C-7.69 -30.25, -4.41 -36.47, 0.11 -49.49 M-8.2 -25.91 C-4.85 -32.77, -2.96 -39.2, 0.11 -49.49" stroke="#1e1e1e" stroke-width="2" fill="none"></path></g></g><mask></mask><g transform="translate(458.0848345213599 521.2371031908028) rotate(0 30.47198486328125 20)"><text x="30.47198486328125" y="0" font-family="Virgil, Segoe UI Emoji" font-size="16px" fill="#1e1e1e" text-anchor="middle" style="white-space: pre;" direction="ltr" dominant-baseline="text-before-edge">Content</text><text x="30.47198486328125" y="20" font-family="Virgil, Segoe UI Emoji" font-size="16px" fill="#1e1e1e" text-anchor="middle" style="white-space: pre;" direction="ltr" dominant-baseline="text-before-edge">Visible</text></g><g stroke-linecap="round"><g transform="translate(574.5736411156977 511.7322572266653) rotate(0 -0.01603148838148627 -25.717462155632575)"><path d="M0.76 -0.01 C0.65 -8.52, 0.24 -42.7, 0.3 -51.23 M-0.31 -1.06 C-0.62 -9.94, -0.68 -45.13, -0.48 -53.24" stroke="#1e1e1e" stroke-width="2" fill="none"></path></g><g transform="translate(574.5736411156977 511.7322572266653) rotate(0 -0.01603148838148627 -25.717462155632575)"><path d="M7.87 -29.67 C4.75 -37.94, 1.97 -45.5, -0.48 -53.24 M7.87 -29.67 C5.74 -36.86, 1.71 -44.76, -0.48 -53.24" stroke="#1e1e1e" stroke-width="2" fill="none"></path></g><g transform="translate(574.5736411156977 511.7322572266653) rotate(0 -0.01603148838148627 -25.717462155632575)"><path d="M-9.23 -29.82 C-5.91 -38.14, -2.25 -45.65, -0.48 -53.24 M-9.23 -29.82 C-5.86 -37.1, -4.4 -44.96, -0.48 -53.24" stroke="#1e1e1e" stroke-width="2" fill="none"></path></g></g><mask></mask><g transform="translate(532.4867431548992 521.7631715304283) rotate(0 44.61597442626953 10)"><text x="44.61597442626953" y="0" font-family="Virgil, Segoe UI Emoji" font-size="16px" fill="#1e1e1e" text-anchor="middle" style="white-space: pre;" direction="ltr" dominant-baseline="text-before-edge">Interactive</text></g><g stroke-linecap="round" transform="translate(267.26251319675066 165.5817300680983) rotate(0 31.58233553406353 15)"><path d="M7.5 0 C22.88 -0.53, 42.14 -0.55, 55.66 0 C62.48 -3.3, 63.96 0.24, 63.16 7.5 C60.33 12.43, 62.81 15.9, 63.16 22.5 C62.29 27.83, 63.74 31.43, 55.66 30 C43.35 28.97, 27.34 30.66, 7.5 30 C5.61 32.09, 1.46 24.03, 0 22.5 C-0.74 16.12, -0.22 15.43, 0 7.5 C2.63 5.9, 4.38 -0.44, 7.5 0" stroke="none" stroke-width="0" fill="#ced4da"></path><path d="M7.5 0 C22.69 1.36, 36.03 1.26, 55.66 0 M7.5 0 C22.97 0.62, 37.74 -0.53, 55.66 0 M55.66 0 C59.32 -0.83, 62.86 0.64, 63.16 7.5 M55.66 0 C61.79 1.04, 62.67 4.74, 63.16 7.5 M63.16 7.5 C62.6 9.34, 62.28 13.27, 63.16 22.5 M63.16 7.5 C63.51 11.73, 62.72 15.72, 63.16 22.5 M63.16 22.5 C62.29 27.08, 59.34 30.81, 55.66 30 M63.16 22.5 C62.68 27.91, 62.8 28.93, 55.66 30 M55.66 30 C37.98 28.42, 23.64 31.58, 7.5 30 M55.66 30 C45.45 29.75, 37.27 30.89, 7.5 30 M7.5 30 C3.42 31.12, 0.6 28.07, 0 22.5 M7.5 30 C2.1 28.93, 0.38 29.22, 0 22.5 M0 22.5 C0.63 17.22, -1.37 13.88, 0 7.5 M0 22.5 C-0.28 17.1, 0.13 12.62, 0 7.5 M0 7.5 C1.77 1.2, 3.76 -0.67, 7.5 0 M0 7.5 C1.69 0.77, 2.74 0.9, 7.5 0" stroke="transparent" stroke-width="2" fill="none"></path></g><g transform="translate(272.26251319675066 170.5817300680983) rotate(0 25.90398406982422 10)"><text x="0" y="0" font-family="Virgil, Segoe UI Emoji" font-size="16px" fill="#1e1e1e" text-anchor="start" style="white-space: pre;" direction="ltr" dominant-baseline="text-before-edge">Render</text></g><g stroke-linecap="round" transform="translate(449.4186713309791 166.41198729984308) rotate(0 31.58233553406353 15)"><path d="M7.5 0 C26.22 -2.21, 40.46 1.93, 55.66 0 C57.23 1.66, 66.45 0.96, 63.16 7.5 C62.73 12.38, 64.86 19.02, 63.16 22.5 C65.77 25.96, 61.42 32.89, 55.66 30 C37.23 27.58, 26.48 31.09, 7.5 30 C-1 32.94, 3.01 27.05, 0 22.5 C-1.2 14.73, 1.35 11.05, 0 7.5 C-1.97 4.61, 2.09 -3.46, 7.5 0" stroke="none" stroke-width="0" fill="#ced4da"></path><path d="M7.5 0 C23.53 1.65, 41.76 0.63, 55.66 0 M7.5 0 C25.29 0.36, 41.35 -0.66, 55.66 0 M55.66 0 C59.18 -1.66, 64.1 2.18, 63.16 7.5 M55.66 0 C60.76 2.26, 62.45 0.58, 63.16 7.5 M63.16 7.5 C62.86 12.95, 61.74 19.68, 63.16 22.5 M63.16 7.5 C63 11.28, 62.54 14.63, 63.16 22.5 M63.16 22.5 C64.28 26.25, 61.97 29.59, 55.66 30 M63.16 22.5 C64.17 27.54, 62.23 29.29, 55.66 30 M55.66 30 C41.82 28.47, 30.47 28.38, 7.5 30 M55.66 30 C41.75 29.97, 27.82 29.27, 7.5 30 M7.5 30 C1.32 28.21, 0.51 27.13, 0 22.5 M7.5 30 C0.4 31.69, 0.91 28.48, 0 22.5 M0 22.5 C-0.7 19.2, 0.15 16.97, 0 7.5 M0 22.5 C0.42 17.53, -0.66 13.96, 0 7.5 M0 7.5 C0.83 1.09, 1.96 -2, 7.5 0 M0 7.5 C1.23 1.71, 4.08 -0.93, 7.5 0" stroke="transparent" stroke-width="2" fill="none"></path></g><g transform="translate(454.4186713309791 171.41198729984308) rotate(0 25.90398406982422 10)"><text x="0" y="0" font-family="Virgil, Segoe UI Emoji" font-size="16px" fill="#1e1e1e" text-anchor="start" style="white-space: pre;" direction="ltr" dominant-baseline="text-before-edge">Render</text></g><g stroke-linecap="round" transform="translate(499.59572181300246 129.94994298755182) rotate(0 35.277876283256774 15)"><path d="M7.5 0 C20.22 0.32, 38.07 -1.67, 63.06 0 C65.8 3.43, 68.11 4.03, 70.56 7.5 C71.76 11.28, 71.99 19.79, 70.56 22.5 C70.1 26.71, 68.91 32.91, 63.06 30 C46.43 28.48, 31.86 30.01, 7.5 30 C-0.61 29.8, -2.23 27.9, 0 22.5 C1.8 17.18, -2.2 13.6, 0 7.5 C1.28 5.25, 3.55 -2.28, 7.5 0" stroke="none" stroke-width="0" fill="#ced4da"></path><path d="M7.5 0 C20.78 1.26, 31.75 0.54, 63.06 0 M7.5 0 C21.55 1.27, 37.85 0.61, 63.06 0 M63.06 0 C69.67 0.55, 71.56 0.75, 70.56 7.5 M63.06 0 C67.62 1.88, 71.44 0.97, 70.56 7.5 M70.56 7.5 C71.51 10.41, 70.75 15.32, 70.56 22.5 M70.56 7.5 C70.39 12.17, 70.19 17.69, 70.56 22.5 M70.56 22.5 C70.62 26.34, 69.34 29.37, 63.06 30 M70.56 22.5 C72.32 27.2, 70.03 31.76, 63.06 30 M63.06 30 C48.21 30.39, 30.28 30.94, 7.5 30 M63.06 30 C42.19 29.55, 22.96 29.49, 7.5 30 M7.5 30 C3.7 28.62, 0.98 28.35, 0 22.5 M7.5 30 C4.26 31.78, -1.1 28.91, 0 22.5 M0 22.5 C0.68 15.57, 0.52 11.22, 0 7.5 M0 22.5 C-0.27 17.69, -0.36 11.81, 0 7.5 M0 7.5 C-1.47 3.95, 4.31 -0.48, 7.5 0 M0 7.5 C-2.15 2, 0.95 0.41, 7.5 0" stroke="transparent" stroke-width="2" fill="none"></path></g><g transform="translate(504.59572181300246 134.94994298755182) rotate(0 25.90398406982422 10)"><text x="0" y="0" font-family="Virgil, Segoe UI Emoji" font-size="16px" fill="#1e1e1e" text-anchor="start" style="white-space: pre;" direction="ltr" dominant-baseline="text-before-edge">Render</text></g><g stroke-linecap="round" transform="translate(681.6351453013376 93.16619870868954) rotate(0 31.58233553406353 15)"><path d="M7.5 0 C25.47 -2.51, 43.44 3.35, 55.66 0 C59.69 1.05, 60.83 2.62, 63.16 7.5 C65.37 13.08, 61.92 16.97, 63.16 22.5 C65.67 28.34, 61.44 30.27, 55.66 30 C35.6 27.41, 18.04 29.23, 7.5 30 C1.53 30.94, -0.63 24.81, 0 22.5 C1.06 20.87, 2.46 12.13, 0 7.5 C-2.36 4.95, 3.65 2.63, 7.5 0" stroke="none" stroke-width="0" fill="#ced4da"></path><path d="M7.5 0 C22.19 -1.35, 35.68 -1.43, 55.66 0 M7.5 0 C21.78 -0.29, 37.31 0.35, 55.66 0 M55.66 0 C60.43 -0.4, 61.28 0.98, 63.16 7.5 M55.66 0 C62.81 -1.16, 65.27 2.68, 63.16 7.5 M63.16 7.5 C63.35 9.81, 62.3 13.35, 63.16 22.5 M63.16 7.5 C62.47 13.37, 63.76 19.25, 63.16 22.5 M63.16 22.5 C61.7 25.6, 58.79 31.89, 55.66 30 M63.16 22.5 C60.93 25.31, 62.27 29.75, 55.66 30 M55.66 30 C40.57 31.15, 22.86 30.98, 7.5 30 M55.66 30 C37.91 30.42, 19.8 30.81, 7.5 30 M7.5 30 C4.49 31.62, -1.21 29.46, 0 22.5 M7.5 30 C2.75 28.01, -1.25 29.02, 0 22.5 M0 22.5 C-0.52 19.26, 1.34 14.81, 0 7.5 M0 22.5 C-0.05 18.5, 0.64 15.24, 0 7.5 M0 7.5 C-0.11 2.9, 1.26 -1.92, 7.5 0 M0 7.5 C0.35 0.91, 0.25 0.2, 7.5 0" stroke="transparent" stroke-width="2" fill="none"></path></g><g transform="translate(686.6351453013376 98.16619870868954) rotate(0 25.90398406982422 10)"><text x="0" y="0" font-family="Virgil, Segoe UI Emoji" font-size="16px" fill="#1e1e1e" text-anchor="start" style="white-space: pre;" direction="ltr" dominant-baseline="text-before-edge">Render</text></g><g mask="url(#mask-MdlPacDUCOVV8x3O6rYFI)" stroke-linecap="round"><g transform="translate(514.4331259134487 205.41798144899622) rotate(0 69.48602751644103 103.22201653886145)"><path d="M-0.14 0.52 C22.98 34.76, 115.51 171.52, 138.63 205.91 M-1.68 -0.26 C21.27 34.11, 114.3 173, 137.5 207.16" stroke="#1e1e1e" stroke-width="2" fill="none"></path></g><g transform="translate(514.4331259134487 205.41798144899622) rotate(0 69.48602751644103 103.22201653886145)"><path d="M117.28 192.46 C124.04 196.16, 128.13 200.26, 137.5 207.16 M117.28 192.46 C123.69 197.92, 130.99 202.19, 137.5 207.16" stroke="#1e1e1e" stroke-width="2" fill="none"></path></g><g transform="translate(514.4331259134487 205.41798144899622) rotate(0 69.48602751644103 103.22201653886145)"><path d="M131.46 182.9 C134.16 189.35, 134.14 196.22, 137.5 207.16 M131.46 182.9 C133.07 191.47, 135.64 198.93, 137.5 207.16" stroke="#1e1e1e" stroke-width="2" fill="none"></path></g></g><mask id="mask-MdlPacDUCOVV8x3O6rYFI"><rect x="0" y="0" fill="#fff" width="753.4051809463308" height="511.8620145267191"></rect><rect x="558.6391775387783" y="298.6399979878579" fill="#000" width="50.55995178222656" height="20" opacity="1"></rect></mask><g transform="translate(558.6391775387783 298.6399979878579) rotate(0 24.268396941402898 10.230013658068856)"><text x="25.27997589111328" y="0" font-family="Virgil, Segoe UI Emoji" font-size="16px" fill="#1e1e1e" text-anchor="middle" style="white-space: pre;" direction="ltr" dominant-baseline="text-before-edge">Profile</text></g><g mask="url(#mask-HOGYgkxmymDWACQ_MLEcG)" stroke-linecap="round"><g transform="translate(575.0647381192939 207.73555895442587) rotate(0 69.48602751644103 103.22201653886145)"><path d="M0.2 -0.18 C23.56 34.08, 116.74 171.99, 139.81 206.35 M-1.16 -1.31 C22.16 33.07, 116.17 173.11, 139.3 207.84" stroke="#1e1e1e" stroke-width="2" fill="none"></path></g><g transform="translate(575.0647381192939 207.73555895442587) rotate(0 69.48602751644103 103.22201653886145)"><path d="M119.13 193.07 C124.31 198.37, 129.83 200.28, 139.3 207.84 M119.13 193.07 C124.42 197.85, 128.87 200.49, 139.3 207.84" stroke="#1e1e1e" stroke-width="2" fill="none"></path></g><g transform="translate(575.0647381192939 207.73555895442587) rotate(0 69.48602751644103 103.22201653886145)"><path d="M133.34 183.56 C134.79 191.42, 136.52 195.86, 139.3 207.84 M133.34 183.56 C134.88 190.89, 135.58 196.03, 139.3 207.84" stroke="#1e1e1e" stroke-width="2" fill="none"></path></g></g><mask id="mask-HOGYgkxmymDWACQ_MLEcG"><rect x="0" y="0" fill="#fff" width="814.036793152176" height="514.1795920321488"></rect><rect x="619.0947872421784" y="300.95757549328755" fill="#000" width="50.911956787109375" height="20" opacity="1"></rect></mask><g transform="translate(619.0947872421784 300.95757549328755) rotate(0 25.293974651276585 10.042222228068567)"><text x="25.455978393554688" y="0" font-family="Virgil, Segoe UI Emoji" font-size="16px" fill="#1e1e1e" text-anchor="middle" style="white-space: pre;" direction="ltr" dominant-baseline="text-before-edge">Article</text></g><g mask="url(#mask-OiIiMPNKvpOCSSOXsTqAB)" stroke-linecap="round"><g transform="translate(747.9482509915251 205.0227857889372) rotate(0 69.48602751644103 103.22201653886145)"><path d="M-0.02 1.15 C23.19 35.8, 115.07 173.21, 138.26 207.44 M-1.49 0.7 C22.2 35.07, 117.27 171.3, 140.6 205.83" stroke="#1e1e1e" stroke-width="2" fill="none"></path></g><g transform="translate(747.9482509915251 205.0227857889372) rotate(0 69.48602751644103 103.22201653886145)"><path d="M120.24 191.33 C126.51 193.29, 130.67 197.91, 140.6 205.83 M120.24 191.33 C125.86 195.21, 132.93 199.86, 140.6 205.83" stroke="#1e1e1e" stroke-width="2" fill="none"></path></g><g transform="translate(747.9482509915251 205.0227857889372) rotate(0 69.48602751644103 103.22201653886145)"><path d="M134.32 181.63 C137.51 185.7, 138.61 192.42, 140.6 205.83 M134.32 181.63 C135.58 188.58, 138.34 196.21, 140.6 205.83" stroke="#1e1e1e" stroke-width="2" fill="none"></path></g></g><mask id="mask-OiIiMPNKvpOCSSOXsTqAB"><rect x="0" y="0" fill="#fff" width="986.9203060244072" height="511.4668188666601"></rect><rect x="791.9783001144133" y="298.2448023277984" fill="#000" width="50.911956787109375" height="20" opacity="1"></rect></mask><g transform="translate(791.9783001144133 298.2448023277984) rotate(0 25.523688333070822 10.847585876453877)"><text x="25.455978393554688" y="0" font-family="Virgil, Segoe UI Emoji" font-size="16px" fill="#1e1e1e" text-anchor="middle" style="white-space: pre;" direction="ltr" dominant-baseline="text-before-edge">Article</text></g><g stroke-linecap="round"><g transform="translate(746.4146370088165 204.24233859318156) rotate(0 0 -39.578175152426184)"><path d="M-0.48 -0.8 C-0.5 -14.2, -0.63 -66.92, -0.48 -79.96 M1.46 1.39 C1.28 -11.92, -1.41 -65.67, -1.68 -78.85" stroke="#1e1e1e" stroke-width="2" fill="none"></path></g></g><mask></mask><g stroke-linecap="round"><g transform="translate(573.7034342996412 203.13204074683108) rotate(0 0 -19.936767567513243)"><path d="M-0.35 0.39 C-0.52 -6.14, -0.61 -32.67, -0.52 -39.44 M0.47 0.11 C0.43 -6.55, 0.53 -33.53, 0.45 -40.18" stroke="#1e1e1e" stroke-width="2" fill="none"></path></g></g><mask></mask><g stroke-linecap="round" transform="translate(576.970094229102 423.71425172002637) rotate(0 38.43154380091619 15)"><path d="M7.5 0 C32.19 -2.85, 56.72 -0.93, 69.36 0 C71.83 3.42, 79.45 4.22, 76.86 7.5 C76.41 10.62, 75.85 18.34, 76.86 22.5 C76.42 29.39, 73.35 27.68, 69.36 30 C49.08 26.89, 25.41 28.22, 7.5 30 C3.54 27.78, 1.75 29.98, 0 22.5 C0.05 17.45, -1.35 12.17, 0 7.5 C-1.96 -0.28, 1.75 3.46, 7.5 0" stroke="none" stroke-width="0" fill="#4dabf7"></path><path d="M7.5 0 C22.83 -1.18, 40.06 2.13, 69.36 0 M7.5 0 C31.92 -0.13, 55.49 0.85, 69.36 0 M69.36 0 C72.53 -1.76, 76.63 3.27, 76.86 7.5 M69.36 0 C76.18 1.75, 75.02 0.43, 76.86 7.5 M76.86 7.5 C76.52 10.63, 77.53 13.84, 76.86 22.5 M76.86 7.5 C77.11 13.28, 77.37 18.4, 76.86 22.5 M76.86 22.5 C75.22 26.68, 73.1 30.38, 69.36 30 M76.86 22.5 C78.83 27.26, 75.91 27.76, 69.36 30 M69.36 30 C50.31 29.78, 34.99 31.47, 7.5 30 M69.36 30 C47.96 30.97, 26.2 30.41, 7.5 30 M7.5 30 C2.14 31.33, -1.37 25.95, 0 22.5 M7.5 30 C3.78 28.47, 0.11 28.51, 0 22.5 M0 22.5 C1.41 17.91, 0.66 10.07, 0 7.5 M0 22.5 C0.43 18, 0.01 13.05, 0 7.5 M0 7.5 C-1.36 0.8, 3 -1.36, 7.5 0 M0 7.5 C-0.23 0.54, 0.46 -0.32, 7.5 0" stroke="transparent" stroke-width="2" fill="none"></path></g><g stroke-linecap="round" transform="translate(658.2976314150146 424.3430851177209) rotate(0 31.58233553406353 15)"><path d="M7.5 0 C23.72 -3.31, 39.33 -0.9, 55.66 0 C63.45 0.31, 60.29 -1.04, 63.16 7.5 C64.66 9.26, 63.53 15.49, 63.16 22.5 C64.64 26.38, 60.47 30.25, 55.66 30 C35.25 32.8, 18.08 30.13, 7.5 30 C3.98 31.88, 2.67 29.3, 0 22.5 C0.36 19.16, -1.09 13.4, 0 7.5 C1.47 4.79, 3.71 -3.07, 7.5 0" stroke="none" stroke-width="0" fill="#4dabf7"></path><path d="M7.5 0 C19.99 -0.03, 28.8 0.25, 55.66 0 M7.5 0 C21.19 -0.52, 34.75 -0.9, 55.66 0 M55.66 0 C61.66 -1.04, 63.19 3.28, 63.16 7.5 M55.66 0 C62.69 1.6, 61.36 3.81, 63.16 7.5 M63.16 7.5 C64.37 13.72, 61.93 17.72, 63.16 22.5 M63.16 7.5 C63.88 11.52, 63.6 16.39, 63.16 22.5 M63.16 22.5 C62.46 26.93, 61.89 29.63, 55.66 30 M63.16 22.5 C61.39 27.96, 59.46 29.54, 55.66 30 M55.66 30 C46.03 30.76, 36.48 30.99, 7.5 30 M55.66 30 C42.62 29.73, 31.82 29.77, 7.5 30 M7.5 30 C1.55 29.41, -1.64 29.41, 0 22.5 M7.5 30 C1.24 32.14, -2.22 27.4, 0 22.5 M0 22.5 C0.3 18.09, 0.76 14.96, 0 7.5 M0 22.5 C-0.01 16.51, 0.5 11.56, 0 7.5 M0 7.5 C-1.15 2.82, 1.88 1.16, 7.5 0 M0 7.5 C1.14 2.33, 0.34 -0.96, 7.5 0" stroke="transparent" stroke-width="2" fill="none"></path></g><g transform="translate(663.2976314150146 429.3430851177209) rotate(0 25.90398406982422 10)"><text x="0" y="0" font-family="Virgil, Segoe UI Emoji" font-size="16px" fill="#1e1e1e" text-anchor="start" style="white-space: pre;" direction="ltr" dominant-baseline="text-before-edge">Render</text></g><g stroke-linecap="round" transform="translate(727.1572174750618 423.10172141042176) rotate(0 31.58233553406353 15)"><path d="M7.5 0 C22.06 1.75, 37.41 0.2, 55.66 0 C60.33 -2.66, 64.47 3.05, 63.16 7.5 C63.65 13.67, 60.55 15.97, 63.16 22.5 C62.41 28.93, 61.89 29.91, 55.66 30 C36.11 33.59, 15.54 31.48, 7.5 30 C3.71 30.5, -2.37 29.36, 0 22.5 C-2.14 19.17, -2.24 8.88, 0 7.5 C-0.74 1.99, 5.92 1.34, 7.5 0" stroke="none" stroke-width="0" fill="#4dabf7"></path><path d="M7.5 0 C23.61 -1.39, 43.72 -0.99, 55.66 0 M7.5 0 C22.28 0.58, 35.09 -0.76, 55.66 0 M55.66 0 C61.28 -1.4, 64.04 0.63, 63.16 7.5 M55.66 0 C61.77 0.1, 61.69 1.64, 63.16 7.5 M63.16 7.5 C62.01 12.43, 64.52 16.58, 63.16 22.5 M63.16 7.5 C63.27 13.34, 62.93 19.04, 63.16 22.5 M63.16 22.5 C62.76 26.88, 59.94 31.08, 55.66 30 M63.16 22.5 C61.61 25.98, 58.52 29.6, 55.66 30 M55.66 30 C39.09 27.83, 23.94 28.81, 7.5 30 M55.66 30 C41.35 29.95, 26.53 29.36, 7.5 30 M7.5 30 C2.38 31.16, -1.65 27.32, 0 22.5 M7.5 30 C3.85 30.16, -1.58 27.53, 0 22.5 M0 22.5 C0.74 19.6, 0.09 13.02, 0 7.5 M0 22.5 C-0.12 17.71, -0.33 15.01, 0 7.5 M0 7.5 C-0.37 1.14, 3.45 -0.63, 7.5 0 M0 7.5 C-1.76 3.01, 4.43 2.11, 7.5 0" stroke="transparent" stroke-width="2" fill="none"></path></g><g transform="translate(732.1572174750618 428.10172141042176) rotate(0 25.90398406982422 10)"><text x="0" y="0" font-family="Virgil, Segoe UI Emoji" font-size="16px" fill="#1e1e1e" text-anchor="start" style="white-space: pre;" direction="ltr" dominant-baseline="text-before-edge">Render</text></g><g stroke-linecap="round" transform="translate(887.3513610312584 423.09473437266934) rotate(0 31.58233553406353 15)"><path d="M7.5 0 C19.41 -0.27, 26.54 -2.7, 55.66 0 C61.91 -2.5, 63.75 5.77, 63.16 7.5 C63.95 10.02, 61.89 15.78, 63.16 22.5 C60.48 28.53, 62.8 31.74, 55.66 30 C37.09 27.22, 24.57 31.85, 7.5 30 C4.35 27.78, -1.92 29.17, 0 22.5 C-0.42 16.68, 1.21 10.8, 0 7.5 C-0.37 -0.06, 5.37 -0.5, 7.5 0" stroke="none" stroke-width="0" fill="#4dabf7"></path><path d="M7.5 0 C25.47 2.38, 47.06 0.82, 55.66 0 M7.5 0 C21.24 0.89, 35.03 0.31, 55.66 0 M55.66 0 C62.29 1.93, 63.82 2.26, 63.16 7.5 M55.66 0 C61.94 0.59, 63.27 2.49, 63.16 7.5 M63.16 7.5 C63.54 11.66, 63.67 19.89, 63.16 22.5 M63.16 7.5 C63.35 11.99, 62.75 15.65, 63.16 22.5 M63.16 22.5 C63.4 26.75, 62.21 28.76, 55.66 30 M63.16 22.5 C62.03 25.56, 62.5 31.21, 55.66 30 M55.66 30 C46.49 29.74, 35.19 28.8, 7.5 30 M55.66 30 C36.21 30.41, 17.88 29.72, 7.5 30 M7.5 30 C1.42 30.27, -0.79 28.5, 0 22.5 M7.5 30 C3.77 28.37, -1.08 28.48, 0 22.5 M0 22.5 C-1.19 18.22, -1.15 15.49, 0 7.5 M0 22.5 C-0.59 19.29, -0.2 15.56, 0 7.5 M0 7.5 C0.18 2.94, 3.14 0.92, 7.5 0 M0 7.5 C-0.71 1.58, 2.63 -1, 7.5 0" stroke="transparent" stroke-width="2" fill="none"></path></g><g transform="translate(892.3513610312584 428.09473437266934) rotate(0 25.90398406982422 10)"><text x="0" y="0" font-family="Virgil, Segoe UI Emoji" font-size="16px" fill="#1e1e1e" text-anchor="start" style="white-space: pre;" direction="ltr" dominant-baseline="text-before-edge">Render</text></g><g stroke-linecap="round" transform="translate(796.3898632914133 422.1724453893862) rotate(0 42.4164843322269 15)"><path d="M7.5 0 C33.08 0.16, 56.57 -0.6, 77.33 0 C78.96 -3.2, 84.78 4.32, 84.83 7.5 C82.36 13.69, 86.69 17.72, 84.83 22.5 C83.56 28.02, 81.72 28.74, 77.33 30 C61.54 28.82, 38.86 28.14, 7.5 30 C2.03 32.7, 2.31 27.76, 0 22.5 C1.08 17.2, 1.28 10.12, 0 7.5 C2.21 -1.02, 3.52 1.79, 7.5 0" stroke="none" stroke-width="0" fill="#4dabf7"></path><path d="M7.5 0 C30.96 -1.13, 58.27 0.61, 77.33 0 M7.5 0 C33.39 0.45, 61.71 -0.2, 77.33 0 M77.33 0 C80.48 0.61, 82.92 0.82, 84.83 7.5 M77.33 0 C81.23 1.77, 85.48 2.88, 84.83 7.5 M84.83 7.5 C84.56 12.45, 83.91 14.52, 84.83 22.5 M84.83 7.5 C84.54 12.56, 84.76 16.71, 84.83 22.5 M84.83 22.5 C83.68 27.82, 81.18 28.29, 77.33 30 M84.83 22.5 C85.79 26.97, 83.33 29.81, 77.33 30 M77.33 30 C59.25 30.96, 44.58 29.72, 7.5 30 M77.33 30 C57.04 30.15, 34.96 29.41, 7.5 30 M7.5 30 C1.69 28.82, 0.28 28.73, 0 22.5 M7.5 30 C3.16 29.81, 0.42 26.83, 0 22.5 M0 22.5 C0.55 16.67, -0.19 12.77, 0 7.5 M0 22.5 C-0.18 18.59, -0.64 13.5, 0 7.5 M0 7.5 C1.2 4.21, 2.57 -0.48, 7.5 0 M0 7.5 C-2.08 2.56, 4.53 -1.87, 7.5 0" stroke="transparent" stroke-width="2" fill="none"></path></g><g stroke-linecap="round" transform="translate(957.3476633591636 422.92590460824886) rotate(0 92.1806206748588 15)"><path d="M7.5 0 C57.33 2.83, 113.14 -2.91, 176.86 0 C182.11 -2.8, 182.83 2.89, 184.36 7.5 C186.53 14.53, 183.58 19.4, 184.36 22.5 C185.13 30.72, 184.42 27.9, 176.86 30 C111.2 25.25, 45.8 27.59, 7.5 30 C1.31 31.79, -1.07 23.95, 0 22.5 C2.43 19.57, -1.09 13.79, 0 7.5 C-2.02 0.64, 4.37 -1.19, 7.5 0" stroke="none" stroke-width="0" fill="#69db7c"></path><path d="M7.5 0 C60.23 -0.85, 109.84 0.85, 176.86 0 M7.5 0 C46.05 -1.66, 84.89 -0.44, 176.86 0 M176.86 0 C183.02 0.15, 185.23 1.64, 184.36 7.5 M176.86 0 C183.57 -1.58, 185.28 1.02, 184.36 7.5 M184.36 7.5 C183.53 12.34, 185.91 13.73, 184.36 22.5 M184.36 7.5 C183.79 11.87, 184.11 16.85, 184.36 22.5 M184.36 22.5 C183.43 28, 180.33 31.47, 176.86 30 M184.36 22.5 C182.7 27.04, 180.7 31.6, 176.86 30 M176.86 30 C112.04 29.6, 47.44 29.71, 7.5 30 M176.86 30 C109.07 29.03, 42.16 28.91, 7.5 30 M7.5 30 C0.74 28.06, -0.23 29.27, 0 22.5 M7.5 30 C3.6 30.21, 0.76 29.67, 0 22.5 M0 22.5 C-0.03 19.68, 0.79 17.21, 0 7.5 M0 22.5 C0.24 18.17, 0.01 14.43, 0 7.5 M0 7.5 C-1.58 0.75, 4.49 0.01, 7.5 0 M0 7.5 C-0.18 4.16, 4.05 -1.21, 7.5 0" stroke="transparent" stroke-width="2" fill="none"></path></g><g transform="translate(962.3476633591636 427.92590460824886) rotate(0 59.463966369628906 10)"><text x="0" y="0" font-family="Virgil, Segoe UI Emoji" font-size="16px" fill="#1e1e1e" text-anchor="start" style="white-space: pre;" direction="ltr" dominant-baseline="text-before-edge">Full Page Load</text></g><g stroke-linecap="round"><g transform="translate(350.6407743208074 217.79123549467977) rotate(0 200.90270523119761 0)"><path d="M1.08 0.24 C68.23 -0.07, 335.83 -0.78, 402.46 -0.72" stroke="#1e1e1e" stroke-width="2.5" fill="none" stroke-dasharray="8 10"></path></g></g><mask></mask></svg>