<svg version="1.1" xmlns="http://www.w3.org/2000/svg" viewBox="0 0 1287.077772943172 566.4503502644093" width="2574.155545886344" height="1132.9007005288186" filter="invert(93%) hue-rotate(180deg)">
  <!-- svg-source:excalidraw -->
  
  <defs>
    <style class="style-fonts">
      @font-face {
        font-family: "Virgil";
        src: url("https://excalidraw.com/Virgil.woff2");
      }
      @font-face {
        font-family: "Cascadia";
        src: url("https://excalidraw.com/Cascadia.woff2");
      }
      @font-face {
        font-family: "Assistant";
        src: url("https://excalidraw.com/Assistant-Regular.woff2");
      }
    </style>
    
  </defs>
  <g stroke-linecap="round"><g transform="translate(92.73035467074442 173.76936994299467) rotate(0 0 28.032188840980325)"><path d="M0.07 -1.1 C0.21 8.16, -0.45 47.07, -0.3 56.54 M-1.35 0.93 C-1.29 9.74, -1.75 45.35, -1.4 54.67" stroke="#1e1e1e" stroke-width="2" fill="none"></path></g></g><mask></mask><g stroke-linecap="round"><g transform="translate(93.76787228377725 200.50145955283006) rotate(0 590.087667668513 0)"><path d="M-0.3 0.48 C196.55 0.6, 984.61 -0.44, 1181.16 -0.36 M1.75 -0.32 C198.52 0.07, 984.14 1.08, 1180.73 0.99" stroke="#1e1e1e" stroke-width="2" fill="none"></path></g></g><mask></mask><g stroke-linecap="round"><g transform="translate(1274.6243148133617 172.17022527352492) rotate(0 0 28.032188840980325)"><path d="M0.99 -0.36 C0.84 9.07, -1.02 47.64, -1.18 57.06 M0.05 -1.59 C0.28 7.48, 1.04 45.6, 0.92 55.45" stroke="#1e1e1e" stroke-width="2" fill="none"></path></g></g><mask></mask><g transform="translate(10 186.37856486196097) rotate(0 30.84996795654297 12.5)"><text x="0" y="0" font-family="Virgil, Segoe UI Emoji" font-size="20px" fill="#1e1e1e" text-anchor="start" style="white-space: pre;" direction="ltr" dominant-baseline="text-before-edge">Server</text></g><g stroke-linecap="round"><g transform="translate(93.82744873158299 388.764822829045) rotate(0 0 28.032188840980325)"><path d="M0.04 0.1 C0.12 9.45, -0.59 47.92, -0.71 57.09 M-1.39 -0.9 C-0.82 8.05, 1.7 46.04, 1.62 55.51" stroke="#1e1e1e" stroke-width="2" fill="none"></path></g></g><mask></mask><g stroke-linecap="round"><g transform="translate(94.86496634461582 415.4969124388804) rotate(0 589.8500244579227 0)"><path d="M-0.71 1.03 C195.78 0.85, 982.46 -0.87, 1179 -0.95 M1.11 0.52 C197.99 0.46, 984.73 0.42, 1181.35 0.08" stroke="#1e1e1e" stroke-width="2" fill="none"></path></g></g><mask></mask><g stroke-linecap="round"><g transform="translate(1275.8168983322357 387.16567815957524) rotate(0 0 28.032188840980325)"><path d="M-0.7 -0.95 C-0.77 8.31, -1.43 46.95, -1.17 56.6 M1.14 1.16 C1.47 10.59, 1.02 45.77, 0.93 54.76" stroke="#1e1e1e" stroke-width="2" fill="none"></path></g></g><mask></mask><g transform="translate(16.12689689281615 402.9038044860886) rotate(0 27.049972534179688 12.5)"><text x="0" y="0" font-family="Virgil, Segoe UI Emoji" font-size="20px" fill="#1e1e1e" text-anchor="start" style="white-space: pre;" direction="ltr" dominant-baseline="text-before-edge">Client</text></g><g mask="url(#mask-kT5ReH52-8CVhlWkgO6dn)" stroke-linecap="round"><g transform="translate(104.20129249361344 413.98487076869696) rotate(0 40.04295267002999 -51.018031436033425)"><path d="M0.89 0.91 C14.54 -16.23, 67.38 -85.18, 80.75 -102.31 M-0.1 0.35 C13.55 -16.66, 66.66 -84.12, 80.15 -100.92" stroke="#1e1e1e" stroke-width="2" fill="none"></path></g><g transform="translate(104.20129249361344 413.98487076869696) rotate(0 40.04295267002999 -51.018031436033425)"><path d="M72.23 -77.2 C75.25 -80.97, 74.87 -85.24, 80.15 -100.92 M72.23 -77.2 C75.19 -85.23, 77.87 -92.85, 80.15 -100.92" stroke="#1e1e1e" stroke-width="2" fill="none"></path></g><g transform="translate(104.20129249361344 413.98487076869696) rotate(0 40.04295267002999 -51.018031436033425)"><path d="M58.84 -87.84 C64.62 -89.55, 66.96 -91.66, 80.15 -100.92 M58.84 -87.84 C66.02 -92.55, 72.92 -96.83, 80.15 -100.92" stroke="#1e1e1e" stroke-width="2" fill="none"></path></g></g><mask id="mask-kT5ReH52-8CVhlWkgO6dn"><rect x="0" y="0" fill="#fff" width="284.2871978336734" height="616.0209336407638"></rect><rect x="106.78428422614525" y="350.4668393326633" fill="#000" width="74.919921875" height="25" opacity="1"></rect></mask><g transform="translate(106.78428422614525 350.4668393326633) rotate(0 37.73948045718316 12.819388898834632)"><text x="37.4599609375" y="0" font-family="Virgil, Segoe UI Emoji" font-size="20px" fill="#1e1e1e" text-anchor="middle" style="white-space: pre;" direction="ltr" dominant-baseline="text-before-edge">request</text></g><g stroke-linecap="round"><g transform="translate(538.9362733804119 35.80042896810119) rotate(0 0 23.89467820920936)"><path d="M0.45 0.08 C0.42 8.08, 0.13 39.99, 0.11 47.89 M0.02 -0.36 C-0.1 7.48, -0.28 38.93, -0.27 46.98" stroke="#1e1e1e" stroke-width="2" fill="none"></path></g><g transform="translate(538.9362733804119 35.80042896810119) rotate(0 0 23.89467820920936)"><path d="M-8.38 24.5 C-5.38 32.64, -2.46 40.94, -0.27 46.98 M-8.38 24.5 C-6.46 30.24, -4.13 35.39, -0.27 46.98" stroke="#1e1e1e" stroke-width="2" fill="none"></path></g><g transform="translate(538.9362733804119 35.80042896810119) rotate(0 0 23.89467820920936)"><path d="M7.97 24.55 C5.16 32.74, 2.28 41.02, -0.27 46.98 M7.97 24.55 C5.9 30.21, 4.24 35.35, -0.27 46.98" stroke="#1e1e1e" stroke-width="2" fill="none"></path></g></g><mask></mask><g transform="translate(459.86753151980884 10) rotate(0 83.06395721435547 10)"><text x="0" y="0" font-family="Virgil, Segoe UI Emoji" font-size="16px" fill="#1e1e1e" text-anchor="start" style="white-space: pre;" direction="ltr" dominant-baseline="text-before-edge">Start Fetching Data</text></g><g stroke-linecap="round" transform="translate(539.1084458046425 126.72847293707582) rotate(0 77.4287391145026 15)"><path d="M7.5 0 C43.81 3.02, 76.71 2.38, 147.36 0 C150.95 -2.98, 155.34 0.95, 154.86 7.5 C155.46 13.79, 153.38 15.01, 154.86 22.5 C151.92 26.61, 153.74 31.39, 147.36 30 C95.22 26.52, 38.58 32.29, 7.5 30 C1.76 29.44, 1.31 28.12, 0 22.5 C-1.51 16.36, -2.51 12.88, 0 7.5 C1.28 6, 3.94 1.96, 7.5 0" stroke="none" stroke-width="0" fill="#99e9f2"></path><path d="M7.5 0 C51.03 0.71, 95.34 -1.25, 147.36 0 M7.5 0 C56.21 -0.02, 104.22 1.02, 147.36 0 M147.36 0 C151.61 -1.34, 155.57 3.03, 154.86 7.5 M147.36 0 C153.16 0.7, 154.72 4.31, 154.86 7.5 M154.86 7.5 C154.55 14.33, 153.81 18.33, 154.86 22.5 M154.86 7.5 C154.64 11.07, 154.29 14.63, 154.86 22.5 M154.86 22.5 C155.43 26.42, 150.46 30.1, 147.36 30 M154.86 22.5 C155.29 26.92, 151.59 28.64, 147.36 30 M147.36 30 C96.42 31.62, 46.52 32.52, 7.5 30 M147.36 30 C94.37 28.57, 43.44 29.53, 7.5 30 M7.5 30 C3.72 28.63, -0.11 26.66, 0 22.5 M7.5 30 C2.36 31.94, 1.92 25.91, 0 22.5 M0 22.5 C0.78 20.36, 0.25 16.25, 0 7.5 M0 22.5 C0.74 18.91, -0.64 16.67, 0 7.5 M0 7.5 C2 3.99, 1.26 -0.42, 7.5 0 M0 7.5 C0.19 4.52, 0.88 0.97, 7.5 0" stroke="transparent" stroke-width="2" fill="none"></path></g><g transform="translate(544.1084458046425 131.72847293707582) rotate(0 25.455978393554688 10)"><text x="0" y="0" font-family="Virgil, Segoe UI Emoji" font-size="16px" fill="#1e1e1e" text-anchor="start" style="white-space: pre;" direction="ltr" dominant-baseline="text-before-edge">Article</text></g><g stroke-linecap="round" transform="translate(538.350798258838 89.67517721313743) rotate(0 52.58008925501235 15)"><path d="M7.5 0 C38.59 -3.67, 72.97 -2.24, 97.66 0 C100.51 3.41, 107.47 2.96, 105.16 7.5 C102.78 12.82, 106.03 20.52, 105.16 22.5 C108.27 30.25, 101.07 31.9, 97.66 30 C75.8 30.97, 56.73 32.16, 7.5 30 C4.83 28.69, 2.27 25.36, 0 22.5 C1.22 21, 1.34 15.72, 0 7.5 C-2.57 3.88, -0.59 -3.29, 7.5 0" stroke="none" stroke-width="0" fill="#eebefa"></path><path d="M7.5 0 C41.88 1.08, 74.03 1.11, 97.66 0 M7.5 0 C31.29 -1.33, 56.19 -0.39, 97.66 0 M97.66 0 C103.36 0.61, 105.04 4.07, 105.16 7.5 M97.66 0 C104.29 -1.8, 103.79 2.21, 105.16 7.5 M105.16 7.5 C104.05 13.18, 104.78 18.6, 105.16 22.5 M105.16 7.5 C105.26 11.77, 104.33 16.89, 105.16 22.5 M105.16 22.5 C105.54 27, 101.99 28.82, 97.66 30 M105.16 22.5 C106.68 26.55, 103.77 30.3, 97.66 30 M97.66 30 C67.83 32.74, 33.67 29.75, 7.5 30 M97.66 30 C75.75 29.73, 52.56 30, 7.5 30 M7.5 30 C2.38 31.68, 1.67 26.11, 0 22.5 M7.5 30 C0.35 28.67, -1.95 28.56, 0 22.5 M0 22.5 C-1.42 16.1, 0.95 12.87, 0 7.5 M0 22.5 C0.9 19.53, -0.32 15.3, 0 7.5 M0 7.5 C0.17 4.26, 1.09 0.84, 7.5 0 M0 7.5 C-1.49 3.87, 1.73 2.16, 7.5 0" stroke="transparent" stroke-width="2" fill="none"></path></g><g transform="translate(543.350798258838 94.67517721313743) rotate(0 25.27997589111328 10)"><text x="0" y="0" font-family="Virgil, Segoe UI Emoji" font-size="16px" fill="#1e1e1e" text-anchor="start" style="white-space: pre;" direction="ltr" dominant-baseline="text-before-edge">Profile</text></g><g stroke-linecap="round" transform="translate(540.0498961735684 160.00269131560344) rotate(0 169.2085151058327 15)"><path d="M7.5 0 C76.29 4.1, 149.66 2.06, 330.92 0 C339.49 -2.31, 338.81 -0.44, 338.42 7.5 C340.85 13.69, 337.33 17.19, 338.42 22.5 C336.05 26.8, 339.32 29.26, 330.92 30 C240.56 29.79, 148.53 29.21, 7.5 30 C1.6 26.52, 1.77 28.78, 0 22.5 C-2.04 17.58, -2.42 8.11, 0 7.5 C0.02 -0.17, 5.1 -3.18, 7.5 0" stroke="none" stroke-width="0" fill="#ffc9c9"></path><path d="M7.5 0 C117.64 -0.75, 229.68 -1.5, 330.92 0 M7.5 0 C83.08 -0.39, 158.12 -0.05, 330.92 0 M330.92 0 C337.33 -1.56, 337.23 2.25, 338.42 7.5 M330.92 0 C337.86 -1.42, 337.96 0.93, 338.42 7.5 M338.42 7.5 C338.56 10.8, 338.73 16.76, 338.42 22.5 M338.42 7.5 C338.42 11, 338.02 14.44, 338.42 22.5 M338.42 22.5 C339.74 26.68, 336.88 30.26, 330.92 30 M338.42 22.5 C339.51 29.29, 338.04 31.72, 330.92 30 M330.92 30 C202.29 30.14, 75.7 29.63, 7.5 30 M330.92 30 C256.01 29.65, 181.76 28.58, 7.5 30 M7.5 30 C0.63 28.85, -1.69 28.42, 0 22.5 M7.5 30 C3.97 30.24, -0.09 25.35, 0 22.5 M0 22.5 C-1.07 17.47, 0.63 16.88, 0 7.5 M0 22.5 C0.16 17.55, -0.44 11.59, 0 7.5 M0 7.5 C-1.29 3.69, 1.83 1.88, 7.5 0 M0 7.5 C1.39 4.65, 3.48 -0.9, 7.5 0" stroke="transparent" stroke-width="2" fill="none"></path></g><g transform="translate(545.0498961735684 165.00269131560344) rotate(0 36.68797302246094 10)"><text x="0" y="0" font-family="Virgil, Segoe UI Emoji" font-size="16px" fill="#1e1e1e" text-anchor="start" style="white-space: pre;" direction="ltr" dominant-baseline="text-before-edge">Comments</text></g><g stroke-linecap="round" transform="translate(259.9527898463457 421.8384313539059) rotate(0 52.58008925501235 15)"><path d="M7.5 0 C46.65 -2.52, 79.05 -3.15, 97.66 0 C101.77 1.39, 106.55 5.61, 105.16 7.5 C103.27 12.62, 107.6 18.24, 105.16 22.5 C104.6 28.81, 103.28 32.33, 97.66 30 C73 25.55, 51.91 30.31, 7.5 30 C6 31.44, 1.96 24.93, 0 22.5 C0.24 15.42, 2.18 9.96, 0 7.5 C3.12 -0.83, 1.2 -2.37, 7.5 0" stroke="none" stroke-width="0" fill="#ced4da"></path><path d="M7.5 0 C34.71 1.05, 65.13 1.04, 97.66 0 M7.5 0 C38.01 -1.49, 66.5 -0.84, 97.66 0 M97.66 0 C104.35 -1.24, 104.76 1.14, 105.16 7.5 M97.66 0 C102.53 -0.44, 104.51 2.77, 105.16 7.5 M105.16 7.5 C104.38 9.45, 105.27 14.54, 105.16 22.5 M105.16 7.5 C105.61 11.31, 105.47 15.85, 105.16 22.5 M105.16 22.5 C106.11 29.06, 104.51 31.5, 97.66 30 M105.16 22.5 C107.36 25.97, 101.41 28.85, 97.66 30 M97.66 30 C60.47 30.44, 25.18 30.43, 7.5 30 M97.66 30 C62.09 28.8, 27.54 29.83, 7.5 30 M7.5 30 C3.78 30.21, -0.08 25.63, 0 22.5 M7.5 30 C1.06 31.48, 1.97 26, 0 22.5 M0 22.5 C1.04 18.54, -0.38 16.56, 0 7.5 M0 22.5 C-0.38 17.13, -0.15 11.56, 0 7.5 M0 7.5 C1.21 4.37, 3.35 -0.78, 7.5 0 M0 7.5 C-1.9 2.81, 1.51 -1.37, 7.5 0" stroke="transparent" stroke-width="2" fill="none"></path></g><g transform="translate(264.9527898463457 426.8384313539059) rotate(0 25.90398406982422 10)"><text x="0" y="0" font-family="Virgil, Segoe UI Emoji" font-size="16px" fill="#1e1e1e" text-anchor="start" style="white-space: pre;" direction="ltr" dominant-baseline="text-before-edge">Render</text></g><g stroke-linecap="round" transform="translate(1132.3973791019307 422.99073357367934) rotate(0 66.53272674479558 15)"><path d="M7.5 0 C55.41 0.95, 103.01 -0.98, 125.57 0 C132.83 -2.14, 132.17 -0.98, 133.07 7.5 C134.24 14.21, 131.23 19.01, 133.07 22.5 C129.98 24.21, 130.58 27.33, 125.57 30 C78.3 30.54, 35.32 31.02, 7.5 30 C4.35 31.59, -3 24.51, 0 22.5 C-2.75 19.99, 0.2 14.19, 0 7.5 C-0.1 3.96, 0.27 -0.5, 7.5 0" stroke="none" stroke-width="0" fill="#69db7c"></path><path d="M7.5 0 C40.21 -0.5, 73.9 -1.43, 125.57 0 M7.5 0 C44.64 0.69, 83.87 0.39, 125.57 0 M125.57 0 C129.9 -1.18, 134.39 1.68, 133.07 7.5 M125.57 0 C131.67 0.3, 134.16 4.29, 133.07 7.5 M133.07 7.5 C132.18 12.57, 132.43 20.73, 133.07 22.5 M133.07 7.5 C133.12 12.38, 133.11 18.52, 133.07 22.5 M133.07 22.5 C134.74 26.11, 128.69 28.85, 125.57 30 M133.07 22.5 C131.12 28.56, 132.04 30.24, 125.57 30 M125.57 30 C91.9 30.98, 54.36 27.3, 7.5 30 M125.57 30 C83.79 30.67, 43.35 31.76, 7.5 30 M7.5 30 C1.09 30.84, -1.29 28.69, 0 22.5 M7.5 30 C1.73 32.16, 1.39 29.65, 0 22.5 M0 22.5 C0.26 16.71, -0.84 13.64, 0 7.5 M0 22.5 C-0.5 17.12, -0.63 11.39, 0 7.5 M0 7.5 C0.77 3.27, 4.23 1.53, 7.5 0 M0 7.5 C-1.02 3.72, 0.99 -0.45, 7.5 0" stroke="transparent" stroke-width="2" fill="none"></path></g><g transform="translate(1137.3973791019307 427.99073357367934) rotate(0 59.463966369628906 10)"><text x="0" y="0" font-family="Virgil, Segoe UI Emoji" font-size="16px" fill="#1e1e1e" text-anchor="start" style="white-space: pre;" direction="ltr" dominant-baseline="text-before-edge">Full Page Load</text></g><g mask="url(#mask-P1Xdp_gf9-qvvTS9v9Cnj)" stroke-linecap="round"><g transform="translate(187.52856126031838 311.27982846341547) rotate(0 34.390977378712705 49.95252712831439)"><path d="M0.74 0.51 C12.3 17.21, 58.34 83.71, 69.88 100.11 M-0.33 -0.26 C11.12 16.06, 57.82 81.43, 69.5 98.09" stroke="#1e1e1e" stroke-width="2" fill="none"></path></g><g transform="translate(187.52856126031838 311.27982846341547) rotate(0 34.390977378712705 49.95252712831439)"><path d="M48.94 83.87 C56.87 90.46, 63.43 95.47, 69.5 98.09 M48.94 83.87 C54.16 86.35, 58.47 90.67, 69.5 98.09" stroke="#1e1e1e" stroke-width="2" fill="none"></path></g><g transform="translate(187.52856126031838 311.27982846341547) rotate(0 34.390977378712705 49.95252712831439)"><path d="M62.9 73.98 C66.01 84.07, 67.77 92.48, 69.5 98.09 M62.9 73.98 C64.97 78.65, 66.24 85.14, 69.5 98.09" stroke="#1e1e1e" stroke-width="2" fill="none"></path></g></g><mask id="mask-P1Xdp_gf9-qvvTS9v9Cnj"><rect x="0" y="0" fill="#fff" width="356.3105160177438" height="511.18488272004424"></rect><rect x="186.94356360241" y="351.23235559172963" fill="#000" width="69.95195007324219" height="20" opacity="1"></rect></mask><g transform="translate(186.94356360241 351.23235559172963) rotate(0 35.35711506305415 9.970215876419388)"><text x="34.975975036621094" y="0" font-family="Virgil, Segoe UI Emoji" font-size="16px" fill="#1e1e1e" text-anchor="middle" style="white-space: pre;" direction="ltr" dominant-baseline="text-before-edge">Response</text></g><g stroke-linecap="round"><g transform="translate(91.07320416814764 275.66922793813865) rotate(0 0 28.032188840980325)"><path d="M-0.35 -0.23 C-0.09 9.05, 0.86 47.56, 1 56.89 M1.66 -1.4 C1.91 8.06, 0.86 45.48, 0.57 55.2" stroke="#1e1e1e" stroke-width="2" fill="none"></path></g></g><mask></mask><g stroke-linecap="round"><g transform="translate(92.11072178118047 302.40131754797403) rotate(0 90.22815197688215 0)"><path d="M1 0.82 C31.21 0.81, 150.94 -0.26, 180.92 -0.3 M0.06 0.21 C30.19 0.4, 150.18 1.35, 180.22 1.08" stroke="#1e1e1e" stroke-width="2" fill="none"></path></g></g><mask></mask><g stroke-linecap="round"><g transform="translate(273.7843133902388 274.47441964411246) rotate(0 0 28.032188840980325)"><path d="M0.47 -0.3 C0.37 9.01, 0.35 47.34, 0.42 56.69 M-0.75 -1.5 C-1.05 7.39, -0.53 45.14, -0.31 54.9" stroke="#1e1e1e" stroke-width="2" fill="none"></path></g></g><mask></mask><g transform="translate(32.54282340585996 291.21202714161564) rotate(0 20.67998504638672 12.5)"><text x="0" y="0" font-family="Virgil, Segoe UI Emoji" font-size="20px" fill="#1e1e1e" text-anchor="start" style="white-space: pre;" direction="ltr" dominant-baseline="text-before-edge">CDN</text></g><g stroke-linecap="round" transform="translate(105.9474716808545 421.89062711870474) rotate(0 75.07289760675303 15)"><path d="M7.5 0 C53.54 0.47, 104.94 -0.39, 142.65 0 C145.19 -3.4, 148.22 3.63, 150.15 7.5 C151.14 15.29, 149.33 17.8, 150.15 22.5 C152.32 25.35, 149.53 29.74, 142.65 30 C104.44 25.86, 64.38 30.99, 7.5 30 C3.48 30.33, -2.33 28.88, 0 22.5 C-1.73 15.87, 0.54 13.28, 0 7.5 C2.21 0.58, 1.93 -0.95, 7.5 0" stroke="none" stroke-width="0" fill="#ced4da"></path><path d="M7.5 0 C40.34 1.59, 73.65 -0.81, 142.65 0 M7.5 0 C46.81 0.31, 83.28 0.54, 142.65 0 M142.65 0 C146.2 -1.61, 151.17 1.15, 150.15 7.5 M142.65 0 C148.41 -1.09, 150.45 1.98, 150.15 7.5 M150.15 7.5 C150.01 11.09, 150.05 15.01, 150.15 22.5 M150.15 7.5 C150.14 10.47, 150.52 14.42, 150.15 22.5 M150.15 22.5 C150.79 25.62, 145.86 30.73, 142.65 30 M150.15 22.5 C152.36 26.31, 146.66 29.36, 142.65 30 M142.65 30 C104.77 27.55, 72.26 28.15, 7.5 30 M142.65 30 C104.14 29.29, 65.34 29.84, 7.5 30 M7.5 30 C0.54 30.96, 1.16 26.09, 0 22.5 M7.5 30 C0.57 28.62, -0.93 27.67, 0 22.5 M0 22.5 C0.59 18.26, -0.83 17.12, 0 7.5 M0 22.5 C0.5 16.33, 0.26 11.98, 0 7.5 M0 7.5 C-1.83 3.59, 3.01 -1.36, 7.5 0 M0 7.5 C0.37 4.37, 3.89 -0.17, 7.5 0" stroke="transparent" stroke-width="2" fill="none"></path></g><g transform="translate(110.9474716808545 426.89062711870474) rotate(0 49.69597625732422 10)"><text x="0" y="0" font-family="Virgil, Segoe UI Emoji" font-size="16px" fill="#1e1e1e" text-anchor="start" style="white-space: pre;" direction="ltr" dominant-baseline="text-before-edge">Blank Screen</text></g><g stroke-linecap="round"><g transform="translate(365.3732937491004 506.4194359606463) rotate(0 0.39213371886944515 -25.343675423115428)"><path d="M-0.7 0.73 C-0.62 -7.69, 0.41 -40.89, 0.76 -49.57 M1.14 0.07 C1.02 -8.74, -0.18 -42.7, -0.21 -51.11" stroke="#1e1e1e" stroke-width="2" fill="none"></path></g><g transform="translate(365.3732937491004 506.4194359606463) rotate(0 0.39213371886944515 -25.343675423115428)"><path d="M8.85 -27.81 C6.92 -35.53, 4.6 -42.07, -0.21 -51.11 M8.85 -27.81 C6.39 -32.73, 4.29 -38.62, -0.21 -51.11" stroke="#1e1e1e" stroke-width="2" fill="none"></path></g><g transform="translate(365.3732937491004 506.4194359606463) rotate(0 0.39213371886944515 -25.343675423115428)"><path d="M-8.25 -27.44 C-4.59 -35.18, -1.32 -41.85, -0.21 -51.11 M-8.25 -27.44 C-6.53 -32.57, -4.47 -38.56, -0.21 -51.11" stroke="#1e1e1e" stroke-width="2" fill="none"></path></g></g><mask></mask><g transform="translate(288.2222388736118 516.4503502644093) rotate(0 80.89595031738281 20)"><text x="80.89595031738281" y="0" font-family="Virgil, Segoe UI Emoji" font-size="16px" fill="#1e1e1e" text-anchor="middle" style="white-space: pre;" direction="ltr" dominant-baseline="text-before-edge">Layout</text><text x="80.89595031738281" y="20" font-family="Virgil, Segoe UI Emoji" font-size="16px" fill="#1e1e1e" text-anchor="middle" style="white-space: pre;" direction="ltr" dominant-baseline="text-before-edge">Visible &amp; Interactive</text></g><g mask="url(#mask-kW-Dx0OlC-KFa4RGpefCZ)" stroke-linecap="round"><g transform="translate(365.16474237615694 414.57491937119903) rotate(0 83.37427788633067 -106.81887240234073)"><path d="M-0.46 0.35 C27.37 -35.08, 139.66 -177.63, 167.52 -213.49 M1.5 -0.51 C29.2 -35.65, 139.58 -176.27, 166.98 -211.87" stroke="#1e1e1e" stroke-width="2" fill="none"></path></g><g transform="translate(365.16474237615694 414.57491937119903) rotate(0 83.37427788633067 -106.81887240234073)"><path d="M159.29 -188.08 C162.69 -194.91, 164.98 -204.45, 166.98 -211.87 M159.29 -188.08 C160.31 -192.77, 161.65 -198.1, 166.98 -211.87" stroke="#1e1e1e" stroke-width="2" fill="none"></path></g><g transform="translate(365.16474237615694 414.57491937119903) rotate(0 83.37427788633067 -106.81887240234073)"><path d="M145.8 -198.58 C153.73 -201.77, 160.65 -207.71, 166.98 -211.87 M145.8 -198.58 C149.47 -201.21, 153.55 -204.39, 166.98 -211.87" stroke="#1e1e1e" stroke-width="2" fill="none"></path></g></g><mask id="mask-kW-Dx0OlC-KFa4RGpefCZ"><rect x="0" y="0" fill="#fff" width="631.9132981488183" height="728.2126641758805"></rect><rect x="411.0790593249876" y="295.2560469688583" fill="#000" width="74.919921875" height="25" opacity="1"></rect></mask><g transform="translate(411.0790593249876 295.2560469688583) rotate(0 37.61409597061538 12.752183530107231)"><text x="37.4599609375" y="0" font-family="Virgil, Segoe UI Emoji" font-size="20px" fill="#1e1e1e" text-anchor="middle" style="white-space: pre;" direction="ltr" dominant-baseline="text-before-edge">request</text></g><g mask="url(#mask-owrFVtVQTy-WLIwi0qPtU)" stroke-linecap="round"><g transform="translate(882.8591871543067 202.5849097441469) rotate(0 70.41811495868933 106.41259466510405)"><path d="M-0.07 -1.16 C23.09 34.39, 116.38 177.74, 139.71 213.44 M-1.56 0.85 C21.88 36.03, 117.84 176.04, 141.83 211.64" stroke="#1e1e1e" stroke-width="2" fill="none"></path></g><g transform="translate(882.8591871543067 202.5849097441469) rotate(0 70.41811495868933 106.41259466510405)"><path d="M121.55 197.03 C127.02 200.48, 137.37 206.15, 141.83 211.64 M121.55 197.03 C128.65 201.41, 134.83 205.92, 141.83 211.64" stroke="#1e1e1e" stroke-width="2" fill="none"></path></g><g transform="translate(882.8591871543067 202.5849097441469) rotate(0 70.41811495868933 106.41259466510405)"><path d="M135.69 187.41 C136.02 194.36, 141.22 203.53, 141.83 211.64 M135.69 187.41 C138.19 194.82, 139.87 202.39, 141.83 211.64" stroke="#1e1e1e" stroke-width="2" fill="none"></path></g></g><mask id="mask-owrFVtVQTy-WLIwi0qPtU"><rect x="0" y="0" fill="#fff" width="1123.6954170716854" height="515.410099074355"></rect><rect x="918.3013270763768" y="298.9975044092512" fill="#000" width="69.95195007324219" height="20" opacity="1"></rect></mask><g transform="translate(918.3013270763768 298.9975044092512) rotate(0 34.68951636228485 9.72945611216096)"><text x="34.975975036621094" y="0" font-family="Virgil, Segoe UI Emoji" font-size="16px" fill="#1e1e1e" text-anchor="middle" style="white-space: pre;" direction="ltr" dominant-baseline="text-before-edge">Response</text></g><g stroke-linecap="round" transform="translate(1021.3917563137074 422.5455095579532) rotate(0 52.58008925501235 15)"><path d="M7.5 0 C27.98 2.69, 54.66 -1.25, 97.66 0 C104.01 -2.29, 107.26 4, 105.16 7.5 C104.52 13.01, 107.11 18.62, 105.16 22.5 C102.9 30.7, 102.82 27.73, 97.66 30 C73.71 30.15, 44.92 30.5, 7.5 30 C5.97 30.22, 0.92 28.11, 0 22.5 C1.36 16.76, 0.65 16.66, 0 7.5 C1.32 0.82, 3.29 2.65, 7.5 0" stroke="none" stroke-width="0" fill="#4dabf7"></path><path d="M7.5 0 C41.43 0.4, 76.79 -0.75, 97.66 0 M7.5 0 C29.26 0.3, 51.04 0.94, 97.66 0 M97.66 0 C102.52 1.42, 104.39 0.77, 105.16 7.5 M97.66 0 C102.09 -0.68, 104.43 0.92, 105.16 7.5 M105.16 7.5 C103.98 13.28, 105.51 17.05, 105.16 22.5 M105.16 7.5 C105.41 12.48, 104.57 16.42, 105.16 22.5 M105.16 22.5 C103.5 28.94, 103.9 31.12, 97.66 30 M105.16 22.5 C104.72 28.8, 103.41 31.2, 97.66 30 M97.66 30 C63.19 31.34, 27.93 29.84, 7.5 30 M97.66 30 C71.3 29.51, 42.88 29.34, 7.5 30 M7.5 30 C1.58 29.47, -0.96 29.19, 0 22.5 M7.5 30 C3.81 28.05, -1.9 25.61, 0 22.5 M0 22.5 C1.28 19.25, 1.04 14.47, 0 7.5 M0 22.5 C-0.19 17.01, 0.63 10.85, 0 7.5 M0 7.5 C0.04 1.92, 4.2 -1.16, 7.5 0 M0 7.5 C0.77 1.66, 1.41 1.06, 7.5 0" stroke="transparent" stroke-width="2" fill="none"></path></g><g transform="translate(1026.3917563137074 427.5455095579532) rotate(0 25.90398406982422 10)"><text x="0" y="0" font-family="Virgil, Segoe UI Emoji" font-size="16px" fill="#1e1e1e" text-anchor="start" style="white-space: pre;" direction="ltr" dominant-baseline="text-before-edge">Render</text></g><g stroke-linecap="round" transform="translate(368.99009418283094 421.81558588699727) rotate(0 323.9668872124603 15)"><path d="M7.5 0 C136.34 -0.53, 262.97 1.54, 640.43 0 C643.14 -2.6, 646.43 3.54, 647.93 7.5 C645.46 8.31, 650.28 15.49, 647.93 22.5 C645.33 27.94, 644.92 29.75, 640.43 30 C410.86 31.23, 179.23 28.68, 7.5 30 C0.85 27.26, 3.28 28.53, 0 22.5 C-0.99 17.21, -0.69 11.42, 0 7.5 C2.16 4.84, -0.47 2.85, 7.5 0" stroke="none" stroke-width="0" fill="#4dabf7"></path><path d="M7.5 0 C159.14 0.45, 311.09 -0.27, 640.43 0 M7.5 0 C194.6 -0.42, 382.31 -0.9, 640.43 0 M640.43 0 C644.1 0.56, 649.72 2.93, 647.93 7.5 M640.43 0 C646.54 1.42, 646.34 4.02, 647.93 7.5 M647.93 7.5 C647.7 9.86, 647.26 12.94, 647.93 22.5 M647.93 7.5 C647.11 12.61, 647.92 19.21, 647.93 22.5 M647.93 22.5 C648.75 27.39, 643.6 31.55, 640.43 30 M647.93 22.5 C648.41 29.52, 643.78 31.72, 640.43 30 M640.43 30 C396.86 27.24, 153.61 26.97, 7.5 30 M640.43 30 C471.51 31.13, 303.47 31.12, 7.5 30 M7.5 30 C4.32 30.99, -1.52 27.96, 0 22.5 M7.5 30 C2.28 29.51, -1.03 26.64, 0 22.5 M0 22.5 C0.29 18.86, 1.02 14.34, 0 7.5 M0 22.5 C-0.68 18.46, 0.49 14.28, 0 7.5 M0 7.5 C1.98 1.63, 0.74 0.71, 7.5 0 M0 7.5 C-1.77 1.25, 4.7 2.19, 7.5 0" stroke="transparent" stroke-width="2" fill="none"></path></g><g transform="translate(373.99009418283094 426.81558588699727) rotate(0 53.903968811035156 10)"><text x="0" y="0" font-family="Virgil, Segoe UI Emoji" font-size="16px" fill="#1e1e1e" text-anchor="start" style="white-space: pre;" direction="ltr" dominant-baseline="text-before-edge">Layout Visible</text></g></svg>