<svg version="1.1" xmlns="http://www.w3.org/2000/svg" viewBox="0 0 1286.9170320836893 568.385204215143" width="2573.8340641673785" height="1136.770408430286" filter="invert(93%) hue-rotate(180deg)">
  <!-- svg-source:excalidraw -->
  
  <defs>
    <style class="style-fonts">
      @font-face {
        font-family: "Virgil";
        src: url("https://excalidraw.com/Virgil.woff2");
      }
      @font-face {
        font-family: "Cascadia";
        src: url("https://excalidraw.com/Cascadia.woff2");
      }
      @font-face {
        font-family: "Assistant";
        src: url("https://excalidraw.com/Assistant-Regular.woff2");
      }
    </style>
    
  </defs>
  <g stroke-linecap="round"><g transform="translate(92.73035467074078 173.76936994299467) rotate(0 0 28.032188840980325)"><path d="M0.65 0.91 C1 10.2, 1.07 46.05, 1.12 55.06 M-0.47 0.34 C-0.09 9.81, 0.57 46.84, 0.76 56.07" stroke="#1e1e1e" stroke-width="2" fill="none"></path></g></g><mask></mask><g stroke-linecap="round"><g transform="translate(93.76787228377361 200.50145955283006) rotate(0 590.087667668513 0)"><path d="M1.12 -1 C197.86 -1.34, 984.48 -1.22, 1181.11 -1.08 M0.25 1.08 C196.86 0.78, 983.94 -0.1, 1180.66 -0.12" stroke="#1e1e1e" stroke-width="2" fill="none"></path></g></g><mask></mask><g stroke-linecap="round"><g transform="translate(1274.6243148133653 172.17022527352492) rotate(0 0 28.032188840980325)"><path d="M0.94 -1.08 C0.88 8.39, 0.9 46.52, 0.74 55.85 M-0.03 0.96 C-0.28 10.71, 0.32 48.17, 0.19 57.28" stroke="#1e1e1e" stroke-width="2" fill="none"></path></g></g><mask></mask><g transform="translate(10 186.3785648619605) rotate(0 30.84996795654297 12.5)"><text x="0" y="0" font-family="Virgil, Segoe UI Emoji" font-size="20px" fill="#1e1e1e" text-anchor="start" style="white-space: pre;" direction="ltr" dominant-baseline="text-before-edge">Server</text></g><g stroke-linecap="round"><g transform="translate(93.82744873157935 388.76482282904453) rotate(0 0 28.032188840980325)"><path d="M-0.03 -1.15 C-0.29 8.11, -1.02 45.79, -0.85 55.39 M-1.5 0.85 C-1.46 10.28, 1.04 47.66, 1.42 56.57" stroke="#1e1e1e" stroke-width="2" fill="none"></path></g></g><mask></mask><g stroke-linecap="round"><g transform="translate(94.86496634461218 415.4969124388799) rotate(0 589.8500244579227 0)"><path d="M-0.85 -0.68 C195.94 -0.42, 983.82 0.24, 1180.69 0.4 M0.91 1.58 C197.62 1.57, 983.76 -1.54, 1180.27 -1.52" stroke="#1e1e1e" stroke-width="2" fill="none"></path></g></g><mask></mask><g stroke-linecap="round"><g transform="translate(1275.8168983322394 387.1656781595748) rotate(0 0 28.032188840980325)"><path d="M0.99 0.4 C1.25 9.9, 1.02 46.98, 0.67 56.34 M0.05 -0.44 C0.28 8.74, -0.12 45.2, 0.07 54.36" stroke="#1e1e1e" stroke-width="2" fill="none"></path></g></g><mask></mask><g transform="translate(16.126896892819786 402.9038044860881) rotate(0 27.049972534179688 12.5)"><text x="0" y="0" font-family="Virgil, Segoe UI Emoji" font-size="20px" fill="#1e1e1e" text-anchor="start" style="white-space: pre;" direction="ltr" dominant-baseline="text-before-edge">Client</text></g><g mask="url(#mask-_Ek05z-sJOHHDzliyJeUC)" stroke-linecap="round"><g transform="translate(104.20129249361344 413.98487076869606) rotate(0 40.04295267002999 -51.0180314360332)"><path d="M-1.09 0.52 C12.06 -16.61, 65.92 -85.29, 79.57 -102.48 M0.54 -0.25 C13.42 -17.24, 65.04 -84.28, 78.34 -101.17" stroke="#1e1e1e" stroke-width="2" fill="none"></path></g><g transform="translate(104.20129249361344 413.98487076869606) rotate(0 40.04295267002999 -51.0180314360332)"><path d="M70.68 -77.38 C74.22 -86.64, 75.34 -93.11, 78.34 -101.17 M70.68 -77.38 C72.69 -83.88, 73.66 -89.2, 78.34 -101.17" stroke="#1e1e1e" stroke-width="2" fill="none"></path></g><g transform="translate(104.20129249361344 413.98487076869606) rotate(0 40.04295267002999 -51.0180314360332)"><path d="M57.18 -87.87 C65.54 -93.28, 71.47 -96.01, 78.34 -101.17 M57.18 -87.87 C62.56 -91.65, 66.9 -94.36, 78.34 -101.17" stroke="#1e1e1e" stroke-width="2" fill="none"></path></g></g><mask id="mask-_Ek05z-sJOHHDzliyJeUC"><rect x="0" y="0" fill="#fff" width="284.2871978336734" height="616.0209336407629"></rect><rect x="106.78428422614161" y="350.46683933266286" fill="#000" width="74.919921875" height="25" opacity="1"></rect></mask><g transform="translate(106.78428422614161 350.46683933266286) rotate(0 36.65433516241865 12.538210925087242)"><text x="37.4599609375" y="0" font-family="Virgil, Segoe UI Emoji" font-size="20px" fill="#1e1e1e" text-anchor="middle" style="white-space: pre;" direction="ltr" dominant-baseline="text-before-edge">request</text></g><g stroke-linecap="round"><g transform="translate(538.9362733804155 35.80042896810119) rotate(0 0 23.89467820920936)"><path d="M0.31 -0.28 C0.35 7.66, 0.05 39.44, 0.01 47.39 M-0.19 0.77 C-0.2 8.78, -0.4 40.04, -0.42 47.89" stroke="#1e1e1e" stroke-width="2" fill="none"></path></g><g transform="translate(538.9362733804155 35.80042896810119) rotate(0 0 23.89467820920936)"><path d="M-8.49 25.4 C-6.96 31.16, -5.11 37.02, -0.42 47.89 M-8.49 25.4 C-6.37 31.09, -4.35 36.55, -0.42 47.89" stroke="#1e1e1e" stroke-width="2" fill="none"></path></g><g transform="translate(538.9362733804155 35.80042896810119) rotate(0 0 23.89467820920936)"><path d="M7.85 25.47 C5.19 31.26, 2.84 37.1, -0.42 47.89 M7.85 25.47 C6.08 31.14, 4.2 36.58, -0.42 47.89" stroke="#1e1e1e" stroke-width="2" fill="none"></path></g></g><mask></mask><g transform="translate(459.8675315198052 10) rotate(0 83.06395721435547 10)"><text x="0" y="0" font-family="Virgil, Segoe UI Emoji" font-size="16px" fill="#1e1e1e" text-anchor="start" style="white-space: pre;" direction="ltr" dominant-baseline="text-before-edge">Start Fetching Data</text></g><g stroke-linecap="round" transform="translate(539.1084458046389 126.72847293707491) rotate(0 77.4287391145026 15)"><path d="M7.5 0 C58.2 2.7, 104.17 1.45, 147.36 0 C152.87 -3.16, 154.21 -0.4, 154.86 7.5 C156.42 10.9, 157.38 14.69, 154.86 22.5 C152.87 28.43, 150.92 31.04, 147.36 30 C90.35 25.88, 34.29 30.58, 7.5 30 C2.48 32.45, 0.16 29.8, 0 22.5 C-0.12 17.17, -1.5 11.72, 0 7.5 C-0.44 -0.53, 4.53 -2.63, 7.5 0" stroke="none" stroke-width="0" fill="#99e9f2"></path><path d="M7.5 0 C48.47 -1.83, 91.9 1.03, 147.36 0 M7.5 0 C58.66 -1.59, 110.09 -1.13, 147.36 0 M147.36 0 C152.81 -1.72, 153.56 2.64, 154.86 7.5 M147.36 0 C153.28 -0.03, 154 3.75, 154.86 7.5 M154.86 7.5 C153.78 11.17, 155.94 13.82, 154.86 22.5 M154.86 7.5 C154.64 11.41, 154.47 14.48, 154.86 22.5 M154.86 22.5 C156.68 27.73, 151.35 30.83, 147.36 30 M154.86 22.5 C156.03 26.87, 151.23 31.22, 147.36 30 M147.36 30 C101.5 31.24, 54.01 30.7, 7.5 30 M147.36 30 C103.46 30.59, 59.9 29.74, 7.5 30 M7.5 30 C1.67 28.83, 0.43 26.55, 0 22.5 M7.5 30 C1.36 32.29, 2.25 29.75, 0 22.5 M0 22.5 C0.66 20.3, 0.79 15.29, 0 7.5 M0 22.5 C0.57 17.52, -0.34 11.48, 0 7.5 M0 7.5 C0.15 1.72, 1.41 -0.24, 7.5 0 M0 7.5 C-0.75 1.23, 2.22 2.27, 7.5 0" stroke="transparent" stroke-width="2" fill="none"></path></g><g transform="translate(544.1084458046389 131.7284729370749) rotate(0 25.455978393554688 10)"><text x="0" y="0" font-family="Virgil, Segoe UI Emoji" font-size="16px" fill="#1e1e1e" text-anchor="start" style="white-space: pre;" direction="ltr" dominant-baseline="text-before-edge">Article</text></g><g stroke-linecap="round" transform="translate(538.3507982588344 89.67517721313743) rotate(0 52.58008925501235 15)"><path d="M7.5 0 C40.88 -3.64, 72.6 -3.39, 97.66 0 C102.51 0.86, 103.69 4.5, 105.16 7.5 C103.92 12.12, 104.33 16.13, 105.16 22.5 C108.71 26.52, 100.22 28.76, 97.66 30 C76.64 33.48, 55.82 33.32, 7.5 30 C2.64 31.07, -3.26 27.45, 0 22.5 C-0.19 16.16, 1.67 12.38, 0 7.5 C-3.38 1.44, 2.35 -0.66, 7.5 0" stroke="none" stroke-width="0" fill="#eebefa"></path><path d="M7.5 0 C28.25 1.02, 48.05 -0.6, 97.66 0 M7.5 0 C31.07 -0.91, 53.53 0.02, 97.66 0 M97.66 0 C103.47 -0.03, 104.41 3.59, 105.16 7.5 M97.66 0 C101.68 -1.14, 102.91 0.96, 105.16 7.5 M105.16 7.5 C104.5 11.01, 104.64 15.84, 105.16 22.5 M105.16 7.5 C105.78 12.47, 104.72 17.57, 105.16 22.5 M105.16 22.5 C106.18 26.95, 101.68 31.07, 97.66 30 M105.16 22.5 C105.91 29.7, 102.64 30.79, 97.66 30 M97.66 30 C65.25 28.74, 31.79 30.42, 7.5 30 M97.66 30 C61.8 29.49, 26.98 29.6, 7.5 30 M7.5 30 C1.51 31.99, 1.96 29.45, 0 22.5 M7.5 30 C1.14 31.82, 1.68 28.69, 0 22.5 M0 22.5 C0.57 17.78, -0.15 12.05, 0 7.5 M0 22.5 C0.1 17.35, -0.36 12.69, 0 7.5 M0 7.5 C-0.66 1.4, 2.25 1.97, 7.5 0 M0 7.5 C1.01 4.48, 2.15 1.68, 7.5 0" stroke="transparent" stroke-width="2" fill="none"></path></g><g transform="translate(543.3507982588344 94.67517721313743) rotate(0 25.27997589111328 10)"><text x="0" y="0" font-family="Virgil, Segoe UI Emoji" font-size="16px" fill="#1e1e1e" text-anchor="start" style="white-space: pre;" direction="ltr" dominant-baseline="text-before-edge">Profile</text></g><g stroke-linecap="round" transform="translate(540.049896173572 160.00269131560344) rotate(0 169.2085151058327 15)"><path d="M7.5 0 C76.07 3.86, 143.83 4.65, 330.92 0 C334.53 3.28, 336.17 0.52, 338.42 7.5 C340.98 11.65, 336.48 16.34, 338.42 22.5 C336 25.96, 338.2 29.98, 330.92 30 C211.95 33.32, 90.53 32.54, 7.5 30 C1.48 28.11, -2.22 27.06, 0 22.5 C-2.69 18.47, -0.27 15.53, 0 7.5 C2.96 5.73, -0.75 -0.76, 7.5 0" stroke="none" stroke-width="0" fill="#ffc9c9"></path><path d="M7.5 0 C128.93 0.36, 251.58 0.39, 330.92 0 M7.5 0 C77 -0.17, 145.67 0.22, 330.92 0 M330.92 0 C335.07 -0.99, 336.46 1.16, 338.42 7.5 M330.92 0 C335.62 1.78, 336.26 1.3, 338.42 7.5 M338.42 7.5 C338.73 10.58, 337.44 16.27, 338.42 22.5 M338.42 7.5 C338.72 11.97, 337.97 17.24, 338.42 22.5 M338.42 22.5 C339.07 29.41, 335.9 30.69, 330.92 30 M338.42 22.5 C339.86 27.21, 336.73 30.33, 330.92 30 M330.92 30 C260.68 30.72, 187.96 29.53, 7.5 30 M330.92 30 C252.51 29.63, 175.46 29.61, 7.5 30 M7.5 30 C1.32 31.58, 1.46 28.54, 0 22.5 M7.5 30 C4.67 31.4, 0.03 28.52, 0 22.5 M0 22.5 C0.37 16.36, -1.37 11.23, 0 7.5 M0 22.5 C-0.16 18.17, -0.01 15.41, 0 7.5 M0 7.5 C0.87 4.22, 2.2 1.46, 7.5 0 M0 7.5 C1.49 2.84, 3.19 0.33, 7.5 0" stroke="transparent" stroke-width="2" fill="none"></path></g><g transform="translate(545.049896173572 165.00269131560344) rotate(0 36.68797302246094 10)"><text x="0" y="0" font-family="Virgil, Segoe UI Emoji" font-size="16px" fill="#1e1e1e" text-anchor="start" style="white-space: pre;" direction="ltr" dominant-baseline="text-before-edge">Comments</text></g><g stroke-linecap="round" transform="translate(259.95278984634206 421.83843135390543) rotate(0 52.58008925501235 15)"><path d="M7.5 0 C35.32 2.38, 63.66 -2.88, 97.66 0 C103.59 -1.43, 106.2 6.05, 105.16 7.5 C103.17 10.44, 106.69 15.67, 105.16 22.5 C107.61 27.66, 104.96 30.14, 97.66 30 C66.91 28.09, 35.99 29.54, 7.5 30 C-0.53 32.03, -2.63 24.12, 0 22.5 C2.23 20.86, -2.43 13.81, 0 7.5 C0.02 0.6, 0.58 2.37, 7.5 0" stroke="none" stroke-width="0" fill="#a5d8ff"></path><path d="M7.5 0 C34.71 -1.51, 65.49 0.6, 97.66 0 M7.5 0 C34.01 -0.99, 60.38 -1.16, 97.66 0 M97.66 0 C102.4 1.55, 103.28 1.46, 105.16 7.5 M97.66 0 C101.44 -0.98, 104.74 3.08, 105.16 7.5 M105.16 7.5 C105.24 10.62, 105.69 16.02, 105.16 22.5 M105.16 7.5 C105.33 12.3, 105.08 15.93, 105.16 22.5 M105.16 22.5 C106.41 27.25, 103.37 30.28, 97.66 30 M105.16 22.5 C103.35 26.94, 102.77 32.14, 97.66 30 M97.66 30 C65.47 30.05, 34.68 28.63, 7.5 30 M97.66 30 C61.04 31.67, 26.33 31.4, 7.5 30 M7.5 30 C4.39 31.21, 0.03 28.39, 0 22.5 M7.5 30 C4.33 29.92, 2.11 28.06, 0 22.5 M0 22.5 C-0.45 17.63, -0.04 13.9, 0 7.5 M0 22.5 C0.35 19.47, -0.09 15.7, 0 7.5 M0 7.5 C1.29 2.79, 3.1 0.28, 7.5 0 M0 7.5 C-2.02 2.09, 0.65 -0.1, 7.5 0" stroke="transparent" stroke-width="2" fill="none"></path></g><g transform="translate(264.95278984634206 426.83843135390543) rotate(0 30.38397979736328 10)"><text x="0" y="0" font-family="Virgil, Segoe UI Emoji" font-size="16px" fill="#1e1e1e" text-anchor="start" style="white-space: pre;" direction="ltr" dominant-baseline="text-before-edge">Hydrate</text></g><g stroke-linecap="round" transform="translate(1132.3973791019307 422.9907335736789) rotate(0 66.53272674479558 15)"><path d="M7.5 0 C54.6 -0.26, 100.88 4.72, 125.57 0 C129.58 -2.44, 131.82 0.09, 133.07 7.5 C135.08 11.48, 134.96 15.32, 133.07 22.5 C134.13 24.24, 130.52 28.98, 125.57 30 C93.31 31.78, 64.48 26.36, 7.5 30 C1.44 29.85, -0.66 30.46, 0 22.5 C0.26 15.23, -1.2 12.59, 0 7.5 C-0.02 3.87, 1.07 -1.45, 7.5 0" stroke="none" stroke-width="0" fill="#69db7c"></path><path d="M7.5 0 C35.21 -1.22, 64.05 -1.33, 125.57 0 M7.5 0 C36.95 1.56, 65.71 0.27, 125.57 0 M125.57 0 C129.5 -0.85, 132.7 3.01, 133.07 7.5 M125.57 0 C129.61 -1.4, 135.16 2.76, 133.07 7.5 M133.07 7.5 C132.72 10.51, 133.93 15.48, 133.07 22.5 M133.07 7.5 C133.53 13.34, 133.33 19.47, 133.07 22.5 M133.07 22.5 C131.49 27.01, 130.66 31.86, 125.57 30 M133.07 22.5 C134.08 27.69, 129.61 28.65, 125.57 30 M125.57 30 C89.63 31.37, 51.66 28.23, 7.5 30 M125.57 30 C81.76 31.22, 36.09 31.06, 7.5 30 M7.5 30 C4.09 29.93, 1.84 27.98, 0 22.5 M7.5 30 C1.82 27.89, 0.17 26.6, 0 22.5 M0 22.5 C-0.81 18.63, 1.5 15.79, 0 7.5 M0 22.5 C0.51 16.82, 0.25 11.03, 0 7.5 M0 7.5 C-1.75 2.14, 0.89 -0.08, 7.5 0 M0 7.5 C0.55 1.56, 3.78 -0.88, 7.5 0" stroke="transparent" stroke-width="2" fill="none"></path></g><g transform="translate(1137.3973791019307 427.9907335736789) rotate(0 59.463966369628906 10)"><text x="0" y="0" font-family="Virgil, Segoe UI Emoji" font-size="16px" fill="#1e1e1e" text-anchor="start" style="white-space: pre;" direction="ltr" dominant-baseline="text-before-edge">Full Page Load</text></g><g mask="url(#mask-UtCXPQY8-yDDQFG0B-drX)" stroke-linecap="round"><g transform="translate(187.52856126031838 311.27982846341547) rotate(0 34.390977378712705 49.952527128314614)"><path d="M-0.51 -0.59 C10.83 15.81, 56.09 82.2, 67.61 99.1 M1.42 1.71 C13.15 18.19, 58.64 84, 69.7 100.22" stroke="#1e1e1e" stroke-width="2" fill="none"></path></g><g transform="translate(187.52856126031838 311.27982846341547) rotate(0 34.390977378712705 49.952527128314614)"><path d="M49.35 85.7 C53.78 87.65, 58.78 93.16, 69.7 100.22 M49.35 85.7 C56.36 90.86, 64.39 97.01, 69.7 100.22" stroke="#1e1e1e" stroke-width="2" fill="none"></path></g><g transform="translate(187.52856126031838 311.27982846341547) rotate(0 34.390977378712705 49.952527128314614)"><path d="M63.44 76.01 C64.22 80.44, 65.52 88.5, 69.7 100.22 M63.44 76.01 C65.04 84.75, 67.76 94.56, 69.7 100.22" stroke="#1e1e1e" stroke-width="2" fill="none"></path></g></g><mask id="mask-UtCXPQY8-yDDQFG0B-drX"><rect x="0" y="0" fill="#fff" width="356.3105160177438" height="511.18488272004424"></rect><rect x="186.94356360241" y="351.2323555917301" fill="#000" width="69.95195007324219" height="20" opacity="1"></rect></mask><g transform="translate(186.94356360241 351.2323555917301) rotate(0 35.18203619259475 9.858059972794763)"><text x="34.975975036621094" y="0" font-family="Virgil, Segoe UI Emoji" font-size="16px" fill="#1e1e1e" text-anchor="middle" style="white-space: pre;" direction="ltr" dominant-baseline="text-before-edge">Response</text></g><g stroke-linecap="round"><g transform="translate(91.07320416814764 275.66922793813865) rotate(0 0 28.032188840980325)"><path d="M-0.15 0.93 C-0.15 10.3, -1.05 46.34, -1.13 55.44 M-1.69 0.37 C-1.23 9.96, 1 47.28, 0.99 56.65" stroke="#1e1e1e" stroke-width="2" fill="none"></path></g></g><mask></mask><g stroke-linecap="round"><g transform="translate(92.11072178118047 302.40131754797403) rotate(0 90.22815197688215 0)"><path d="M-1.13 -0.62 C28.87 -0.86, 149.59 -0.67, 179.82 -0.51 M0.48 1.66 C30.89 1.5, 152.38 0.74, 182.19 0.76" stroke="#1e1e1e" stroke-width="2" fill="none"></path></g></g><mask></mask><g stroke-linecap="round"><g transform="translate(273.7843133902352 274.47441964411155) rotate(0 0 28.032188840980325)"><path d="M-0.64 -0.51 C-0.49 8.99, -0.24 47.06, -0.22 56.37 M1.23 -1.83 C1.3 7.35, -0.82 44.72, -1.28 54.41" stroke="#1e1e1e" stroke-width="2" fill="none"></path></g></g><mask></mask><g transform="translate(32.5428234058636 291.2120271416152) rotate(0 20.67998504638672 12.5)"><text x="0" y="0" font-family="Virgil, Segoe UI Emoji" font-size="20px" fill="#1e1e1e" text-anchor="start" style="white-space: pre;" direction="ltr" dominant-baseline="text-before-edge">CDN</text></g><g stroke-linecap="round" transform="translate(105.9474716808545 421.8906271187043) rotate(0 75.07289760675303 15)"><path d="M7.5 0 C53.41 -0.77, 104.8 -2.61, 142.65 0 C145.43 -0.44, 147.12 4.53, 150.15 7.5 C149.78 10.41, 152.11 16.73, 150.15 22.5 C146.89 26.74, 147.66 28.1, 142.65 30 C110.69 28.56, 74.54 28.98, 7.5 30 C1.68 30.32, 1.73 29.9, 0 22.5 C-0.53 19.65, 1.64 11.08, 0 7.5 C3.13 0.23, -0.57 -3.24, 7.5 0" stroke="none" stroke-width="0" fill="#ced4da"></path><path d="M7.5 0 C44.36 2.38, 83.88 -0.45, 142.65 0 M7.5 0 C53.14 0.9, 100.08 1.33, 142.65 0 M142.65 0 C147.63 0.69, 151.4 2.25, 150.15 7.5 M142.65 0 C148.46 0.33, 148.33 1.94, 150.15 7.5 M150.15 7.5 C150.41 11.45, 149.41 16.97, 150.15 22.5 M150.15 7.5 C150.8 12.02, 149.63 15.67, 150.15 22.5 M150.15 22.5 C151.61 28.54, 149.53 31.21, 142.65 30 M150.15 22.5 C150.18 28.52, 149.48 29.92, 142.65 30 M142.65 30 C87.86 29.75, 35.98 28.51, 7.5 30 M142.65 30 C103.61 30.24, 65.26 30.11, 7.5 30 M7.5 30 C2.2 31.46, 1.29 27.79, 0 22.5 M7.5 30 C3.19 30.33, -2.02 27.09, 0 22.5 M0 22.5 C-0.61 20.04, -0.57 17.28, 0 7.5 M0 22.5 C-0.22 19.15, 0.82 15.17, 0 7.5 M0 7.5 C-1.35 1.81, 1.16 -0.86, 7.5 0 M0 7.5 C1.46 2.49, 4.07 0.1, 7.5 0" stroke="transparent" stroke-width="2" fill="none"></path></g><g transform="translate(110.9474716808545 426.8906271187043) rotate(0 49.69597625732422 10)"><text x="0" y="0" font-family="Virgil, Segoe UI Emoji" font-size="16px" fill="#1e1e1e" text-anchor="start" style="white-space: pre;" direction="ltr" dominant-baseline="text-before-edge">Blank Screen</text></g><g mask="url(#mask-GRbVyGXPyuOIMBZwI_d8N)" stroke-linecap="round"><g transform="translate(365.1647423761606 414.5749193711981) rotate(0 83.37427788633067 -106.81887240234073)"><path d="M-0.59 0.64 C27.17 -34.72, 139.25 -176.85, 167.14 -212.49 M1.3 -0.07 C28.88 -35.71, 138.96 -178.13, 166.4 -214.01" stroke="#1e1e1e" stroke-width="2" fill="none"></path></g><g transform="translate(365.1647423761606 414.5749193711981) rotate(0 83.37427788633067 -106.81887240234073)"><path d="M158.85 -190.18 C162.63 -197.85, 166.13 -206.89, 166.4 -214.01 M158.85 -190.18 C161.58 -198, 162.96 -206.35, 166.4 -214.01" stroke="#1e1e1e" stroke-width="2" fill="none"></path></g><g transform="translate(365.1647423761606 414.5749193711981) rotate(0 83.37427788633067 -106.81887240234073)"><path d="M145.3 -200.61 C153.81 -204.55, 162.06 -209.93, 166.4 -214.01 M145.3 -200.61 C152.62 -204.92, 158.54 -209.79, 166.4 -214.01" stroke="#1e1e1e" stroke-width="2" fill="none"></path></g></g><mask id="mask-GRbVyGXPyuOIMBZwI_d8N"><rect x="0" y="0" fill="#fff" width="631.9132981488219" height="728.2126641758796"></rect><rect x="411.07905932499125" y="295.25604696885785" fill="#000" width="74.919921875" height="25" opacity="1"></rect></mask><g transform="translate(411.07905932499125 295.25604696885785) rotate(0 37.36252960897946 12.631795019478886)"><text x="37.4599609375" y="0" font-family="Virgil, Segoe UI Emoji" font-size="20px" fill="#1e1e1e" text-anchor="middle" style="white-space: pre;" direction="ltr" dominant-baseline="text-before-edge">request</text></g><g mask="url(#mask-yjmYhqMl6ml9O4bCInUQA)" stroke-linecap="round"><g transform="translate(882.8591871543031 202.584909744146) rotate(0 70.41811495868933 106.41259466510382)"><path d="M-0.01 0.41 C23.52 35.67, 118.04 177.24, 141.59 212.67 M-1.47 -0.42 C21.93 35.54, 117.34 178.33, 141.03 214.13" stroke="#1e1e1e" stroke-width="2" fill="none"></path></g><g transform="translate(882.8591871543031 202.584909744146) rotate(0 70.41811495868933 106.41259466510382)"><path d="M120.9 199.31 C128.43 205.49, 134.19 209.88, 141.03 214.13 M120.9 199.31 C127.16 204.95, 133.88 208.75, 141.03 214.13" stroke="#1e1e1e" stroke-width="2" fill="none"></path></g><g transform="translate(882.8591871543031 202.584909744146) rotate(0 70.41811495868933 106.41259466510382)"><path d="M135.14 189.84 C138.02 199.17, 139.04 206.72, 141.03 214.13 M135.14 189.84 C136.85 198.42, 139.09 205.2, 141.03 214.13" stroke="#1e1e1e" stroke-width="2" fill="none"></path></g></g><mask id="mask-yjmYhqMl6ml9O4bCInUQA"><rect x="0" y="0" fill="#fff" width="1123.6954170716817" height="515.4100990743541"></rect><rect x="918.3013270763731" y="298.9975044092498" fill="#000" width="69.95195007324219" height="20" opacity="1"></rect></mask><g transform="translate(918.3013270763731 298.9975044092498) rotate(0 34.615367538210194 10.44443102302057)"><text x="34.975975036621094" y="0" font-family="Virgil, Segoe UI Emoji" font-size="16px" fill="#1e1e1e" text-anchor="middle" style="white-space: pre;" direction="ltr" dominant-baseline="text-before-edge">Response</text></g><g stroke-linecap="round" transform="translate(1021.3917563137074 422.54550955795276) rotate(0 52.58008925501235 15)"><path d="M7.5 0 C41.2 1.48, 74.53 -0.45, 97.66 0 C105.03 -0.02, 106.53 1.07, 105.16 7.5 C105.32 12.69, 106.89 15.28, 105.16 22.5 C107.14 30.69, 102.15 32.19, 97.66 30 C62.37 28.34, 28.39 34.36, 7.5 30 C-0.24 32.79, -1.51 25.25, 0 22.5 C-0.5 19.38, 2.24 16.03, 0 7.5 C-1.04 3.1, 2.14 1.18, 7.5 0" stroke="none" stroke-width="0" fill="#4dabf7"></path><path d="M7.5 0 C40.48 -1.9, 72.4 -0.22, 97.66 0 M7.5 0 C42.53 -0.66, 78.6 -0.55, 97.66 0 M97.66 0 C101.67 1.99, 107.12 4.45, 105.16 7.5 M97.66 0 C101.3 1.82, 106.84 3.69, 105.16 7.5 M105.16 7.5 C105.92 14.61, 105.2 20.7, 105.16 22.5 M105.16 7.5 C105.17 12.07, 104.71 17.13, 105.16 22.5 M105.16 22.5 C104.51 26.4, 102.41 31.97, 97.66 30 M105.16 22.5 C106.17 29.48, 102.31 31.68, 97.66 30 M97.66 30 C65.07 28.52, 31.55 28.66, 7.5 30 M97.66 30 C71.55 29.25, 45.23 29.01, 7.5 30 M7.5 30 C1.4 30.52, -0.8 28.08, 0 22.5 M7.5 30 C4.77 29.37, -1.56 26.71, 0 22.5 M0 22.5 C0.06 20.03, 0.13 16.47, 0 7.5 M0 22.5 C-0.05 17.73, -0.44 12.92, 0 7.5 M0 7.5 C-0.24 0.82, 3.63 -1.46, 7.5 0 M0 7.5 C-2.16 1.82, 2.4 -0.42, 7.5 0" stroke="transparent" stroke-width="2" fill="none"></path></g><g transform="translate(1026.3917563137074 427.54550955795276) rotate(0 25.90398406982422 10)"><text x="0" y="0" font-family="Virgil, Segoe UI Emoji" font-size="16px" fill="#1e1e1e" text-anchor="start" style="white-space: pre;" direction="ltr" dominant-baseline="text-before-edge">Render</text></g><g stroke-linecap="round" transform="translate(368.99009418283094 421.8155858869968) rotate(0 323.9668872124603 15)"><path d="M7.5 0 C198.63 2.42, 388.42 1.86, 640.43 0 C643.98 -1, 647.11 2.82, 647.93 7.5 C649.6 15.11, 647.73 19.58, 647.93 22.5 C650.32 24.25, 648.56 27.73, 640.43 30 C503.41 34.85, 367.98 32.84, 7.5 30 C0.27 27.7, 3.36 26.61, 0 22.5 C-0.99 18.2, -0.47 13.88, 0 7.5 C2.01 -0.55, 1.5 2.41, 7.5 0" stroke="none" stroke-width="0" fill="#4dabf7"></path><path d="M7.5 0 C148.24 0.23, 287.55 -0.46, 640.43 0 M7.5 0 C160.08 1.6, 313.44 1.59, 640.43 0 M640.43 0 C644.25 1.58, 649.4 3.54, 647.93 7.5 M640.43 0 C647.6 1.4, 647.97 3.52, 647.93 7.5 M647.93 7.5 C648.29 12.75, 646.55 19, 647.93 22.5 M647.93 7.5 C647.61 11, 647.76 16.07, 647.93 22.5 M647.93 22.5 C648.81 29.22, 645.13 31.46, 640.43 30 M647.93 22.5 C649.42 27.84, 646.12 30.33, 640.43 30 M640.43 30 C506.01 28.15, 371.32 28.4, 7.5 30 M640.43 30 C474.64 28.52, 309.12 28.53, 7.5 30 M7.5 30 C4.47 29.45, -1.35 26.81, 0 22.5 M7.5 30 C0.96 29.02, 1.46 27.49, 0 22.5 M0 22.5 C0.05 17.42, -1.36 11.44, 0 7.5 M0 22.5 C-0.01 17.8, 0.5 13.81, 0 7.5 M0 7.5 C-1.88 1.91, 2.42 -0.37, 7.5 0 M0 7.5 C1.89 4.56, 0.42 -0.49, 7.5 0" stroke="transparent" stroke-width="2" fill="none"></path></g><g transform="translate(373.99009418283094 426.8155858869968) rotate(0 53.903968811035156 10)"><text x="0" y="0" font-family="Virgil, Segoe UI Emoji" font-size="16px" fill="#1e1e1e" text-anchor="start" style="white-space: pre;" direction="ltr" dominant-baseline="text-before-edge">Layout Visible</text></g><g stroke-linecap="round"><g transform="translate(258.7379689536356 508.35428991137996) rotate(0 -0.3647337173424603 -25.509314360276676)"><path d="M1.15 0.51 C0.9 -8.07, -1.4 -42.41, -1.58 -51.03 M0.29 -0.27 C0.43 -8.68, 0.78 -41.21, 0.69 -49.5" stroke="#1e1e1e" stroke-width="2" fill="none"></path></g><g transform="translate(258.7379689536356 508.35428991137996) rotate(0 -0.3647337173424603 -25.509314360276676)"><path d="M9.21 -26 C7.47 -34.22, 4.11 -38.36, 0.69 -49.5 M9.21 -26 C7.42 -33.16, 3.82 -38.74, 0.69 -49.5" stroke="#1e1e1e" stroke-width="2" fill="none"></path></g><g transform="translate(258.7379689536356 508.35428991137996) rotate(0 -0.3647337173424603 -25.509314360276676)"><path d="M-7.9 -26.02 C-4.62 -34.4, -2.96 -38.54, 0.69 -49.5 M-7.9 -26.02 C-4.84 -33.31, -3.6 -38.89, 0.69 -49.5" stroke="#1e1e1e" stroke-width="2" fill="none"></path></g></g><mask></mask><g transform="translate(233.18841309175696 518.385204215143) rotate(0 27.375991821289062 20)"><text x="27.375991821289062" y="0" font-family="Virgil, Segoe UI Emoji" font-size="16px" fill="#1e1e1e" text-anchor="middle" style="white-space: pre;" direction="ltr" dominant-baseline="text-before-edge">Layout</text><text x="27.375991821289062" y="20" font-family="Virgil, Segoe UI Emoji" font-size="16px" fill="#1e1e1e" text-anchor="middle" style="white-space: pre;" direction="ltr" dominant-baseline="text-before-edge">Visible</text></g><g stroke-linecap="round"><g transform="translate(371.2272553211478 510.1371187693858) rotate(0 -0.10529041799418337 -25.502589530005025)"><path d="M0.8 -0.2 C0.83 -8.54, -0.58 -41.46, -0.64 -50.05 M-0.24 -1.36 C-0.33 -10.02, -1.86 -43.43, -1.81 -51.67" stroke="#1e1e1e" stroke-width="2" fill="none"></path></g><g transform="translate(371.2272553211478 510.1371187693858) rotate(0 -0.10529041799418337 -25.502589530005025)"><path d="M7.29 -28.38 C4.86 -34.38, 4.72 -37.92, -1.81 -51.67 M7.29 -28.38 C5.84 -33.34, 2.36 -38.65, -1.81 -51.67" stroke="#1e1e1e" stroke-width="2" fill="none"></path></g><g transform="translate(371.2272553211478 510.1371187693858) rotate(0 -0.10529041799418337 -25.502589530005025)"><path d="M-9.8 -27.98 C-8.31 -34.18, -4.54 -37.81, -1.81 -51.67 M-9.8 -27.98 C-7.11 -33.12, -6.45 -38.52, -1.81 -51.67" stroke="#1e1e1e" stroke-width="2" fill="none"></path></g></g><mask></mask><g transform="translate(328.93915777766597 520.1680330731488) rotate(0 44.61597442626953 10)"><text x="44.61597442626953" y="0" font-family="Virgil, Segoe UI Emoji" font-size="16px" fill="#1e1e1e" text-anchor="middle" style="white-space: pre;" direction="ltr" dominant-baseline="text-before-edge">Interactive</text></g></svg>