<svg version="1.1" xmlns="http://www.w3.org/2000/svg" viewBox="0 0 1161.3862903843765 566.2797153459537" width="2322.772580768753" height="1132.5594306919074" filter="invert(93%) hue-rotate(180deg)">
  <!-- svg-source:excalidraw -->
  
  <defs>
    <style class="style-fonts">
      @font-face {
        font-family: "Virgil";
        src: url("https://excalidraw.com/Virgil.woff2");
      }
      @font-face {
        font-family: "Cascadia";
        src: url("https://excalidraw.com/Cascadia.woff2");
      }
      @font-face {
        font-family: "Assistant";
        src: url("https://excalidraw.com/Assistant-Regular.woff2");
      }
    </style>
    
  </defs>
  <g stroke-linecap="round"><g transform="translate(97.42065662589084 173.76936994299467) rotate(0 0 28.032188840980325)"><path d="M-0.89 0.13 C-0.62 9.35, 0.53 46.4, 0.7 55.61 M0.84 -0.85 C1.1 8.52, 0.35 47.38, 0.11 56.91" stroke="#1e1e1e" stroke-width="2" fill="none"></path></g></g><mask></mask><g stroke-linecap="round"><g transform="translate(98.45817423892368 200.50145955283097) rotate(0 525.033012821712 0)"><path d="M-0.75 0.16 C174.55 0.49, 876.12 0.9, 1051.23 0.88 M1.05 -0.81 C176.36 -0.7, 876.22 -1.15, 1050.89 -0.78" stroke="#1e1e1e" stroke-width="2" fill="none"></path></g></g><mask></mask><g stroke-linecap="round"><g transform="translate(1150.207283761847 172.17022527352538) rotate(0 0 28.032188840980325)"><path d="M0.79 1.19 C1.17 10.57, 1.11 47.66, 1.13 56.84 M-0.25 0.77 C0.17 9.76, 0.63 45.63, 0.78 55.13" stroke="#1e1e1e" stroke-width="2" fill="none"></path></g></g><mask></mask><g transform="translate(10 186.38101538544834) rotate(0 30.84996795654297 12.5)"><text x="0" y="0" font-family="Virgil, Segoe UI Emoji" font-size="20px" fill="#1e1e1e" text-anchor="start" style="white-space: pre;" direction="ltr" dominant-baseline="text-before-edge">Server</text></g><g stroke-linecap="round"><g transform="translate(96.93456618790515 383.5398817809569) rotate(0 0 28.032188840980325)"><path d="M0.42 -0.62 C0.44 8.69, -0.95 45.79, -1.09 55.06 M-0.81 1.67 C-0.34 11.17, 1.15 47.05, 1.05 56.06" stroke="#1e1e1e" stroke-width="2" fill="none"></path></g></g><mask></mask><g stroke-linecap="round"><g transform="translate(97.97208380093798 410.27197139079226) rotate(0 525.033012821712 0)"><path d="M-1.09 -1.01 C173.78 -1.08, 874.28 -1.35, 1049.66 -1.07 M0.54 1.08 C175.18 1.17, 873.41 0.31, 1048.5 -0.1" stroke="#1e1e1e" stroke-width="2" fill="none"></path></g></g><mask></mask><g stroke-linecap="round"><g transform="translate(1149.721193323865 381.9407371114871) rotate(0 0 28.032188840980325)"><path d="M-0.41 -1.07 C-0.04 8.55, 1.23 47.04, 1.14 56.71 M1.58 0.98 C1.99 10.34, 0.81 45.92, 0.79 54.93" stroke="#1e1e1e" stroke-width="2" fill="none"></path></g></g><mask></mask><g transform="translate(19.234014349134668 397.67886343800046) rotate(0 27.049972534179688 12.5)"><text x="0" y="0" font-family="Virgil, Segoe UI Emoji" font-size="20px" fill="#1e1e1e" text-anchor="start" style="white-space: pre;" direction="ltr" dominant-baseline="text-before-edge">Client</text></g><g mask="url(#mask-KzGn616ogZv0ofwBaBln1)" stroke-linecap="round"><g transform="translate(99.66323581431425 408.75992972060976) rotate(0 80.77427008995437 -103.02829290601153)"><path d="M-0.5 -0.45 C26.4 -34.99, 134.87 -172.03, 162.02 -206.13 M1.43 -1.73 C28.17 -35.56, 134.55 -170.45, 161.32 -204.63" stroke="#1e1e1e" stroke-width="2" fill="none"></path></g><g transform="translate(99.66323581431425 408.75992972060976) rotate(0 80.77427008995437 -103.02829290601153)"><path d="M153.52 -180.88 C155.26 -188.31, 158.6 -195.94, 161.32 -204.63 M153.52 -180.88 C155.9 -190.92, 160.18 -198.43, 161.32 -204.63" stroke="#1e1e1e" stroke-width="2" fill="none"></path></g><g transform="translate(99.66323581431425 408.75992972060976) rotate(0 80.77427008995437 -103.02829290601153)"><path d="M140.08 -191.45 C146.58 -195.15, 154.59 -199.12, 161.32 -204.63 M140.08 -191.45 C147.67 -197.37, 157.14 -200.8, 161.32 -204.63" stroke="#1e1e1e" stroke-width="2" fill="none"></path></g></g><mask id="mask-KzGn616ogZv0ofwBaBln1"><rect x="0" y="0" fill="#fff" width="361.211775994223" height="714.8165155326328"></rect><rect x="142.97754496676862" y="293.231636814598" fill="#000" width="74.919921875" height="25" opacity="1"></rect></mask><g transform="translate(142.97754496676862 293.231636814598) rotate(0 37.44392103813698 12.238017794862571)"><text x="37.4599609375" y="0" font-family="Virgil, Segoe UI Emoji" font-size="20px" fill="#1e1e1e" text-anchor="middle" style="white-space: pre;" direction="ltr" dominant-baseline="text-before-edge">request</text></g><g stroke-linecap="round"><g transform="translate(267.7496326344117 35.80042896810119) rotate(0 0 23.89467820920936)"><path d="M-0.46 -0.41 C-0.4 7.6, -0.02 40.22, 0.06 48.32 M0.3 0.57 C0.32 8.41, -0.24 39.83, -0.34 47.63" stroke="#1e1e1e" stroke-width="2" fill="none"></path></g><g transform="translate(267.7496326344117 35.80042896810119) rotate(0 0 23.89467820920936)"><path d="M-8.16 25.05 C-6.94 30.66, -3.34 36.08, -0.34 47.63 M-8.16 25.05 C-4.94 33.25, -2.6 42.04, -0.34 47.63" stroke="#1e1e1e" stroke-width="2" fill="none"></path></g><g transform="translate(267.7496326344117 35.80042896810119) rotate(0 0 23.89467820920936)"><path d="M8.18 25.3 C5.44 30.79, 5.09 36.14, -0.34 47.63 M8.18 25.3 C5.31 33.39, 1.54 42.08, -0.34 47.63" stroke="#1e1e1e" stroke-width="2" fill="none"></path></g></g><mask></mask><g transform="translate(188.68089077380864 10) rotate(0 83.06395721435547 10)"><text x="0" y="0" font-family="Virgil, Segoe UI Emoji" font-size="16px" fill="#1e1e1e" text-anchor="start" style="white-space: pre;" direction="ltr" dominant-baseline="text-before-edge">Start Fetching Data</text></g><g stroke-linecap="round" transform="translate(267.92180505864235 126.72847293707628) rotate(0 77.4287391145026 15)"><path d="M7.5 0 C55.24 -3.59, 107.15 -5.32, 147.36 0 C149.91 2.86, 154.98 5.69, 154.86 7.5 C157.32 10.17, 153.59 14.16, 154.86 22.5 C157.49 30.56, 149.48 31.12, 147.36 30 C116.77 26.64, 88.26 30.77, 7.5 30 C0.94 27.86, 0.99 28.14, 0 22.5 C-0.54 18.85, 0.33 15.46, 0 7.5 C1.57 1.29, 2.1 2.13, 7.5 0" stroke="none" stroke-width="0" fill="#99e9f2"></path><path d="M7.5 0 C47.44 0.69, 87.08 1.44, 147.36 0 M7.5 0 C48.77 -2.1, 89.23 -0.71, 147.36 0 M147.36 0 C152.46 1.8, 154.01 1.98, 154.86 7.5 M147.36 0 C150.36 1.63, 156.39 0.79, 154.86 7.5 M154.86 7.5 C155.43 11.63, 153.77 14.47, 154.86 22.5 M154.86 7.5 C155.02 12.03, 154.3 18.62, 154.86 22.5 M154.86 22.5 C153.19 27.22, 153.29 30.38, 147.36 30 M154.86 22.5 C152.93 29.75, 154.46 31.39, 147.36 30 M147.36 30 C104.9 29.45, 67.43 32.14, 7.5 30 M147.36 30 C96.07 30.09, 42.36 30.23, 7.5 30 M7.5 30 C2.88 31.86, 1.36 29.01, 0 22.5 M7.5 30 C0.49 29.35, 1.3 27.44, 0 22.5 M0 22.5 C1.14 18.49, -1.18 11.58, 0 7.5 M0 22.5 C0.4 16.65, 0.04 10.63, 0 7.5 M0 7.5 C-0.29 3.66, 2.95 -1.72, 7.5 0 M0 7.5 C-1.09 2.87, 4.42 -1.39, 7.5 0" stroke="transparent" stroke-width="2" fill="none"></path></g><g transform="translate(272.92180505864235 131.72847293707628) rotate(0 25.455978393554688 10)"><text x="0" y="0" font-family="Virgil, Segoe UI Emoji" font-size="16px" fill="#1e1e1e" text-anchor="start" style="white-space: pre;" direction="ltr" dominant-baseline="text-before-edge">Article</text></g><g stroke-linecap="round" transform="translate(267.1641575128342 89.67517721313743) rotate(0 52.58008925501235 15)"><path d="M7.5 0 C23.98 2.14, 40.82 2.4, 97.66 0 C104.53 1.56, 101.79 1.8, 105.16 7.5 C107.11 10.95, 104.02 15.25, 105.16 22.5 C108.03 28.98, 102.82 29.46, 97.66 30 C77.68 33.53, 49.38 33.8, 7.5 30 C1.87 31.34, 2.96 28.73, 0 22.5 C0.26 17.84, -0.92 14.05, 0 7.5 C-2.52 3.14, 3.71 -0.25, 7.5 0" stroke="none" stroke-width="0" fill="#eebefa"></path><path d="M7.5 0 C39.94 -0.26, 70.3 -1.07, 97.66 0 M7.5 0 C36.46 -0.75, 67.72 -1.39, 97.66 0 M97.66 0 C102.79 1.15, 105.78 0.81, 105.16 7.5 M97.66 0 C104.64 -1.3, 104.45 2.75, 105.16 7.5 M105.16 7.5 C106.26 12.76, 103.9 20.4, 105.16 22.5 M105.16 7.5 C105.49 12.27, 105.48 15.48, 105.16 22.5 M105.16 22.5 C106.32 27.38, 103.41 29.66, 97.66 30 M105.16 22.5 C106.96 27, 102.58 30.89, 97.66 30 M97.66 30 C70.27 31.37, 47.16 29.56, 7.5 30 M97.66 30 C75.21 28.39, 53.37 29.75, 7.5 30 M7.5 30 C0.85 29.44, -0.88 26.67, 0 22.5 M7.5 30 C3.18 28, -0.94 28.66, 0 22.5 M0 22.5 C-0.97 17.95, -1.48 14.17, 0 7.5 M0 22.5 C0.65 18.8, -0.37 14.53, 0 7.5 M0 7.5 C1.56 2.13, 0.64 0.56, 7.5 0 M0 7.5 C0.38 3.68, 0.59 2.07, 7.5 0" stroke="transparent" stroke-width="2" fill="none"></path></g><g transform="translate(272.1641575128342 94.67517721313743) rotate(0 25.27997589111328 10)"><text x="0" y="0" font-family="Virgil, Segoe UI Emoji" font-size="16px" fill="#1e1e1e" text-anchor="start" style="white-space: pre;" direction="ltr" dominant-baseline="text-before-edge">Profile</text></g><g stroke-linecap="round" transform="translate(268.8632554275682 160.00269131560344) rotate(0 169.2085151058327 15)"><path d="M7.5 0 C75.91 1.58, 145.03 2.26, 330.92 0 C334.29 -1.66, 341.78 4.84, 338.42 7.5 C341.19 15.54, 336.21 16.75, 338.42 22.5 C341.64 26.39, 334.88 29.12, 330.92 30 C224.15 27.32, 117.96 26.78, 7.5 30 C0.53 27.36, 0.15 26.84, 0 22.5 C2.38 15.54, 0.64 12.53, 0 7.5 C0.87 3.41, 0.88 1.6, 7.5 0" stroke="none" stroke-width="0" fill="#ffc9c9"></path><path d="M7.5 0 C125.94 1.09, 245.27 -0.89, 330.92 0 M7.5 0 C132.55 1.45, 257.32 1.24, 330.92 0 M330.92 0 C335.25 -0.32, 338.76 1.51, 338.42 7.5 M330.92 0 C338.09 1.23, 340.1 0.33, 338.42 7.5 M338.42 7.5 C338.5 10.68, 337.89 14.59, 338.42 22.5 M338.42 7.5 C338.61 12.15, 337.99 15.77, 338.42 22.5 M338.42 22.5 C338.17 26.4, 335.17 29.13, 330.92 30 M338.42 22.5 C340.61 27.05, 337.04 28.86, 330.92 30 M330.92 30 C243.42 30.4, 157.48 31.93, 7.5 30 M330.92 30 C237.73 29.71, 143.56 29.66, 7.5 30 M7.5 30 C3.98 30.77, 1.39 27.83, 0 22.5 M7.5 30 C1.43 31.18, -0.86 26.7, 0 22.5 M0 22.5 C1.29 16.93, 1.38 12.58, 0 7.5 M0 22.5 C0.52 17.16, 0.41 12.34, 0 7.5 M0 7.5 C-1.49 3.78, 4.15 0.13, 7.5 0 M0 7.5 C-0.28 1.19, 1.02 1.12, 7.5 0" stroke="transparent" stroke-width="2" fill="none"></path></g><g transform="translate(273.8632554275682 165.00269131560344) rotate(0 36.68797302246094 10)"><text x="0" y="0" font-family="Virgil, Segoe UI Emoji" font-size="16px" fill="#1e1e1e" text-anchor="start" style="white-space: pre;" direction="ltr" dominant-baseline="text-before-edge">Comments</text></g><g stroke-linecap="round" transform="translate(612.078933251596 158.95459354292188) rotate(0 52.58008925501235 15)"><path d="M7.5 0 C27.47 -1.83, 49.67 -0.73, 97.66 0 C105.24 -0.37, 108.43 4.02, 105.16 7.5 C105.88 10.57, 104.92 19.65, 105.16 22.5 C107.43 30.93, 99.14 33.02, 97.66 30 C75.09 32.87, 55.73 33.42, 7.5 30 C5.19 31.48, -2.23 29.42, 0 22.5 C-2.58 16.4, -1.72 10.17, 0 7.5 C0.96 -0.25, 5.68 0.18, 7.5 0" stroke="none" stroke-width="0" fill="#ced4da"></path><path d="M7.5 0 C26.85 1.23, 46.07 -1.25, 97.66 0 M7.5 0 C42.7 -0.62, 77.58 -0.48, 97.66 0 M97.66 0 C104.49 -1.67, 104.35 3.81, 105.16 7.5 M97.66 0 C102.52 -1.75, 106.47 2.56, 105.16 7.5 M105.16 7.5 C103.85 12.32, 106.25 13.49, 105.16 22.5 M105.16 7.5 C105.62 12.44, 105.64 16.66, 105.16 22.5 M105.16 22.5 C104.26 25.88, 100.87 29.38, 97.66 30 M105.16 22.5 C107.39 26.7, 104.93 29.02, 97.66 30 M97.66 30 C63.65 32.54, 26.56 30.92, 7.5 30 M97.66 30 C62.58 29.99, 26.42 28.92, 7.5 30 M7.5 30 C2.16 29.1, 1.57 26.86, 0 22.5 M7.5 30 C3.6 30.16, 1.91 25.74, 0 22.5 M0 22.5 C-1.28 20.02, 1 16.68, 0 7.5 M0 22.5 C0.26 18.19, 0.5 14.74, 0 7.5 M0 7.5 C1.95 3.18, 4.33 0.82, 7.5 0 M0 7.5 C0.18 2.89, 3.23 -0.43, 7.5 0" stroke="transparent" stroke-width="2" fill="none"></path></g><g transform="translate(617.078933251596 163.95459354292188) rotate(0 25.90398406982422 10)"><text x="0" y="0" font-family="Virgil, Segoe UI Emoji" font-size="16px" fill="#1e1e1e" text-anchor="start" style="white-space: pre;" direction="ltr" dominant-baseline="text-before-edge">Render</text></g><g mask="url(#mask-MD7a2FjoDJvIaYVoEQ51f)" stroke-linecap="round"><g transform="translate(724.3491325116302 201.77925321167686) rotate(0 60.07864348092335 102.40088269203738)"><path d="M-0.52 0.17 C19.39 34.32, 99.52 169.48, 119.75 203.77 M1.41 -0.79 C21.09 33.58, 98.75 170.61, 118.59 204.76" stroke="#1e1e1e" stroke-width="2" fill="none"></path></g><g transform="translate(724.3491325116302 201.77925321167686) rotate(0 60.07864348092335 102.40088269203738)"><path d="M99.5 188.63 C105.89 193.33, 110.14 200.48, 118.59 204.76 M99.5 188.63 C107.65 195.47, 114.87 201.91, 118.59 204.76" stroke="#1e1e1e" stroke-width="2" fill="none"></path></g><g transform="translate(724.3491325116302 201.77925321167686) rotate(0 60.07864348092335 102.40088269203738)"><path d="M114.34 180.13 C115.78 187.55, 115.17 197.49, 118.59 204.76 M114.34 180.13 C116.59 190.16, 118 199.93, 118.59 204.76" stroke="#1e1e1e" stroke-width="2" fill="none"></path></g></g><mask id="mask-MD7a2FjoDJvIaYVoEQ51f"><rect x="0" y="0" fill="#fff" width="944.5064194734769" height="506.58101859575163"></rect><rect x="749.4518009559324" y="294.180135903714" fill="#000" width="69.95195007324219" height="20" opacity="1"></rect></mask><g transform="translate(749.4518009559324 294.180135903714) rotate(0 34.516336092725396 9.58793294938323)"><text x="34.975975036621094" y="0" font-family="Virgil, Segoe UI Emoji" font-size="16px" fill="#1e1e1e" text-anchor="middle" style="white-space: pre;" direction="ltr" dominant-baseline="text-before-edge">Response</text></g><g stroke-linecap="round" transform="translate(103.39886928537089 420.0018406170343) rotate(0 369.7555658241927 15)"><path d="M7.5 0 C202.74 -2.06, 400.26 -1.48, 732.01 0 C733.6 -3.51, 737.12 1.02, 739.51 7.5 C738.71 9.56, 739.45 13.55, 739.51 22.5 C738.92 24.7, 736.61 31.06, 732.01 30 C503.91 34.86, 277.4 34.64, 7.5 30 C0.24 32.95, -0.02 29.26, 0 22.5 C0.54 16.36, 0.96 16.49, 0 7.5 C2.48 2.29, 1.16 3.41, 7.5 0" stroke="none" stroke-width="0" fill="#ced4da"></path><path d="M7.5 0 C219.67 0.11, 432.28 0.68, 732.01 0 M7.5 0 C237.54 -1.68, 467.97 -1.21, 732.01 0 M732.01 0 C735.21 0.84, 739.88 1.16, 739.51 7.5 M732.01 0 C736.7 -0.34, 741.15 0.44, 739.51 7.5 M739.51 7.5 C738.09 13.99, 740.46 20.14, 739.51 22.5 M739.51 7.5 C739.78 13.11, 739.03 19.01, 739.51 22.5 M739.51 22.5 C737.81 26.95, 737.75 31.65, 732.01 30 M739.51 22.5 C737.22 28.67, 738.53 31.14, 732.01 30 M732.01 30 C559.61 29.51, 385.8 28.9, 7.5 30 M732.01 30 C458.38 27.74, 185.23 27.57, 7.5 30 M7.5 30 C2.18 30.44, 1.69 26.12, 0 22.5 M7.5 30 C1.86 31.99, 1.75 27.65, 0 22.5 M0 22.5 C-1.09 17.65, 0.8 12.83, 0 7.5 M0 22.5 C0.67 18.41, 0 13.25, 0 7.5 M0 7.5 C1.14 0.61, 0.69 -1.27, 7.5 0 M0 7.5 C1.84 0.7, 0.96 -2.11, 7.5 0" stroke="transparent" stroke-width="2" fill="none"></path></g><g transform="translate(108.39886928537089 425.0018406170343) rotate(0 49.69597625732422 10)"><text x="0" y="0" font-family="Virgil, Segoe UI Emoji" font-size="16px" fill="#1e1e1e" text-anchor="start" style="white-space: pre;" direction="ltr" dominant-baseline="text-before-edge">Blank Screen</text></g><g stroke-linecap="round" transform="translate(848.9893794997733 420.5498082781105) rotate(0 65.46498481940216 15)"><path d="M7.5 0 C41.43 -4.09, 74.24 1.22, 123.43 0 C125.4 -2.71, 129.91 2.18, 130.93 7.5 C130.11 12.65, 128.83 14.63, 130.93 22.5 C132.3 30.83, 125.24 33.2, 123.43 30 C84.24 26.32, 45.61 26.96, 7.5 30 C-0.99 30.34, -1.19 26.8, 0 22.5 C-1.49 18.62, -1.87 13.63, 0 7.5 C2.48 4.48, 1.65 2.62, 7.5 0" stroke="none" stroke-width="0" fill="#a5d8ff"></path><path d="M7.5 0 C43 1.02, 79.9 0.67, 123.43 0 M7.5 0 C30.14 1.39, 53.53 -0.02, 123.43 0 M123.43 0 C129.68 0.42, 131.71 3.94, 130.93 7.5 M123.43 0 C129.13 1.32, 131.27 1.37, 130.93 7.5 M130.93 7.5 C132.48 12.29, 129.73 19.77, 130.93 22.5 M130.93 7.5 C130.62 11.1, 131.21 15.39, 130.93 22.5 M130.93 22.5 C130.55 29.21, 128.09 29.26, 123.43 30 M130.93 22.5 C132.5 26.29, 127.74 31.61, 123.43 30 M123.43 30 C98.4 27.91, 70.41 30.67, 7.5 30 M123.43 30 C97.31 29.69, 69.03 30.88, 7.5 30 M7.5 30 C4.15 29.43, -1.18 27.71, 0 22.5 M7.5 30 C2.46 31.96, 0.24 29.09, 0 22.5 M0 22.5 C0.47 18.76, 0.04 16.12, 0 7.5 M0 22.5 C-0.45 16.41, 0.36 10.72, 0 7.5 M0 7.5 C-0.52 2.5, 1.63 1.99, 7.5 0 M0 7.5 C-1.75 3.61, 2.95 1.07, 7.5 0" stroke="transparent" stroke-width="2" fill="none"></path></g><g transform="translate(853.9893794997733 425.5498082781105) rotate(0 35.927978515625 10)"><text x="0" y="0" font-family="Virgil, Segoe UI Emoji" font-size="16px" fill="#1e1e1e" text-anchor="start" style="white-space: pre;" direction="ltr" dominant-baseline="text-before-edge">Hydration</text></g><g stroke-linecap="round" transform="translate(985.9109268504944 419.870396788117) rotate(0 75.83665040706728 15)"><path d="M7.5 0 C57.34 -1.04, 100.86 1.16, 144.17 0 C152.37 -0.43, 154.74 1.72, 151.67 7.5 C152.06 10.09, 150.53 14.17, 151.67 22.5 C148.87 28.73, 146.83 29.23, 144.17 30 C104.85 35.61, 66.86 35.08, 7.5 30 C2.66 27, -2.88 27.51, 0 22.5 C-1.37 20.53, 1.02 14.09, 0 7.5 C1.64 1.19, 5.75 2.69, 7.5 0" stroke="none" stroke-width="0" fill="#69db7c"></path><path d="M7.5 0 C35.98 1.79, 67.05 -1.05, 144.17 0 M7.5 0 C36.82 -0.27, 68.17 -0.3, 144.17 0 M144.17 0 C148.63 1.36, 151.26 0.89, 151.67 7.5 M144.17 0 C151.36 1.6, 151.44 2.63, 151.67 7.5 M151.67 7.5 C152.06 12.59, 151.59 17.17, 151.67 22.5 M151.67 7.5 C151.43 12.03, 152.19 16.04, 151.67 22.5 M151.67 22.5 C151.14 28.62, 147.66 30.83, 144.17 30 M151.67 22.5 C153.81 28.58, 150.67 30.09, 144.17 30 M144.17 30 C104.51 31.15, 64.76 32.56, 7.5 30 M144.17 30 C103.61 30.29, 61.22 29.03, 7.5 30 M7.5 30 C1.48 30.02, 0.73 26.55, 0 22.5 M7.5 30 C1.58 31.28, -2.17 26.4, 0 22.5 M0 22.5 C0.01 18.38, 0.11 12.64, 0 7.5 M0 22.5 C-0.54 18.32, 0.26 13.09, 0 7.5 M0 7.5 C-0.45 3.71, 1.36 0.69, 7.5 0 M0 7.5 C2.3 0.77, 2.98 1.09, 7.5 0" stroke="transparent" stroke-width="2" fill="none"></path></g><g transform="translate(990.9109268504944 424.870396788117) rotate(0 59.463966369628906 10)"><text x="0" y="0" font-family="Virgil, Segoe UI Emoji" font-size="16px" fill="#1e1e1e" text-anchor="start" style="white-space: pre;" direction="ltr" dominant-baseline="text-before-edge">Full Page Load</text></g><g stroke-linecap="round"><g transform="translate(848.6427242748723 506.2488010421912) rotate(0 -0.2889283639815403 -25.27483158446603)"><path d="M-0.74 -0.66 C-0.74 -9.28, -0.82 -42.36, -0.88 -50.67 M1.08 1.61 C0.96 -6.3, -1.45 -40.73, -1.98 -49.2" stroke="#1e1e1e" stroke-width="2" fill="none"></path></g><g transform="translate(848.6427242748723 506.2488010421912) rotate(0 -0.2889283639815403 -25.27483158446603)"><path d="M8.1 -26.33 C4.49 -32.14, 3.07 -37.74, -1.98 -49.2 M8.1 -26.33 C5.44 -32.47, 2.14 -41.06, -1.98 -49.2" stroke="#1e1e1e" stroke-width="2" fill="none"></path></g><g transform="translate(848.6427242748723 506.2488010421912) rotate(0 -0.2889283639815403 -25.27483158446603)"><path d="M-8.96 -25.2 C-8.67 -31.16, -6.17 -37.03, -1.98 -49.2 M-8.96 -25.2 C-6.49 -31.65, -4.66 -40.59, -1.98 -49.2" stroke="#1e1e1e" stroke-width="2" fill="none"></path></g></g><mask></mask><g transform="translate(820.1055055882753 516.2797153459537) rotate(0 30.47198486328125 20)"><text x="30.47198486328125" y="0" font-family="Virgil, Segoe UI Emoji" font-size="16px" fill="#1e1e1e" text-anchor="middle" style="white-space: pre;" direction="ltr" dominant-baseline="text-before-edge">Content</text><text x="30.47198486328125" y="20" font-family="Virgil, Segoe UI Emoji" font-size="16px" fill="#1e1e1e" text-anchor="middle" style="white-space: pre;" direction="ltr" dominant-baseline="text-before-edge">Visible</text></g><g stroke-linecap="round"><g transform="translate(983.9023453983427 506.77486938181664) rotate(0 -0.10529041799418337 -25.502589530005253)"><path d="M0.87 0.55 C1.11 -7.67, 1.05 -41.53, 0.82 -50.3 M-0.13 -0.21 C0.09 -8.69, 0.63 -43.54, 0.41 -52.05" stroke="#1e1e1e" stroke-width="2" fill="none"></path></g><g transform="translate(983.9023453983427 506.77486938181664) rotate(0 -0.10529041799418337 -25.502589530005253)"><path d="M9 -28.57 C7.94 -32.71, 6.04 -40.84, 0.41 -52.05 M9 -28.57 C6.65 -33.35, 5.52 -38.15, 0.41 -52.05" stroke="#1e1e1e" stroke-width="2" fill="none"></path></g><g transform="translate(983.9023453983427 506.77486938181664) rotate(0 -0.10529041799418337 -25.502589530005253)"><path d="M-8.1 -28.55 C-4.85 -32.81, -2.45 -40.95, 0.41 -52.05 M-8.1 -28.55 C-6.84 -33.23, -4.34 -38.03, 0.41 -52.05" stroke="#1e1e1e" stroke-width="2" fill="none"></path></g></g><mask></mask><g transform="translate(941.6142478548645 516.8057836855787) rotate(0 44.61597442626953 10)"><text x="44.61597442626953" y="0" font-family="Virgil, Segoe UI Emoji" font-size="16px" fill="#1e1e1e" text-anchor="middle" style="white-space: pre;" direction="ltr" dominant-baseline="text-before-edge">Interactive</text></g></svg>