<svg version="1.1" xmlns="http://www.w3.org/2000/svg" viewBox="0 0 2035.6991531761669 461.6832306178594" width="4071.3983063523337" height="923.3664612357188" filter="invert(93%) hue-rotate(180deg)">
  <!-- svg-source:excalidraw -->
  
  <defs>
    <style class="style-fonts">
      @font-face {
        font-family: "Virgil";
        src: url("https://excalidraw.com/Virgil.woff2");
      }
      @font-face {
        font-family: "Cascadia";
        src: url("https://excalidraw.com/Cascadia.woff2");
      }
      @font-face {
        font-family: "Assistant";
        src: url("https://excalidraw.com/Assistant-Regular.woff2");
      }
    </style>
    
  </defs>
  <g stroke-linecap="round"><g transform="translate(130.38530072502544 289.9084189847017) rotate(0 0 49.63884939166883)"><path d="M-0.89 0.76 C-0.91 17.31, -1.07 83.38, -1.07 99.83 M0.85 0.12 C1.27 16.26, 0.96 81.21, 1.09 97.99" stroke="#1e1e1e" stroke-width="2" fill="none"></path></g></g><mask></mask><g stroke-linecap="round"><g transform="translate(90.60863040954428 342.55268594325753) rotate(0 967.3257899687378 0)"><path d="M0.92 1.06 C323.63 1.34, 1612.77 1.06, 1935.09 1.01 M-0.05 0.58 C322.64 0.59, 1612 -0.29, 1934.37 -0.58" stroke="#1e1e1e" stroke-width="2" fill="none"></path></g></g><mask></mask><g transform="translate(90.60083716280133 406.6832306178594) rotate(0 39.18598937988281 22.5)"><text x="39.18598937988281" y="0" font-family="Virgil, Segoe UI Emoji" font-size="36px" fill="#1e1e1e" text-anchor="middle" style="white-space: pre;" direction="ltr" dominant-baseline="text-before-edge">1990</text></g><g stroke-linecap="round"><g transform="translate(692.7839930020091 287.8567904826359) rotate(0 0 49.63884939166883)"><path d="M-0.24 0.03 C-0.3 16.65, -1.22 84.01, -1.17 100.46 M-1.82 -1.01 C-1.46 15.25, 0.73 82.17, 0.93 98.95" stroke="#1e1e1e" stroke-width="2" fill="none"></path></g></g><mask></mask><g transform="translate(642.2175393885082 404.6316021157927) rotate(0 49.967979431152344 22.5)"><text x="49.967979431152344" y="0" font-family="Virgil, Segoe UI Emoji" font-size="36px" fill="#1e1e1e" text-anchor="middle" style="white-space: pre;" direction="ltr" dominant-baseline="text-before-edge">2000</text></g><g stroke-linecap="round"><g transform="translate(1253.0887657778403 286.8667019188515) rotate(0 0 49.63884939166883)"><path d="M1.05 1.05 C1.01 17.77, -0.39 83.86, -0.59 100.31 M0.14 0.55 C0.53 16.96, 2.01 82.54, 1.82 98.72" stroke="#1e1e1e" stroke-width="2" fill="none"></path></g></g><mask></mask><g transform="translate(1210.028308868441 403.6415135520083) rotate(0 42.46198272705078 22.5)"><text x="42.46198272705078" y="0" font-family="Virgil, Segoe UI Emoji" font-size="36px" fill="#1e1e1e" text-anchor="middle" style="white-space: pre;" direction="ltr" dominant-baseline="text-before-edge">2010</text></g><g stroke-linecap="round"><g transform="translate(1813.9664241740575 287.77101809255055) rotate(0 0 49.63884939166883)"><path d="M0.9 0.42 C1.11 17.04, 0.88 82.59, 0.79 98.89 M-0.08 -0.4 C0.08 16.45, 0.28 83.66, 0.26 100.22" stroke="#1e1e1e" stroke-width="2" fill="none"></path></g></g><mask></mask><g transform="translate(1762.9679713540136 404.54582972570734) rotate(0 50.39997863769531 22.5)"><text x="50.39997863769531" y="0" font-family="Virgil, Segoe UI Emoji" font-size="36px" fill="#1e1e1e" text-anchor="middle" style="white-space: pre;" direction="ltr" dominant-baseline="text-before-edge">2020</text></g><g stroke-linecap="round"><g transform="translate(89.28681077330839 220.4735843446806) rotate(0 0 59.58667959149261)"><path d="M1.05 -0.24 C0.9 19.67, -0.82 98.69, -0.83 118.56 M0.14 -1.42 C0.36 18.73, 1.34 99.51, 1.45 119.78" stroke="#868e96" stroke-width="2" fill="none"></path></g><g transform="translate(89.28681077330839 220.4735843446806) rotate(0 0 59.58667959149261)"><path d="M-7.32 96.37 C-5.23 102.07, -3.16 112.32, 1.45 119.78 M-7.32 96.37 C-5.43 103.43, -2.76 108.97, 1.45 119.78" stroke="#868e96" stroke-width="2" fill="none"></path></g><g transform="translate(89.28681077330839 220.4735843446806) rotate(0 0 59.58667959149261)"><path d="M9.78 96.21 C6.64 102.11, 3.48 112.41, 1.45 119.78 M9.78 96.21 C6.83 103.32, 4.65 108.9, 1.45 119.78" stroke="#868e96" stroke-width="2" fill="none"></path></g></g><mask></mask><g transform="translate(10 117.12058200877073) rotate(0 79.12796783447266 45)"><text x="79.12796783447266" y="0" font-family="Virgil, Segoe UI Emoji" font-size="36px" fill="#868e96" text-anchor="middle" style="white-space: pre;" direction="ltr" dominant-baseline="text-before-edge">WWW</text><text x="79.12796783447266" y="45" font-family="Virgil, Segoe UI Emoji" font-size="36px" fill="#868e96" text-anchor="middle" style="white-space: pre;" direction="ltr" dominant-baseline="text-before-edge">Imvented</text></g><g stroke-linecap="round"><g transform="translate(279.20331722487754 215.6756705727039) rotate(0 0.099526843867352 59.58667959149261)"><path d="M-0.23 -0.56 C-0.14 19.07, 0.23 98.98, 0.29 118.88 M-1.8 1.76 C-1.85 22.08, -0.8 100.56, -0.61 120.26" stroke="#868e96" stroke-width="2" fill="none"></path></g><g transform="translate(279.20331722487754 215.6756705727039) rotate(0 0.099526843867352 59.58667959149261)"><path d="M-9.43 96.87 C-7.65 103.67, -4.71 110.03, -0.61 120.26 M-9.43 96.87 C-6.4 102.91, -4.23 109.7, -0.61 120.26" stroke="#868e96" stroke-width="2" fill="none"></path></g><g transform="translate(279.20331722487754 215.6756705727039) rotate(0 0.099526843867352 59.58667959149261)"><path d="M7.67 96.67 C4.6 103.49, 2.7 109.91, -0.61 120.26 M7.67 96.67 C6.06 102.85, 3.58 109.69, -0.61 120.26" stroke="#868e96" stroke-width="2" fill="none"></path></g></g><mask></mask><g transform="translate(179.401994356871 112.3226682367931) rotate(0 99.50395965576172 45)"><text x="99.50395965576172" y="0" font-family="Virgil, Segoe UI Emoji" font-size="36px" fill="#868e96" text-anchor="middle" style="white-space: pre;" direction="ltr" dominant-baseline="text-before-edge">Server Side</text><text x="99.50395965576172" y="45" font-family="Virgil, Segoe UI Emoji" font-size="36px" fill="#868e96" text-anchor="middle" style="white-space: pre;" direction="ltr" dominant-baseline="text-before-edge">Rendering</text></g><g stroke-linecap="round"><g transform="translate(1174.4013780690766 218.90445309065217) rotate(0 0.10413322273052472 59.58667959149261)"><path d="M0.5 -0.24 C0.63 19.73, 0.76 99.66, 0.81 119.59 M-0.69 -1.41 C-0.67 18.2, 0.01 97.33, 0.18 117.68" stroke="#868e96" stroke-width="2" fill="none"></path></g><g transform="translate(1174.4013780690766 218.90445309065217) rotate(0 0.10413322273052472 59.58667959149261)"><path d="M-8.57 94.26 C-6.36 102.34, -2.61 109.37, 0.18 117.68 M-8.57 94.26 C-5.64 102.09, -2.83 108.38, 0.18 117.68" stroke="#868e96" stroke-width="2" fill="none"></path></g><g transform="translate(1174.4013780690766 218.90445309065217) rotate(0 0.10413322273052472 59.58667959149261)"><path d="M8.53 94.12 C5.55 102.31, 4.11 109.39, 0.18 117.68 M8.53 94.12 C6.1 101.88, 3.55 108.22, 0.18 117.68" stroke="#868e96" stroke-width="2" fill="none"></path></g></g><mask></mask><g transform="translate(1081.4492719260816 115.5514507547432) rotate(0 92.66395568847656 45)"><text x="92.66395568847656" y="0" font-family="Virgil, Segoe UI Emoji" font-size="36px" fill="#868e96" text-anchor="middle" style="white-space: pre;" direction="ltr" dominant-baseline="text-before-edge">Client Side</text><text x="92.66395568847656" y="45" font-family="Virgil, Segoe UI Emoji" font-size="36px" fill="#868e96" text-anchor="middle" style="white-space: pre;" direction="ltr" dominant-baseline="text-before-edge">Rendering</text></g><g stroke-linecap="round"><g transform="translate(405.82275456424395 99.48336072452003) rotate(0 0.132051436790789 116.99699378794367)"><path d="M-0.11 0.48 C-0.04 39.32, 0.17 194.21, 0.38 233.23 M-1.63 -0.32 C-1.7 38.64, -0.92 195.55, -0.5 234.37" stroke="#868e96" stroke-width="2" fill="none"></path></g><g transform="translate(405.82275456424395 99.48336072452003) rotate(0 0.132051436790789 116.99699378794367)"><path d="M-9.22 210.94 C-5.82 218.07, -5.31 226.29, -0.5 234.37 M-9.22 210.94 C-6.04 218.14, -3.82 226.43, -0.5 234.37" stroke="#868e96" stroke-width="2" fill="none"></path></g><g transform="translate(405.82275456424395 99.48336072452003) rotate(0 0.132051436790789 116.99699378794367)"><path d="M7.88 210.81 C6.23 217.97, 1.69 226.22, -0.5 234.37 M7.88 210.81 C5.09 218.08, 1.34 226.42, -0.5 234.37" stroke="#868e96" stroke-width="2" fill="none"></path></g></g><mask></mask><g transform="translate(310.04647996655694 41.13035838861106) rotate(0 95.54396057128906 22.5)"><text x="95.54396057128906" y="0" font-family="Virgil, Segoe UI Emoji" font-size="36px" fill="#868e96" text-anchor="middle" style="white-space: pre;" direction="ltr" dominant-baseline="text-before-edge">JavaScript</text></g><g stroke-linecap="round"><g transform="translate(1297.180391528349 113.35300233590806) rotate(0 0.3889903171129845 110.11845422211991)"><path d="M-0.15 -0.74 C0.16 36.13, 1.27 183.75, 1.53 220.44 M-1.68 1.48 C-1.44 38.04, 0.53 181.96, 0.97 218.42" stroke="#868e96" stroke-width="2" fill="none"></path></g><g transform="translate(1297.180391528349 113.35300233590806) rotate(0 0.3889903171129845 110.11845422211991)"><path d="M-7.88 195.04 C-6.85 202.7, -2.86 208.92, 0.97 218.42 M-7.88 195.04 C-5.17 199.65, -4.13 205.1, 0.97 218.42" stroke="#868e96" stroke-width="2" fill="none"></path></g><g transform="translate(1297.180391528349 113.35300233590806) rotate(0 0.3889903171129845 110.11845422211991)"><path d="M9.22 194.82 C5.57 202.52, 4.88 208.8, 0.97 218.42 M9.22 194.82 C8.03 199.37, 5.18 204.88, 0.97 218.42" stroke="#868e96" stroke-width="2" fill="none"></path></g></g><mask></mask><g transform="translate(1196.6028914126327 10) rotate(0 100.16996765136719 45)"><text x="100.16996765136719" y="0" font-family="Virgil, Segoe UI Emoji" font-size="36px" fill="#868e96" text-anchor="middle" style="white-space: pre;" direction="ltr" dominant-baseline="text-before-edge">Static Site</text><text x="100.16996765136719" y="45" font-family="Virgil, Segoe UI Emoji" font-size="36px" fill="#868e96" text-anchor="middle" style="white-space: pre;" direction="ltr" dominant-baseline="text-before-edge">Generation</text></g><g stroke-linecap="round"><g transform="translate(1023.6704397335525 97.4351978357954) rotate(0 0.16273755123620504 117.3415418872396)"><path d="M-0.8 -0.12 C-0.44 38.95, 0.78 196.26, 1.07 235.38 M0.99 -1.22 C1.34 37.42, 0.59 194.1, 0.52 233.62" stroke="#868e96" stroke-width="2" fill="none"></path></g><g transform="translate(1023.6704397335525 97.4351978357954) rotate(0 0.16273755123620504 117.3415418872396)"><path d="M-7.95 210.1 C-6.17 216.37, -3.02 221.19, 0.52 233.62 M-7.95 210.1 C-5.06 216.35, -2.63 223.4, 0.52 233.62" stroke="#868e96" stroke-width="2" fill="none"></path></g><g transform="translate(1023.6704397335525 97.4351978357954) rotate(0 0.16273755123620504 117.3415418872396)"><path d="M9.15 210.16 C7.32 216.31, 6.85 221.11, 0.52 233.62 M9.15 210.16 C7.01 216.34, 4.42 223.38, 0.52 233.62" stroke="#868e96" stroke-width="2" fill="none"></path></g></g><mask></mask><g transform="translate(963.1455245473771 39.08219549988735) rotate(0 60.353973388671875 22.5)"><text x="60.353973388671875" y="0" font-family="Virgil, Segoe UI Emoji" font-size="36px" fill="#868e96" text-anchor="middle" style="white-space: pre;" direction="ltr" dominant-baseline="text-before-edge">JQuery</text></g><g stroke-linecap="round"><g transform="translate(1375.0104787459823 184.5299495798372) rotate(0 0.15677060212692595 74.09199572817033)"><path d="M0.3 -0.41 C0.11 24.17, -0.01 122.68, 0.05 147.27 M-1 -1.67 C-1.47 23.05, -1.22 123.4, -1.03 148.32" stroke="#868e96" stroke-width="2" fill="none"></path></g><g transform="translate(1375.0104787459823 184.5299495798372) rotate(0 0.15677060212692595 74.09199572817033)"><path d="M-9.68 124.87 C-6.96 133.76, -4.36 144.2, -1.03 148.32 M-9.68 124.87 C-8.36 129.46, -5.91 134.58, -1.03 148.32" stroke="#868e96" stroke-width="2" fill="none"></path></g><g transform="translate(1375.0104787459823 184.5299495798372) rotate(0 0.15677060212692595 74.09199572817033)"><path d="M7.42 124.8 C3.32 133.76, -0.89 144.22, -1.03 148.32 M7.42 124.8 C5.15 129.27, 4 134.41, -1.03 148.32" stroke="#868e96" stroke-width="2" fill="none"></path></g></g><mask></mask><g transform="translate(1321.5656249008462 126.17694724392823) rotate(0 53.26197814941406 22.5)"><text x="53.26197814941406" y="0" font-family="Virgil, Segoe UI Emoji" font-size="36px" fill="#868e96" text-anchor="middle" style="white-space: pre;" direction="ltr" dominant-baseline="text-before-edge">React</text></g><g stroke-linecap="round"><g transform="translate(1598.6441463709853 190.8129583533928) rotate(0 0.1344899086143414 74.09199572817033)"><path d="M0.52 0.13 C0.62 24.85, 1.36 122.71, 1.46 147.28 M-0.67 -0.84 C-0.69 24.09, 0.9 123.45, 1.14 148.34" stroke="#868e96" stroke-width="2" fill="none"></path></g><g transform="translate(1598.6441463709853 190.8129583533928) rotate(0 0.1344899086143414 74.09199572817033)"><path d="M-7.71 124.96 C-4.41 135.57, -2.87 143.65, 1.14 148.34 M-7.71 124.96 C-5.17 130.29, -2.41 136.35, 1.14 148.34" stroke="#868e96" stroke-width="2" fill="none"></path></g><g transform="translate(1598.6441463709853 190.8129583533928) rotate(0 0.1344899086143414 74.09199572817033)"><path d="M9.39 124.74 C6.36 135.5, 1.58 143.67, 1.14 148.34 M9.39 124.74 C7.72 130.2, 6.27 136.31, 1.14 148.34" stroke="#868e96" stroke-width="2" fill="none"></path></g></g><mask></mask><g transform="translate(1517.5787347399018 132.45995601748382) rotate(0 80.83797454833984 22.5)"><text x="80.83797454833984" y="0" font-family="Virgil, Segoe UI Emoji" font-size="36px" fill="#868e96" text-anchor="middle" style="white-space: pre;" direction="ltr" dominant-baseline="text-before-edge">Hydration</text></g><g stroke-linecap="round"><g transform="translate(1853.6470292721024 238.03748647724478) rotate(0 0.09487148891093966 50.80643406723766)"><path d="M0.42 0.46 C0.4 17.14, 0.9 84.04, 0.79 100.78 M-0.82 -0.35 C-1.03 16.41, 0.23 84.86, 0.16 101.88" stroke="#1e1e1e" stroke-width="2" fill="none"></path></g><g transform="translate(1853.6470292721024 238.03748647724478) rotate(0 0.09487148891093966 50.80643406723766)"><path d="M-8.59 78.46 C-4.39 88.29, -3.23 95.44, 0.16 101.88 M-8.59 78.46 C-7.18 83.22, -5.25 89.31, 0.16 101.88" stroke="#1e1e1e" stroke-width="2" fill="none"></path></g><g transform="translate(1853.6470292721024 238.03748647724478) rotate(0 0.09487148891093966 50.80643406723766)"><path d="M8.51 78.32 C6.24 88.26, 0.94 95.46, 0.16 101.88 M8.51 78.32 C5.82 83.23, 3.66 89.35, 0.16 101.88" stroke="#1e1e1e" stroke-width="2" fill="none"></path></g></g><mask></mask><g transform="translate(1754.9343876375424 134.68448414133582) rotate(0 98.40596771240234 45)"><text x="98.40596771240234" y="0" font-family="Virgil, Segoe UI Emoji" font-size="36px" fill="#1e1e1e" text-anchor="middle" style="white-space: pre;" direction="ltr" dominant-baseline="text-before-edge">Server</text><text x="98.40596771240234" y="45" font-family="Virgil, Segoe UI Emoji" font-size="36px" fill="#1e1e1e" text-anchor="middle" style="white-space: pre;" direction="ltr" dominant-baseline="text-before-edge">Components</text></g></svg>