<svg version="1.1" xmlns="http://www.w3.org/2000/svg" viewBox="0 0 2035.7431908393592 461.6832306178585" width="4071.4863816787183" height="923.366461235717" filter="invert(93%) hue-rotate(180deg)">
  <!-- svg-source:excalidraw -->
  
  <defs>
    <style class="style-fonts">
      @font-face {
        font-family: "Virgil";
        src: url("https://excalidraw.com/Virgil.woff2");
      }
      @font-face {
        font-family: "Cascadia";
        src: url("https://excalidraw.com/Cascadia.woff2");
      }
      @font-face {
        font-family: "Assistant";
        src: url("https://excalidraw.com/Assistant-Regular.woff2");
      }
    </style>
    
  </defs>
  <g stroke-linecap="round"><g transform="translate(130.3853007250218 289.9084189847017) rotate(0 0 49.63884939166883)"><path d="M-0.84 0.42 C-0.56 16.96, 0.52 81.72, 0.74 98.25 M0.92 -0.41 C1.19 16.34, 0.33 82.94, 0.18 99.25" stroke="#1e1e1e" stroke-width="2" fill="none"></path></g></g><mask></mask><g stroke-linecap="round"><g transform="translate(90.60863040954428 342.55268594325753) rotate(0 967.3257899687378 0)"><path d="M0.74 -1.03 C323.4 -1.04, 1612.98 0.16, 1935.13 0.35 M-0.34 1.05 C322.28 0.63, 1611.71 -1.67, 1934.44 -1.59" stroke="#1e1e1e" stroke-width="2" fill="none"></path></g></g><mask></mask><g transform="translate(90.60083716280496 406.6832306178585) rotate(0 39.18598937988281 22.5)"><text x="39.18598937988281" y="0" font-family="Virgil, Segoe UI Emoji" font-size="36px" fill="#1e1e1e" text-anchor="middle" style="white-space: pre;" direction="ltr" dominant-baseline="text-before-edge">1990</text></g><g stroke-linecap="round"><g transform="translate(692.7839930020054 287.8567904826341) rotate(0 0 49.63884939166883)"><path d="M-0.99 0.14 C-1.02 16.71, 0.07 83.38, 0.34 99.78 M0.69 -0.83 C0.49 15.35, -0.35 81.21, -0.42 97.92" stroke="#1e1e1e" stroke-width="2" fill="none"></path></g></g><mask></mask><g transform="translate(642.2175393885045 404.6316021157909) rotate(0 49.967979431152344 22.5)"><text x="49.967979431152344" y="0" font-family="Virgil, Segoe UI Emoji" font-size="36px" fill="#1e1e1e" text-anchor="middle" style="white-space: pre;" direction="ltr" dominant-baseline="text-before-edge">2000</text></g><g stroke-linecap="round"><g transform="translate(1253.088765777844 286.8667019188506) rotate(0 0 49.63884939166883)"><path d="M0.67 -0.76 C0.58 15.59, 0 81.87, -0.18 98.59 M-0.44 1.46 C-0.73 17.91, -1.06 83.17, -1.23 99.77" stroke="#1e1e1e" stroke-width="2" fill="none"></path></g></g><mask></mask><g transform="translate(1210.0283088684446 403.6415135520074) rotate(0 42.46198272705078 22.5)"><text x="42.46198272705078" y="0" font-family="Virgil, Segoe UI Emoji" font-size="36px" fill="#1e1e1e" text-anchor="middle" style="white-space: pre;" direction="ltr" dominant-baseline="text-before-edge">2010</text></g><g stroke-linecap="round"><g transform="translate(1813.966424174061 287.77101809254964) rotate(0 0 49.63884939166883)"><path d="M-0.43 0.31 C-0.26 17.09, 0.84 83.66, 0.81 99.99 M1.55 -0.57 C1.64 15.92, 0.83 81.63, 0.29 98.25" stroke="#1e1e1e" stroke-width="2" fill="none"></path></g></g><mask></mask><g transform="translate(1762.9679713540172 404.5458297257064) rotate(0 50.39997863769531 22.5)"><text x="50.39997863769531" y="0" font-family="Virgil, Segoe UI Emoji" font-size="36px" fill="#1e1e1e" text-anchor="middle" style="white-space: pre;" direction="ltr" dominant-baseline="text-before-edge">2020</text></g><g stroke-linecap="round"><g transform="translate(89.28681077330839 220.4735843446797) rotate(0 0 59.58667959149261)"><path d="M-0.61 -0.96 C-0.73 18.93, -0.09 99.89, 0.09 120.04 M1.28 1.15 C0.93 20.64, -0.6 98.9, -0.82 118.37" stroke="#868e96" stroke-width="2" fill="none"></path></g><g transform="translate(89.28681077330839 220.4735843446797) rotate(0 0 59.58667959149261)"><path d="M-8.99 94.75 C-7.45 103.62, -1.39 112.93, -0.82 118.37 M-8.99 94.75 C-5.2 103.53, -2.75 112.86, -0.82 118.37" stroke="#868e96" stroke-width="2" fill="none"></path></g><g transform="translate(89.28681077330839 220.4735843446797) rotate(0 0 59.58667959149261)"><path d="M8.11 95.02 C3.37 103.7, 3.13 112.92, -0.82 118.37 M8.11 95.02 C5.66 103.56, 1.88 112.79, -0.82 118.37" stroke="#868e96" stroke-width="2" fill="none"></path></g></g><mask></mask><g transform="translate(10 117.12058200877073) rotate(0 79.12796783447266 45)"><text x="79.12796783447266" y="0" font-family="Virgil, Segoe UI Emoji" font-size="36px" fill="#868e96" text-anchor="middle" style="white-space: pre;" direction="ltr" dominant-baseline="text-before-edge">WWW</text><text x="79.12796783447266" y="45" font-family="Virgil, Segoe UI Emoji" font-size="36px" fill="#868e96" text-anchor="middle" style="white-space: pre;" direction="ltr" dominant-baseline="text-before-edge">Imvented</text></g><g stroke-linecap="round"><g transform="translate(279.20331722487754 215.67567057270207) rotate(0 0.099526843867352 59.58667959149261)"><path d="M0.47 0.77 C0.49 20.33, 0.13 98.42, 0.24 118.17 M-0.75 0.14 C-0.88 19.73, -0.96 99.09, -0.69 119.18" stroke="#868e96" stroke-width="2" fill="none"></path></g><g transform="translate(279.20331722487754 215.67567057270207) rotate(0 0.099526843867352 59.58667959149261)"><path d="M-9.36 95.73 C-5.23 102.97, -5.53 111.7, -0.69 119.18 M-9.36 95.73 C-6.19 102.05, -4.73 109.35, -0.69 119.18" stroke="#868e96" stroke-width="2" fill="none"></path></g><g transform="translate(279.20331722487754 215.67567057270207) rotate(0 0.099526843867352 59.58667959149261)"><path d="M7.74 95.64 C6.62 102.98, 1.06 111.74, -0.69 119.18 M7.74 95.64 C5.61 102.13, 1.76 109.46, -0.69 119.18" stroke="#868e96" stroke-width="2" fill="none"></path></g></g><mask></mask><g transform="translate(179.401994356871 112.3226682367931) rotate(0 99.50395965576172 45)"><text x="99.50395965576172" y="0" font-family="Virgil, Segoe UI Emoji" font-size="36px" fill="#868e96" text-anchor="middle" style="white-space: pre;" direction="ltr" dominant-baseline="text-before-edge">Server Side</text><text x="99.50395965576172" y="45" font-family="Virgil, Segoe UI Emoji" font-size="36px" fill="#868e96" text-anchor="middle" style="white-space: pre;" direction="ltr" dominant-baseline="text-before-edge">Rendering</text></g><g stroke-linecap="round"><g transform="translate(1174.4013780690802 218.90445309065035) rotate(0 0.10413322273052472 59.58667959149261)"><path d="M0.96 0.12 C1.04 20.32, 0.58 100.49, 0.53 120.16 M0.01 -0.86 C-0.04 19.1, -0.28 98.6, -0.25 118.55" stroke="#868e96" stroke-width="2" fill="none"></path></g><g transform="translate(1174.4013780690802 218.90445309065035) rotate(0 0.10413322273052472 59.58667959149261)"><path d="M-8.77 95.05 C-6.18 102.65, -2.15 110.07, -0.25 118.55 M-8.77 95.05 C-8.05 100.39, -4.47 104.2, -0.25 118.55" stroke="#868e96" stroke-width="2" fill="none"></path></g><g transform="translate(1174.4013780690802 218.90445309065035) rotate(0 0.10413322273052472 59.58667959149261)"><path d="M8.33 95.07 C5.73 102.8, 4.57 110.22, -0.25 118.55 M8.33 95.07 C5.43 100.26, 5.39 104.06, -0.25 118.55" stroke="#868e96" stroke-width="2" fill="none"></path></g></g><mask></mask><g transform="translate(1081.4492719260816 115.55145075474138) rotate(0 92.66395568847656 45)"><text x="92.66395568847656" y="0" font-family="Virgil, Segoe UI Emoji" font-size="36px" fill="#868e96" text-anchor="middle" style="white-space: pre;" direction="ltr" dominant-baseline="text-before-edge">Client Side</text><text x="92.66395568847656" y="45" font-family="Virgil, Segoe UI Emoji" font-size="36px" fill="#868e96" text-anchor="middle" style="white-space: pre;" direction="ltr" dominant-baseline="text-before-edge">Rendering</text></g><g stroke-linecap="round"><g transform="translate(405.82275456424395 99.48336072452003) rotate(0 0.132051436790789 116.99699378794367)"><path d="M0.5 -1.06 C0.32 37.6, -0.5 193.73, -0.72 232.96 M-0.7 1 C-0.54 39.69, 1.11 195.43, 1.48 233.96" stroke="#868e96" stroke-width="2" fill="none"></path></g><g transform="translate(405.82275456424395 99.48336072452003) rotate(0 0.132051436790789 116.99699378794367)"><path d="M-7.3 210.55 C-6 216.54, -3.08 224.04, 1.48 233.96 M-7.3 210.55 C-4.23 218.59, -1.13 226.34, 1.48 233.96" stroke="#868e96" stroke-width="2" fill="none"></path></g><g transform="translate(405.82275456424395 99.48336072452003) rotate(0 0.132051436790789 116.99699378794367)"><path d="M9.8 210.38 C5.51 216.49, 2.83 224.05, 1.48 233.96 M9.8 210.38 C7.24 218.33, 4.72 226.13, 1.48 233.96" stroke="#868e96" stroke-width="2" fill="none"></path></g></g><mask></mask><g transform="translate(310.04647996655694 41.13035838861106) rotate(0 95.54396057128906 22.5)"><text x="95.54396057128906" y="0" font-family="Virgil, Segoe UI Emoji" font-size="36px" fill="#868e96" text-anchor="middle" style="white-space: pre;" direction="ltr" dominant-baseline="text-before-edge">JavaScript</text></g><g stroke-linecap="round"><g transform="translate(1297.1803915283454 113.35300233590897) rotate(0 0.3889903171129845 110.11845422211991)"><path d="M-1.07 0.35 C-0.6 37.05, 1.54 182.48, 1.84 219.18 M0.57 -0.52 C1.06 36.39, 1.55 183.08, 1.45 220.17" stroke="#1e1e1e" stroke-width="2" fill="none"></path></g><g transform="translate(1297.1803915283454 113.35300233590897) rotate(0 0.3889903171129845 110.11845422211991)"><path d="M-7.12 196.68 C-4.87 203.66, -5.34 206.96, 1.45 220.17 M-7.12 196.68 C-3.98 205.04, -1.87 211.76, 1.45 220.17" stroke="#1e1e1e" stroke-width="2" fill="none"></path></g><g transform="translate(1297.1803915283454 113.35300233590897) rotate(0 0.3889903171129845 110.11845422211991)"><path d="M9.98 196.67 C8.5 203.49, 4.3 206.8, 1.45 220.17 M9.98 196.67 C7.54 205.09, 4.07 211.81, 1.45 220.17" stroke="#1e1e1e" stroke-width="2" fill="none"></path></g></g><mask></mask><g transform="translate(1196.602891412629 10) rotate(0 100.16996765136719 45)"><text x="100.16996765136719" y="0" font-family="Virgil, Segoe UI Emoji" font-size="36px" fill="#1e1e1e" text-anchor="middle" style="white-space: pre;" direction="ltr" dominant-baseline="text-before-edge">Static Site</text><text x="100.16996765136719" y="45" font-family="Virgil, Segoe UI Emoji" font-size="36px" fill="#1e1e1e" text-anchor="middle" style="white-space: pre;" direction="ltr" dominant-baseline="text-before-edge">Generation</text></g><g stroke-linecap="round"><g transform="translate(1023.6704397335488 97.4351978357954) rotate(0 0.16273755123620504 117.3415418872396)"><path d="M-0.03 0.31 C-0.12 39.67, 0.43 195.84, 0.55 235.05 M-1.51 -0.57 C-1.82 38.5, -0.54 194.08, -0.28 233.12" stroke="#868e96" stroke-width="2" fill="none"></path></g><g transform="translate(1023.6704397335488 97.4351978357954) rotate(0 0.16273755123620504 117.3415418872396)"><path d="M-9 209.69 C-5.29 219.18, -1.81 228.5, -0.28 233.12 M-9 209.69 C-5.26 217.86, -2.22 226.35, -0.28 233.12" stroke="#868e96" stroke-width="2" fill="none"></path></g><g transform="translate(1023.6704397335488 97.4351978357954) rotate(0 0.16273755123620504 117.3415418872396)"><path d="M8.1 209.56 C5.16 219.09, 2 228.47, -0.28 233.12 M8.1 209.56 C5.47 217.74, 2.14 226.28, -0.28 233.12" stroke="#868e96" stroke-width="2" fill="none"></path></g></g><mask></mask><g transform="translate(963.1455245473771 39.08219549988644) rotate(0 60.353973388671875 22.5)"><text x="60.353973388671875" y="0" font-family="Virgil, Segoe UI Emoji" font-size="36px" fill="#868e96" text-anchor="middle" style="white-space: pre;" direction="ltr" dominant-baseline="text-before-edge">JQuery</text></g></svg>