<svg version="1.1" xmlns="http://www.w3.org/2000/svg" viewBox="0 0 1956.4129205436911 185.83575607020794" width="3912.8258410873823" height="371.67151214041587" filter="invert(93%) hue-rotate(180deg)">
  <!-- svg-source:excalidraw -->
  
  <defs>
    <style class="style-fonts">
      @font-face {
        font-family: "Virgil";
        src: url("https://excalidraw.com/Virgil.woff2");
      }
      @font-face {
        font-family: "Cascadia";
        src: url("https://excalidraw.com/Cascadia.woff2");
      }
      @font-face {
        font-family: "Assistant";
        src: url("https://excalidraw.com/Assistant-Regular.woff2");
      }
    </style>
    
  </defs>
  <g stroke-linecap="round"><g transform="translate(50.86705454512412 14.060944437051148) rotate(0 0 49.63884939166928)"><path d="M0.14 0.94 C-0.14 17.6, -1.18 83.39, -1.09 99.74 M-1.25 0.39 C-1.22 16.71, 0.8 81.23, 1.05 97.86" stroke="#1e1e1e" stroke-width="2" fill="none"></path></g></g><mask></mask><g stroke-linecap="round"><g transform="translate(11.090384229646588 66.70521139560333) rotate(0 967.3257899687378 0)"><path d="M-1.09 0.46 C321.44 0.26, 1612.63 -0.07, 1935.32 -0.26 M0.54 -0.34 C322.96 -0.44, 1612.4 1.04, 1934.73 1.13" stroke="#1e1e1e" stroke-width="2" fill="none"></path></g></g><mask></mask><g transform="translate(11.082590982907277 130.83575607020794) rotate(0 39.18598937988281 22.5)"><text x="39.18598937988281" y="0" font-family="Virgil, Segoe UI Emoji" font-size="36px" fill="#1e1e1e" text-anchor="middle" style="white-space: pre;" direction="ltr" dominant-baseline="text-before-edge">1990</text></g><g stroke-linecap="round"><g transform="translate(613.2657468221078 12.009315934979895) rotate(0 0 49.63884939166928)"><path d="M0.41 -0.71 C0.27 15.99, -0.11 83.29, -0.2 99.96 M-0.83 1.53 C-1.21 17.91, -1.23 81.68, -1.25 98.2" stroke="#1e1e1e" stroke-width="2" fill="none"></path></g></g><mask></mask><g transform="translate(562.6992932086068 128.78412756813668) rotate(0 49.967979431152344 22.5)"><text x="49.967979431152344" y="0" font-family="Virgil, Segoe UI Emoji" font-size="36px" fill="#1e1e1e" text-anchor="middle" style="white-space: pre;" direction="ltr" dominant-baseline="text-before-edge">2000</text></g><g stroke-linecap="round"><g transform="translate(1173.5705195979463 11.019227371196394) rotate(0 0 49.63884939166928)"><path d="M-0.13 0.02 C-0.15 16.36, -0.51 82.07, -0.3 98.73 M-1.66 -1.02 C-1.85 15.42, -1.84 83.47, -1.4 99.97" stroke="#1e1e1e" stroke-width="2" fill="none"></path></g></g><mask></mask><g transform="translate(1130.510062688547 127.79403900435318) rotate(0 42.46198272705078 22.5)"><text x="42.46198272705078" y="0" font-family="Virgil, Segoe UI Emoji" font-size="36px" fill="#1e1e1e" text-anchor="middle" style="white-space: pre;" direction="ltr" dominant-baseline="text-before-edge">2010</text></g><g stroke-linecap="round"><g transform="translate(1734.4481779941634 11.923543544895438) rotate(0 0 49.63884939166928)"><path d="M1.13 0.69 C1.22 17.29, 0.55 82.66, 0.21 99.02 M0.26 0.01 C0.24 16.84, -0.84 83.77, -0.62 100.43" stroke="#1e1e1e" stroke-width="2" fill="none"></path></g></g><mask></mask><g transform="translate(1683.4497251741195 128.69835517805222) rotate(0 50.39997863769531 22.5)"><text x="50.39997863769531" y="0" font-family="Virgil, Segoe UI Emoji" font-size="36px" fill="#1e1e1e" text-anchor="middle" style="white-space: pre;" direction="ltr" dominant-baseline="text-before-edge">2020</text></g></svg>