<svg version="1.1" xmlns="http://www.w3.org/2000/svg" viewBox="0 0 2035.0099394711106 430.5528722292511" width="4070.019878942221" height="861.1057444585022" filter="invert(93%) hue-rotate(180deg)">
  <!-- svg-source:excalidraw -->
  
  <defs>
    <style class="style-fonts">
      @font-face {
        font-family: "Virgil";
        src: url("https://excalidraw.com/Virgil.woff2");
      }
      @font-face {
        font-family: "Cascadia";
        src: url("https://excalidraw.com/Cascadia.woff2");
      }
      @font-face {
        font-family: "Assistant";
        src: url("https://excalidraw.com/Assistant-Regular.woff2");
      }
    </style>
    
  </defs>
  <g stroke-linecap="round"><g transform="translate(130.38530072502908 258.7780605960943) rotate(0 0 49.63884939166837)"><path d="M-0.13 -0.34 C0.24 15.94, 1.17 81.68, 1.15 98.42 M-1.65 -1.57 C-1.25 14.78, 0.72 82.89, 0.8 99.5" stroke="#1e1e1e" stroke-width="2" fill="none"></path></g></g><mask></mask><g stroke-linecap="round"><g transform="translate(90.60863040955155 311.4223275546465) rotate(0 967.3257899687378 0)"><path d="M1.15 -0.86 C323.57 -0.67, 1611.98 0.72, 1934.4 0.77 M0.29 1.3 C322.55 1.18, 1610.79 -0.81, 1933.32 -0.94" stroke="#1e1e1e" stroke-width="2" fill="none"></path></g></g><mask></mask><g transform="translate(90.60083716281224 375.5528722292511) rotate(0 39.18598937988281 22.5)"><text x="39.18598937988281" y="0" font-family="Virgil, Segoe UI Emoji" font-size="36px" fill="#1e1e1e" text-anchor="middle" style="white-space: pre;" direction="ltr" dominant-baseline="text-before-edge">1990</text></g><g stroke-linecap="round"><g transform="translate(692.7839930020127 256.72643209402304) rotate(0 0 49.63884939166837)"><path d="M1.04 -0.54 C0.99 16.04, -0.17 83.63, -0.53 100.2 M0.12 1.8 C-0.1 17.98, -1.93 82.2, -1.76 98.57" stroke="#1e1e1e" stroke-width="2" fill="none"></path></g></g><mask></mask><g transform="translate(642.2175393885118 373.5012437271798) rotate(0 49.967979431152344 22.5)"><text x="49.967979431152344" y="0" font-family="Virgil, Segoe UI Emoji" font-size="36px" fill="#1e1e1e" text-anchor="middle" style="white-space: pre;" direction="ltr" dominant-baseline="text-before-edge">2000</text></g><g stroke-linecap="round"><g transform="translate(1253.0887657778512 255.73634353023954) rotate(0 0 49.63884939166837)"><path d="M-1.12 -0.4 C-0.97 16.16, 0.01 83.73, 0.36 100.26 M0.49 -1.65 C0.56 14.51, -0.44 81.74, -0.4 98.66" stroke="#1e1e1e" stroke-width="2" fill="none"></path></g></g><mask></mask><g transform="translate(1210.0283088684519 372.5111551633963) rotate(0 42.46198272705078 22.5)"><text x="42.46198272705078" y="0" font-family="Virgil, Segoe UI Emoji" font-size="36px" fill="#1e1e1e" text-anchor="middle" style="white-space: pre;" direction="ltr" dominant-baseline="text-before-edge">2010</text></g><g stroke-linecap="round"><g transform="translate(1813.9664241740684 256.6406597039386) rotate(0 0 49.63884939166837)"><path d="M0.97 -0.5 C1.04 16.03, 1.08 83.52, 0.8 100.14 M0.02 -1.8 C-0.03 14.31, -0.02 81.42, 0.27 98.47" stroke="#1e1e1e" stroke-width="2" fill="none"></path></g></g><mask></mask><g transform="translate(1762.9679713540245 373.41547133709537) rotate(0 50.39997863769531 22.5)"><text x="50.39997863769531" y="0" font-family="Virgil, Segoe UI Emoji" font-size="36px" fill="#1e1e1e" text-anchor="middle" style="white-space: pre;" direction="ltr" dominant-baseline="text-before-edge">2020</text></g><g stroke-linecap="round"><g transform="translate(89.28681077330839 189.34322595607227) rotate(0 0 59.58667959149261)"><path d="M-0.72 -0.05 C-0.88 19.79, -0.12 100.2, -0.17 119.9 M1.1 -1.12 C0.69 18.3, -1.25 98.15, -1.2 118.16" stroke="#868e96" stroke-width="2" fill="none"></path></g><g transform="translate(89.28681077330839 189.34322595607227) rotate(0 0 59.58667959149261)"><path d="M-9.45 94.56 C-6.34 102.99, -2.02 110.28, -1.2 118.16 M-9.45 94.56 C-6.99 99.84, -5.52 104.57, -1.2 118.16" stroke="#868e96" stroke-width="2" fill="none"></path></g><g transform="translate(89.28681077330839 189.34322595607227) rotate(0 0 59.58667959149261)"><path d="M7.65 94.78 C4.48 103.02, 2.53 110.23, -1.2 118.16 M7.65 94.78 C6.44 99.98, 4.25 104.67, -1.2 118.16" stroke="#868e96" stroke-width="2" fill="none"></path></g></g><mask></mask><g transform="translate(10 85.99022362015967) rotate(0 79.12796783447266 45)"><text x="79.12796783447266" y="0" font-family="Virgil, Segoe UI Emoji" font-size="36px" fill="#868e96" text-anchor="middle" style="white-space: pre;" direction="ltr" dominant-baseline="text-before-edge">WWW</text><text x="79.12796783447266" y="45" font-family="Virgil, Segoe UI Emoji" font-size="36px" fill="#868e96" text-anchor="middle" style="white-space: pre;" direction="ltr" dominant-baseline="text-before-edge">Imvented</text></g><g stroke-linecap="round"><g transform="translate(279.20331722487754 184.54531218409102) rotate(0 0.099526843867352 59.58667959149261)"><path d="M-0.99 -1.03 C-0.8 18.68, 0.64 98.87, 0.95 118.95 M0.7 1.05 C0.8 20.87, 0.44 100.4, 0.39 120.37" stroke="#868e96" stroke-width="2" fill="none"></path></g><g transform="translate(279.20331722487754 184.54531218409102) rotate(0 0.099526843867352 59.58667959149261)"><path d="M-8.08 96.85 C-7.23 104.89, -3.46 111.46, 0.39 120.37 M-8.08 96.85 C-4.37 104.33, -3.01 111.52, 0.39 120.37" stroke="#868e96" stroke-width="2" fill="none"></path></g><g transform="translate(279.20331722487754 184.54531218409102) rotate(0 0.099526843867352 59.58667959149261)"><path d="M9.02 96.91 C4.98 104.79, 3.85 111.34, 0.39 120.37 M9.02 96.91 C7.24 104.35, 3.11 111.52, 0.39 120.37" stroke="#868e96" stroke-width="2" fill="none"></path></g></g><mask></mask><g transform="translate(179.401994356871 81.19230984818569) rotate(0 99.50395965576172 45)"><text x="99.50395965576172" y="0" font-family="Virgil, Segoe UI Emoji" font-size="36px" fill="#868e96" text-anchor="middle" style="white-space: pre;" direction="ltr" dominant-baseline="text-before-edge">Server Side</text><text x="99.50395965576172" y="45" font-family="Virgil, Segoe UI Emoji" font-size="36px" fill="#868e96" text-anchor="middle" style="white-space: pre;" direction="ltr" dominant-baseline="text-before-edge">Rendering</text></g><g stroke-linecap="round"><g transform="translate(405.82275456424395 68.3530023359126) rotate(0 0.132051436790789 116.99699378794412)"><path d="M0.65 0.25 C0.62 39.27, 0.44 194.91, 0.56 233.85 M-0.47 -0.66 C-0.69 38.56, -0.51 196.01, -0.23 235.32" stroke="#1e1e1e" stroke-width="2" fill="none"></path></g><g transform="translate(405.82275456424395 68.3530023359126) rotate(0 0.132051436790789 116.99699378794412)"><path d="M-8.86 211.85 C-5.36 220.81, -2.88 230.68, -0.23 235.32 M-8.86 211.85 C-6.6 218.5, -3.93 225.39, -0.23 235.32" stroke="#1e1e1e" stroke-width="2" fill="none"></path></g><g transform="translate(405.82275456424395 68.3530023359126) rotate(0 0.132051436790789 116.99699378794412)"><path d="M8.24 211.79 C5.55 220.86, 1.82 230.75, -0.23 235.32 M8.24 211.79 C5.5 218.38, 3.18 225.29, -0.23 235.32" stroke="#1e1e1e" stroke-width="2" fill="none"></path></g></g><mask></mask><g transform="translate(310.0464799665642 10) rotate(0 95.54396057128906 22.5)"><text x="95.54396057128906" y="0" font-family="Virgil, Segoe UI Emoji" font-size="36px" fill="#1e1e1e" text-anchor="middle" style="white-space: pre;" direction="ltr" dominant-baseline="text-before-edge">JavaScript</text></g></svg>