<svg version="1.1" xmlns="http://www.w3.org/2000/svg" viewBox="0 0 2035.686842062547 432.60103511797206" width="4071.373684125094" height="865.2020702359441" filter="invert(93%) hue-rotate(180deg)">
  <!-- svg-source:excalidraw -->
  
  <defs>
    <style class="style-fonts">
      @font-face {
        font-family: "Virgil";
        src: url("https://excalidraw.com/Virgil.woff2");
      }
      @font-face {
        font-family: "Cascadia";
        src: url("https://excalidraw.com/Cascadia.woff2");
      }
      @font-face {
        font-family: "Assistant";
        src: url("https://excalidraw.com/Assistant-Regular.woff2");
      }
    </style>
    
  </defs>
  <g stroke-linecap="round"><g transform="translate(130.38530072502908 260.8262234848153) rotate(0 0 49.63884939166928)"><path d="M-0.04 0.88 C0 17.51, -0.62 82.67, -0.55 98.99 M-1.51 0.3 C-1.62 17.17, -2.02 83.78, -1.78 100.38" stroke="#1e1e1e" stroke-width="2" fill="none"></path></g></g><mask></mask><g stroke-linecap="round"><g transform="translate(90.60863040955155 313.47049044336745) rotate(0 967.3257899687378 0)"><path d="M-0.55 -0.28 C321.97 -0.51, 1612.62 -0.57, 1935.08 -0.46 M1.37 -1.48 C323.77 -1.61, 1612.39 0.88, 1934.35 0.84" stroke="#1e1e1e" stroke-width="2" fill="none"></path></g></g><mask></mask><g transform="translate(90.60083716281224 377.60103511797206) rotate(0 39.18598937988281 22.5)"><text x="39.18598937988281" y="0" font-family="Virgil, Segoe UI Emoji" font-size="36px" fill="#1e1e1e" text-anchor="middle" style="white-space: pre;" direction="ltr" dominant-baseline="text-before-edge">1990</text></g><g stroke-linecap="round"><g transform="translate(692.7839930020127 258.774594982744) rotate(0 0 49.63884939166928)"><path d="M-0.47 0.39 C-0.73 17.16, -1.13 83.8, -1.14 100.14 M1.49 -0.45 C1.54 16.03, 1.49 81.84, 0.98 98.47" stroke="#1e1e1e" stroke-width="2" fill="none"></path></g></g><mask></mask><g transform="translate(642.2175393885118 375.5494066159008) rotate(0 49.967979431152344 22.5)"><text x="49.967979431152344" y="0" font-family="Virgil, Segoe UI Emoji" font-size="36px" fill="#1e1e1e" text-anchor="middle" style="white-space: pre;" direction="ltr" dominant-baseline="text-before-edge">2000</text></g><g stroke-linecap="round"><g transform="translate(1253.0887657778512 257.7845064189605) rotate(0 0 49.63884939166928)"><path d="M-0.51 -0.84 C-0.17 15.6, 0.93 82.81, 0.94 99.49 M1.42 1.33 C1.79 17.31, 0.97 80.95, 0.49 97.48" stroke="#1e1e1e" stroke-width="2" fill="none"></path></g></g><mask></mask><g transform="translate(1210.0283088684519 374.5593180521173) rotate(0 42.46198272705078 22.5)"><text x="42.46198272705078" y="0" font-family="Virgil, Segoe UI Emoji" font-size="36px" fill="#1e1e1e" text-anchor="middle" style="white-space: pre;" direction="ltr" dominant-baseline="text-before-edge">2010</text></g><g stroke-linecap="round"><g transform="translate(1813.9664241740684 258.68882259265956) rotate(0 0 49.63884939166928)"><path d="M-0.44 -0.04 C-0.6 16.4, 0.06 82.41, -0.03 98.89 M1.53 -1.11 C1.12 15.49, -0.98 83.38, -1 100.23" stroke="#1e1e1e" stroke-width="2" fill="none"></path></g></g><mask></mask><g transform="translate(1762.9679713540245 375.46363422581635) rotate(0 50.39997863769531 22.5)"><text x="50.39997863769531" y="0" font-family="Virgil, Segoe UI Emoji" font-size="36px" fill="#1e1e1e" text-anchor="middle" style="white-space: pre;" direction="ltr" dominant-baseline="text-before-edge">2020</text></g><g stroke-linecap="round"><g transform="translate(89.28681077330839 191.39138884479325) rotate(0 0 59.58667959149261)"><path d="M-0.98 -0.42 C-1.03 19.4, -0.44 98.43, -0.31 118.51 M0.7 -1.68 C0.48 18.31, -1.12 99.72, -1.42 119.7" stroke="#868e96" stroke-width="2" fill="none"></path></g><g transform="translate(89.28681077330839 191.39138884479325) rotate(0 0 59.58667959149261)"><path d="M-9.56 96.06 C-7.91 102.63, -5.9 109.84, -1.42 119.7 M-9.56 96.06 C-5.92 104.63, -4.21 113.26, -1.42 119.7" stroke="#868e96" stroke-width="2" fill="none"></path></g><g transform="translate(89.28681077330839 191.39138884479325) rotate(0 0 59.58667959149261)"><path d="M7.54 96.36 C4.11 102.71, 1.03 109.82, -1.42 119.7 M7.54 96.36 C4.78 104.69, 0.09 113.21, -1.42 119.7" stroke="#868e96" stroke-width="2" fill="none"></path></g></g><mask></mask><g transform="translate(10 88.03838650888065) rotate(0 79.12796783447266 45)"><text x="79.12796783447266" y="0" font-family="Virgil, Segoe UI Emoji" font-size="36px" fill="#868e96" text-anchor="middle" style="white-space: pre;" direction="ltr" dominant-baseline="text-before-edge">WWW</text><text x="79.12796783447266" y="45" font-family="Virgil, Segoe UI Emoji" font-size="36px" fill="#868e96" text-anchor="middle" style="white-space: pre;" direction="ltr" dominant-baseline="text-before-edge">Imvented</text></g><g stroke-linecap="round"><g transform="translate(279.20331722487754 186.593475072812) rotate(0 0.099526843867352 59.58667959149261)"><path d="M-0.21 0.89 C0.06 20.72, 1.16 98.64, 1.3 118.29 M-1.77 0.31 C-1.54 20.32, 0.62 99.43, 0.93 119.36" stroke="#868e96" stroke-width="2" fill="none"></path></g><g transform="translate(279.20331722487754 186.593475072812) rotate(0 0.099526843867352 59.58667959149261)"><path d="M-8.13 96.06 C-4.29 104.3, -4.77 109.6, 0.93 119.36 M-8.13 96.06 C-6.11 102.19, -4.19 108.38, 0.93 119.36" stroke="#868e96" stroke-width="2" fill="none"></path></g><g transform="translate(279.20331722487754 186.593475072812) rotate(0 0.099526843867352 59.58667959149261)"><path d="M8.96 95.68 C8.12 104, 2.95 109.4, 0.93 119.36 M8.96 95.68 C6.43 101.81, 3.8 108.11, 0.93 119.36" stroke="#868e96" stroke-width="2" fill="none"></path></g></g><mask></mask><g transform="translate(179.401994356871 83.24047273690667) rotate(0 99.50395965576172 45)"><text x="99.50395965576172" y="0" font-family="Virgil, Segoe UI Emoji" font-size="36px" fill="#868e96" text-anchor="middle" style="white-space: pre;" direction="ltr" dominant-baseline="text-before-edge">Server Side</text><text x="99.50395965576172" y="45" font-family="Virgil, Segoe UI Emoji" font-size="36px" fill="#868e96" text-anchor="middle" style="white-space: pre;" direction="ltr" dominant-baseline="text-before-edge">Rendering</text></g><g stroke-linecap="round"><g transform="translate(405.82275456424395 70.40116522463359) rotate(0 0.132051436790789 116.99699378794321)"><path d="M-0.2 -0.15 C-0.1 38.94, -0.69 194.63, -0.53 233.84 M-1.77 -1.27 C-1.18 38.06, 1.43 196.2, 1.77 235.29" stroke="#868e96" stroke-width="2" fill="none"></path></g><g transform="translate(405.82275456424395 70.40116522463359) rotate(0 0.132051436790789 116.99699378794321)"><path d="M-7.09 211.92 C-5.66 215.38, -3.87 222.29, 1.77 235.29 M-7.09 211.92 C-3.16 220.3, -0.3 230.77, 1.77 235.29" stroke="#868e96" stroke-width="2" fill="none"></path></g><g transform="translate(405.82275456424395 70.40116522463359) rotate(0 0.132051436790789 116.99699378794321)"><path d="M10.01 211.69 C7.95 215.17, 6.25 222.13, 1.77 235.29 M10.01 211.69 C7.25 220.33, 3.43 230.89, 1.77 235.29" stroke="#868e96" stroke-width="2" fill="none"></path></g></g><mask></mask><g transform="translate(310.0464799665642 12.04816288872098) rotate(0 95.54396057128906 22.5)"><text x="95.54396057128906" y="0" font-family="Virgil, Segoe UI Emoji" font-size="36px" fill="#868e96" text-anchor="middle" style="white-space: pre;" direction="ltr" dominant-baseline="text-before-edge">JavaScript</text></g><g stroke-linecap="round"><g transform="translate(1023.6704397335561 68.35300233590533) rotate(0 0.16273755123620504 117.34154188723915)"><path d="M0.49 1.09 C0.63 40.42, -0.05 197.03, 0.03 235.83 M-0.71 0.62 C-0.69 39.66, -1.28 195.28, -1.08 234.3" stroke="#1e1e1e" stroke-width="2" fill="none"></path></g><g transform="translate(1023.6704397335561 68.35300233590533) rotate(0 0.16273755123620504 117.34154188723915)"><path d="M-9.63 210.81 C-5.84 215.78, -3.75 222.81, -1.08 234.3 M-9.63 210.81 C-7.86 215.97, -5.47 221.19, -1.08 234.3" stroke="#1e1e1e" stroke-width="2" fill="none"></path></g><g transform="translate(1023.6704397335561 68.35300233590533) rotate(0 0.16273755123620504 117.34154188723915)"><path d="M7.47 210.81 C7.26 215.84, 5.35 222.88, -1.08 234.3 M7.47 210.81 C5.25 216.08, 3.67 221.3, -1.08 234.3" stroke="#1e1e1e" stroke-width="2" fill="none"></path></g></g><mask></mask><g transform="translate(963.1455245473771 10) rotate(0 60.353973388671875 22.5)"><text x="60.353973388671875" y="0" font-family="Virgil, Segoe UI Emoji" font-size="36px" fill="#1e1e1e" text-anchor="middle" style="white-space: pre;" direction="ltr" dominant-baseline="text-before-edge">JQuery</text></g></svg>