<svg version="1.1" xmlns="http://www.w3.org/2000/svg" viewBox="0 0 2035.1079941058924 432.60103511797206" width="4070.215988211785" height="865.2020702359441" filter="invert(93%) hue-rotate(180deg)">
  <!-- svg-source:excalidraw -->
  
  <defs>
    <style class="style-fonts">
      @font-face {
        font-family: "Virgil";
        src: url("https://excalidraw.com/Virgil.woff2");
      }
      @font-face {
        font-family: "Cascadia";
        src: url("https://excalidraw.com/Cascadia.woff2");
      }
      @font-face {
        font-family: "Assistant";
        src: url("https://excalidraw.com/Assistant-Regular.woff2");
      }
    </style>
    
  </defs>
  <g stroke-linecap="round"><g transform="translate(130.38530072502908 260.8262234848153) rotate(0 0 49.63884939166837)"><path d="M-0.26 1.05 C-0.2 17.77, -0.07 83.01, -0.06 99.58 M1.8 0.56 C1.74 16.96, -0.57 81.25, -1.03 97.61" stroke="#1e1e1e" stroke-width="2" fill="none"></path></g></g><mask></mask><g stroke-linecap="round"><g transform="translate(90.60863040955155 313.47049044336745) rotate(0 967.3257899687378 0)"><path d="M-0.06 0.3 C322.41 0.32, 1612.22 1.33, 1934.5 1.17 M-1.54 -0.59 C320.77 -0.35, 1610.55 -0.49, 1933.47 -0.34" stroke="#1e1e1e" stroke-width="2" fill="none"></path></g></g><mask></mask><g transform="translate(90.60083716281224 377.60103511797206) rotate(0 39.18598937988281 22.5)"><text x="39.18598937988281" y="0" font-family="Virgil, Segoe UI Emoji" font-size="36px" fill="#1e1e1e" text-anchor="middle" style="white-space: pre;" direction="ltr" dominant-baseline="text-before-edge">1990</text></g><g stroke-linecap="round"><g transform="translate(692.7839930020127 258.774594982744) rotate(0 0 49.63884939166837)"><path d="M-1.02 -0.64 C-0.82 15.9, 0.84 83.69, 1.05 100.44 M0.65 1.63 C0.79 18.38, 0.82 82.89, 0.66 98.93" stroke="#1e1e1e" stroke-width="2" fill="none"></path></g></g><mask></mask><g transform="translate(642.2175393885118 375.5494066159008) rotate(0 49.967979431152344 22.5)"><text x="49.967979431152344" y="0" font-family="Virgil, Segoe UI Emoji" font-size="36px" fill="#1e1e1e" text-anchor="middle" style="white-space: pre;" direction="ltr" dominant-baseline="text-before-edge">2000</text></g><g stroke-linecap="round"><g transform="translate(1253.0887657778512 257.7845064189605) rotate(0 0 49.63884939166837)"><path d="M0.27 0.61 C0.1 17.11, 0.2 83.54, 0.03 100.16 M-1.05 -0.12 C-1.47 16.56, -1.37 82.06, -0.9 98.51" stroke="#1e1e1e" stroke-width="2" fill="none"></path></g></g><mask></mask><g transform="translate(1210.0283088684519 374.5593180521173) rotate(0 42.46198272705078 22.5)"><text x="42.46198272705078" y="0" font-family="Virgil, Segoe UI Emoji" font-size="36px" fill="#1e1e1e" text-anchor="middle" style="white-space: pre;" direction="ltr" dominant-baseline="text-before-edge">2010</text></g><g stroke-linecap="round"><g transform="translate(1813.9664241740684 258.68882259265956) rotate(0 0 49.63884939166837)"><path d="M-0.73 1.08 C-0.89 17.62, -0.82 83.9, -0.89 100.11 M1.08 0.6 C1.3 16.73, 1.35 82, 1.36 98.43" stroke="#1e1e1e" stroke-width="2" fill="none"></path></g></g><mask></mask><g transform="translate(1762.9679713540245 375.46363422581635) rotate(0 50.39997863769531 22.5)"><text x="50.39997863769531" y="0" font-family="Virgil, Segoe UI Emoji" font-size="36px" fill="#1e1e1e" text-anchor="middle" style="white-space: pre;" direction="ltr" dominant-baseline="text-before-edge">2020</text></g><g stroke-linecap="round"><g transform="translate(89.28681077330839 191.39138884479325) rotate(0 0 59.58667959149261)"><path d="M-1.13 -0.95 C-0.94 18.93, -0.09 100.11, 0.27 120.14 M0.47 1.17 C0.61 20.66, -0.59 98.62, -0.54 118.52" stroke="#868e96" stroke-width="2" fill="none"></path></g><g transform="translate(89.28681077330839 191.39138884479325) rotate(0 0 59.58667959149261)"><path d="M-8.92 94.97 C-8.45 100.82, -3.36 107.4, -0.54 118.52 M-8.92 94.97 C-5.96 101.24, -3.6 108.41, -0.54 118.52" stroke="#868e96" stroke-width="2" fill="none"></path></g><g transform="translate(89.28681077330839 191.39138884479325) rotate(0 0 59.58667959149261)"><path d="M8.18 95.09 C4.79 100.76, 6.01 107.31, -0.54 118.52 M8.18 95.09 C5.93 101.25, 3.1 108.39, -0.54 118.52" stroke="#868e96" stroke-width="2" fill="none"></path></g></g><mask></mask><g transform="translate(10 88.03838650888065) rotate(0 79.12796783447266 45)"><text x="79.12796783447266" y="0" font-family="Virgil, Segoe UI Emoji" font-size="36px" fill="#868e96" text-anchor="middle" style="white-space: pre;" direction="ltr" dominant-baseline="text-before-edge">WWW</text><text x="79.12796783447266" y="45" font-family="Virgil, Segoe UI Emoji" font-size="36px" fill="#868e96" text-anchor="middle" style="white-space: pre;" direction="ltr" dominant-baseline="text-before-edge">Imvented</text></g><g stroke-linecap="round"><g transform="translate(279.20331722487754 186.593475072812) rotate(0 0.099526843867352 59.58667959149261)"><path d="M1.02 0.05 C0.86 19.67, -0.68 99, -0.7 118.67 M0.09 -0.97 C0.28 18.73, 1.48 99.98, 1.54 119.94" stroke="#868e96" stroke-width="2" fill="none"></path></g><g transform="translate(279.20331722487754 186.593475072812) rotate(0 0.099526843867352 59.58667959149261)"><path d="M-7.24 96.53 C-4.13 102.5, -2.24 112.7, 1.54 119.94 M-7.24 96.53 C-6.05 101.42, -3.1 106.17, 1.54 119.94" stroke="#868e96" stroke-width="2" fill="none"></path></g><g transform="translate(279.20331722487754 186.593475072812) rotate(0 0.099526843867352 59.58667959149261)"><path d="M9.86 96.36 C7.46 102.53, 3.84 112.79, 1.54 119.94 M9.86 96.36 C7.52 101.13, 6.94 105.91, 1.54 119.94" stroke="#868e96" stroke-width="2" fill="none"></path></g></g><mask></mask><g transform="translate(179.401994356871 83.24047273690667) rotate(0 99.50395965576172 45)"><text x="99.50395965576172" y="0" font-family="Virgil, Segoe UI Emoji" font-size="36px" fill="#868e96" text-anchor="middle" style="white-space: pre;" direction="ltr" dominant-baseline="text-before-edge">Server Side</text><text x="99.50395965576172" y="45" font-family="Virgil, Segoe UI Emoji" font-size="36px" fill="#868e96" text-anchor="middle" style="white-space: pre;" direction="ltr" dominant-baseline="text-before-edge">Rendering</text></g><g stroke-linecap="round"><g transform="translate(1174.4013780690875 189.8222575907639) rotate(0 0.10413322273052472 59.58667959149261)"><path d="M0.7 -1.12 C0.96 18.64, 0.91 98.01, 0.69 118.06 M-0.39 0.9 C-0.17 20.81, -0.37 99.09, -0.01 119.01" stroke="#1e1e1e" stroke-width="2" fill="none"></path></g><g transform="translate(1174.4013780690875 189.8222575907639) rotate(0 0.10413322273052472 59.58667959149261)"><path d="M-8.71 95.58 C-8.72 101.6, -6.75 104.65, -0.01 119.01 M-8.71 95.58 C-5.84 102.11, -3.67 109.74, -0.01 119.01" stroke="#1e1e1e" stroke-width="2" fill="none"></path></g><g transform="translate(1174.4013780690875 189.8222575907639) rotate(0 0.10413322273052472 59.58667959149261)"><path d="M8.39 95.46 C4.53 101.62, 2.65 104.69, -0.01 119.01 M8.39 95.46 C6.17 102.01, 3.24 109.67, -0.01 119.01" stroke="#1e1e1e" stroke-width="2" fill="none"></path></g></g><mask></mask><g transform="translate(1081.4492719260888 86.4692552548513) rotate(0 92.66395568847656 45)"><text x="92.66395568847656" y="0" font-family="Virgil, Segoe UI Emoji" font-size="36px" fill="#1e1e1e" text-anchor="middle" style="white-space: pre;" direction="ltr" dominant-baseline="text-before-edge">Client Side</text><text x="92.66395568847656" y="45" font-family="Virgil, Segoe UI Emoji" font-size="36px" fill="#1e1e1e" text-anchor="middle" style="white-space: pre;" direction="ltr" dominant-baseline="text-before-edge">Rendering</text></g><g stroke-linecap="round"><g transform="translate(405.82275456424395 70.40116522463359) rotate(0 0.132051436790789 116.99699378794412)"><path d="M-0.86 -0.03 C-0.81 39.14, 0.54 194.95, 0.76 233.86 M0.89 -1.08 C0.78 38.37, 0.26 196.07, 0.08 235.33" stroke="#868e96" stroke-width="2" fill="none"></path></g><g transform="translate(405.82275456424395 70.40116522463359) rotate(0 0.132051436790789 116.99699378794412)"><path d="M-8.38 211.81 C-5.77 220.7, -3.06 228.23, 0.08 235.33 M-8.38 211.81 C-6.59 218.31, -4.57 224.4, 0.08 235.33" stroke="#868e96" stroke-width="2" fill="none"></path></g><g transform="translate(405.82275456424395 70.40116522463359) rotate(0 0.132051436790789 116.99699378794412)"><path d="M8.72 211.87 C5.52 220.62, 2.41 228.13, 0.08 235.33 M8.72 211.87 C6.17 218.39, 3.85 224.47, 0.08 235.33" stroke="#868e96" stroke-width="2" fill="none"></path></g></g><mask></mask><g transform="translate(310.0464799665642 12.04816288872098) rotate(0 95.54396057128906 22.5)"><text x="95.54396057128906" y="0" font-family="Virgil, Segoe UI Emoji" font-size="36px" fill="#868e96" text-anchor="middle" style="white-space: pre;" direction="ltr" dominant-baseline="text-before-edge">JavaScript</text></g><g stroke-linecap="round"><g transform="translate(1023.6704397335561 68.35300233590533) rotate(0 0.16273755123620504 117.34154188724006)"><path d="M-0.36 0.66 C-0.34 39.86, -0.4 196.31, -0.19 235.48 M1.66 -0.05 C1.5 38.81, -1.2 194.79, -1.4 233.77" stroke="#868e96" stroke-width="2" fill="none"></path></g><g transform="translate(1023.6704397335561 68.35300233590533) rotate(0 0.16273755123620504 117.34154188724006)"><path d="M-9.67 210.18 C-6.26 215.85, -3.74 224.18, -1.4 233.77 M-9.67 210.18 C-5.96 219.63, -2.35 228.04, -1.4 233.77" stroke="#868e96" stroke-width="2" fill="none"></path></g><g transform="translate(1023.6704397335561 68.35300233590533) rotate(0 0.16273755123620504 117.34154188724006)"><path d="M7.43 210.39 C6.13 215.95, 3.93 224.22, -1.4 233.77 M7.43 210.39 C4.56 219.68, 1.6 228.01, -1.4 233.77" stroke="#868e96" stroke-width="2" fill="none"></path></g></g><mask></mask><g transform="translate(963.1455245473771 10) rotate(0 60.353973388671875 22.5)"><text x="60.353973388671875" y="0" font-family="Virgil, Segoe UI Emoji" font-size="36px" fill="#868e96" text-anchor="middle" style="white-space: pre;" direction="ltr" dominant-baseline="text-before-edge">JQuery</text></g></svg>