<svg version="1.1" xmlns="http://www.w3.org/2000/svg" viewBox="0 0 2036.3065036336811 461.6832306178585" width="4072.6130072673623" height="923.366461235717" filter="invert(93%) hue-rotate(180deg)">
  <!-- svg-source:excalidraw -->
  
  <defs>
    <style class="style-fonts">
      @font-face {
        font-family: "Virgil";
        src: url("https://excalidraw.com/Virgil.woff2");
      }
      @font-face {
        font-family: "Cascadia";
        src: url("https://excalidraw.com/Cascadia.woff2");
      }
      @font-face {
        font-family: "Assistant";
        src: url("https://excalidraw.com/Assistant-Regular.woff2");
      }
    </style>
    
  </defs>
  <g stroke-linecap="round"><g transform="translate(130.38530072502908 289.9084189847017) rotate(0 0 49.63884939166883)"><path d="M-1.17 0.57 C-1.14 17.14, -0.48 83.27, -0.47 99.7 M0.42 -0.17 C0.31 16, -1.79 81.04, -1.66 97.8" stroke="#1e1e1e" stroke-width="2" fill="none"></path></g></g><mask></mask><g stroke-linecap="round"><g transform="translate(90.60863040954428 342.55268594325753) rotate(0 967.3257899687378 0)"><path d="M-0.47 0.42 C321.99 0.3, 1611.2 -0.2, 1933.56 -0.17 M1.49 -0.4 C324.4 -0.39, 1613.26 1.44, 1935.7 1.28" stroke="#1e1e1e" stroke-width="2" fill="none"></path></g></g><mask></mask><g transform="translate(90.60083716279769 406.6832306178585) rotate(0 39.18598937988281 22.5)"><text x="39.18598937988281" y="0" font-family="Virgil, Segoe UI Emoji" font-size="36px" fill="#1e1e1e" text-anchor="middle" style="white-space: pre;" direction="ltr" dominant-baseline="text-before-edge">1990</text></g><g stroke-linecap="round"><g transform="translate(692.7839930020127 287.8567904826341) rotate(0 0 49.63884939166883)"><path d="M-0.94 0.65 C-0.85 17.23, -0.77 82.94, -0.56 99.33 M0.77 -0.06 C0.75 16.75, -1.63 84.19, -1.8 100.9" stroke="#1e1e1e" stroke-width="2" fill="none"></path></g></g><mask></mask><g transform="translate(642.2175393885118 404.6316021157909) rotate(0 49.967979431152344 22.5)"><text x="49.967979431152344" y="0" font-family="Virgil, Segoe UI Emoji" font-size="36px" fill="#1e1e1e" text-anchor="middle" style="white-space: pre;" direction="ltr" dominant-baseline="text-before-edge">2000</text></g><g stroke-linecap="round"><g transform="translate(1253.0887657778367 286.8667019188506) rotate(0 0 49.63884939166883)"><path d="M0.32 -0.26 C0.46 16.17, 0.39 81.91, 0.29 98.65 M-0.97 -1.44 C-0.91 15.14, -0.48 83.23, -0.5 99.86" stroke="#1e1e1e" stroke-width="2" fill="none"></path></g></g><mask></mask><g transform="translate(1210.0283088684373 403.6415135520074) rotate(0 42.46198272705078 22.5)"><text x="42.46198272705078" y="0" font-family="Virgil, Segoe UI Emoji" font-size="36px" fill="#1e1e1e" text-anchor="middle" style="white-space: pre;" direction="ltr" dominant-baseline="text-before-edge">2010</text></g><g stroke-linecap="round"><g transform="translate(1813.9664241740538 287.77101809254964) rotate(0 0 49.63884939166883)"><path d="M-0.25 0.92 C-0.17 17.53, 0.57 82.48, 0.78 99.04 M1.82 0.36 C1.79 17.21, 0.41 84.1, 0.25 100.46" stroke="#1e1e1e" stroke-width="2" fill="none"></path></g></g><mask></mask><g transform="translate(1762.96797135401 404.5458297257064) rotate(0 50.39997863769531 22.5)"><text x="50.39997863769531" y="0" font-family="Virgil, Segoe UI Emoji" font-size="36px" fill="#1e1e1e" text-anchor="middle" style="white-space: pre;" direction="ltr" dominant-baseline="text-before-edge">2020</text></g><g stroke-linecap="round"><g transform="translate(89.28681077330839 220.4735843446797) rotate(0 0 59.58667959149261)"><path d="M1.05 1.03 C1.07 21.1, 1.14 100.71, 0.89 120.23 M0.15 0.52 C0.02 20.3, 0.67 98.93, 0.41 118.66" stroke="#1e1e1e" stroke-width="2" fill="none"></path></g><g transform="translate(89.28681077330839 220.4735843446797) rotate(0 0 59.58667959149261)"><path d="M-8.12 95.16 C-3.34 105.15, -0.18 111.55, 0.41 118.66 M-8.12 95.16 C-6 99.57, -3.86 104.9, 0.41 118.66" stroke="#1e1e1e" stroke-width="2" fill="none"></path></g><g transform="translate(89.28681077330839 220.4735843446797) rotate(0 0 59.58667959149261)"><path d="M8.99 95.18 C7.52 105.31, 4.43 111.7, 0.41 118.66 M8.99 95.18 C7.45 99.54, 5.95 104.87, 0.41 118.66" stroke="#1e1e1e" stroke-width="2" fill="none"></path></g></g><mask></mask><g transform="translate(10 117.12058200877073) rotate(0 79.12796783447266 45)"><text x="79.12796783447266" y="0" font-family="Virgil, Segoe UI Emoji" font-size="36px" fill="#1e1e1e" text-anchor="middle" style="white-space: pre;" direction="ltr" dominant-baseline="text-before-edge">WWW</text><text x="79.12796783447266" y="45" font-family="Virgil, Segoe UI Emoji" font-size="36px" fill="#1e1e1e" text-anchor="middle" style="white-space: pre;" direction="ltr" dominant-baseline="text-before-edge">Imvented</text></g><g stroke-linecap="round"><g transform="translate(279.20331722487754 215.67567057270207) rotate(0 0.099526843867352 59.58667959149261)"><path d="M-0.42 -1.04 C-0.53 18.6, 0.08 98.97, 0.24 118.88 M1.56 1.03 C1.22 21.36, -0.41 100.54, -0.68 120.27" stroke="#1e1e1e" stroke-width="2" fill="none"></path></g><g transform="translate(279.20331722487754 215.67567057270207) rotate(0 0.099526843867352 59.58667959149261)"><path d="M-8.82 96.63 C-7.3 105.58, -3.01 114.92, -0.68 120.27 M-8.82 96.63 C-6.73 101.35, -4.71 107.06, -0.68 120.27" stroke="#1e1e1e" stroke-width="2" fill="none"></path></g><g transform="translate(279.20331722487754 215.67567057270207) rotate(0 0.099526843867352 59.58667959149261)"><path d="M8.28 96.93 C3.4 105.7, 1.29 114.93, -0.68 120.27 M8.28 96.93 C6.3 101.53, 4.25 107.16, -0.68 120.27" stroke="#1e1e1e" stroke-width="2" fill="none"></path></g></g><mask></mask><g transform="translate(179.401994356871 112.3226682367931) rotate(0 99.50395965576172 45)"><text x="99.50395965576172" y="0" font-family="Virgil, Segoe UI Emoji" font-size="36px" fill="#1e1e1e" text-anchor="middle" style="white-space: pre;" direction="ltr" dominant-baseline="text-before-edge">Server Side</text><text x="99.50395965576172" y="45" font-family="Virgil, Segoe UI Emoji" font-size="36px" fill="#1e1e1e" text-anchor="middle" style="white-space: pre;" direction="ltr" dominant-baseline="text-before-edge">Rendering</text></g><g stroke-linecap="round"><g transform="translate(1174.401378069073 218.90445309065035) rotate(0 0.10413322273052472 59.58667959149261)"><path d="M0.34 -0.75 C0.49 19.1, 0.97 99.01, 0.94 118.81 M-0.94 1.48 C-0.89 21.53, 0.32 100.6, 0.38 120.16" stroke="#1e1e1e" stroke-width="2" fill="none"></path></g><g transform="translate(1174.401378069073 218.90445309065035) rotate(0 0.10413322273052472 59.58667959149261)"><path d="M-8.4 96.75 C-7.03 105.06, -3.73 110.95, 0.38 120.16 M-8.4 96.75 C-6.48 102.11, -4.09 107.37, 0.38 120.16" stroke="#1e1e1e" stroke-width="2" fill="none"></path></g><g transform="translate(1174.401378069073 218.90445309065035) rotate(0 0.10413322273052472 59.58667959149261)"><path d="M8.7 96.58 C4.87 104.99, 2.98 110.93, 0.38 120.16 M8.7 96.58 C7.06 101.84, 5.89 107.13, 0.38 120.16" stroke="#1e1e1e" stroke-width="2" fill="none"></path></g></g><mask></mask><g transform="translate(1081.4492719260816 115.55145075474138) rotate(0 92.66395568847656 45)"><text x="92.66395568847656" y="0" font-family="Virgil, Segoe UI Emoji" font-size="36px" fill="#1e1e1e" text-anchor="middle" style="white-space: pre;" direction="ltr" dominant-baseline="text-before-edge">Client Side</text><text x="92.66395568847656" y="45" font-family="Virgil, Segoe UI Emoji" font-size="36px" fill="#1e1e1e" text-anchor="middle" style="white-space: pre;" direction="ltr" dominant-baseline="text-before-edge">Rendering</text></g><g stroke-linecap="round"><g transform="translate(405.82275456424395 99.48336072452003) rotate(0 0.132051436790789 116.99699378794367)"><path d="M0 -1.1 C-0.06 37.79, 0.31 193.72, 0.37 232.99 M-1.45 0.93 C-1.73 39.97, -0.7 195.41, -0.52 233.99" stroke="#1e1e1e" stroke-width="2" fill="none"></path></g><g transform="translate(405.82275456424395 99.48336072452003) rotate(0 0.132051436790789 116.99699378794367)"><path d="M-9.2 210.55 C-7.98 219.2, -4.68 227.64, -0.52 233.99 M-9.2 210.55 C-5.27 217.81, -3.15 227.05, -0.52 233.99" stroke="#1e1e1e" stroke-width="2" fill="none"></path></g><g transform="translate(405.82275456424395 99.48336072452003) rotate(0 0.132051436790789 116.99699378794367)"><path d="M7.9 210.45 C2.94 219.14, 0.06 227.61, -0.52 233.99 M7.9 210.45 C5.98 217.88, 2.24 227.16, -0.52 233.99" stroke="#1e1e1e" stroke-width="2" fill="none"></path></g></g><mask></mask><g transform="translate(310.04647996655694 41.13035838861106) rotate(0 95.54396057128906 22.5)"><text x="95.54396057128906" y="0" font-family="Virgil, Segoe UI Emoji" font-size="36px" fill="#1e1e1e" text-anchor="middle" style="white-space: pre;" direction="ltr" dominant-baseline="text-before-edge">JavaScript</text></g><g stroke-linecap="round"><g transform="translate(1297.1803915283526 113.35300233590715) rotate(0 0.3889903171129845 110.11845422211991)"><path d="M0.09 0.51 C0.33 37.54, 1.26 184.73, 1.54 221.21 M-1.32 -0.27 C-1.19 36.53, 0.52 182.84, 0.99 219.6" stroke="#1e1e1e" stroke-width="2" fill="none"></path></g><g transform="translate(1297.1803915283526 113.35300233590715) rotate(0 0.3889903171129845 110.11845422211991)"><path d="M-7.84 196.21 C-4.47 204.69, -0.96 212.28, 0.99 219.6 M-7.84 196.21 C-5.24 201.86, -3.46 207.28, 0.99 219.6" stroke="#1e1e1e" stroke-width="2" fill="none"></path></g><g transform="translate(1297.1803915283526 113.35300233590715) rotate(0 0.3889903171129845 110.11845422211991)"><path d="M9.26 196 C7.35 204.56, 5.57 212.22, 0.99 219.6 M9.26 196 C7.93 201.79, 5.76 207.26, 0.99 219.6" stroke="#1e1e1e" stroke-width="2" fill="none"></path></g></g><mask></mask><g transform="translate(1196.6028914126364 10) rotate(0 100.16996765136719 45)"><text x="100.16996765136719" y="0" font-family="Virgil, Segoe UI Emoji" font-size="36px" fill="#1e1e1e" text-anchor="middle" style="white-space: pre;" direction="ltr" dominant-baseline="text-before-edge">Static Site</text><text x="100.16996765136719" y="45" font-family="Virgil, Segoe UI Emoji" font-size="36px" fill="#1e1e1e" text-anchor="middle" style="white-space: pre;" direction="ltr" dominant-baseline="text-before-edge">Generation</text></g><g stroke-linecap="round"><g transform="translate(1023.6704397335561 97.4351978357954) rotate(0 0.16273755123620504 117.3415418872396)"><path d="M0.98 -0.84 C0.9 38.22, 0.27 195.99, 0.27 235.3 M0.03 1.34 C-0.28 39.96, -0.8 194.91, -0.7 233.51" stroke="#1e1e1e" stroke-width="2" fill="none"></path></g><g transform="translate(1023.6704397335561 97.4351978357954) rotate(0 0.16273755123620504 117.3415418872396)"><path d="M-9.23 210.01 C-7.34 218.39, -1.81 228.18, -0.7 233.51 M-9.23 210.01 C-5.53 217.49, -3.97 225.11, -0.7 233.51" stroke="#1e1e1e" stroke-width="2" fill="none"></path></g><g transform="translate(1023.6704397335561 97.4351978357954) rotate(0 0.16273755123620504 117.3415418872396)"><path d="M7.87 210.02 C3.55 218.54, 2.87 228.33, -0.7 233.51 M7.87 210.02 C5.91 217.56, 1.82 225.18, -0.7 233.51" stroke="#1e1e1e" stroke-width="2" fill="none"></path></g></g><mask></mask><g transform="translate(963.1455245473771 39.08219549988644) rotate(0 60.353973388671875 22.5)"><text x="60.353973388671875" y="0" font-family="Virgil, Segoe UI Emoji" font-size="36px" fill="#1e1e1e" text-anchor="middle" style="white-space: pre;" direction="ltr" dominant-baseline="text-before-edge">JQuery</text></g><g stroke-linecap="round"><g transform="translate(1375.010478745986 184.52994957983537) rotate(0 0.15677060212692595 74.09199572817033)"><path d="M0.7 0.37 C0.83 25.03, 0.61 124.02, 0.7 148.61 M-0.39 -0.48 C-0.38 23.76, -0.27 121.79, -0.04 146.7" stroke="#1e1e1e" stroke-width="2" fill="none"></path></g><g transform="translate(1375.010478745986 184.52994957983537) rotate(0 0.15677060212692595 74.09199572817033)"><path d="M-8.7 123.25 C-5.4 130.79, -2.75 138.67, -0.04 146.7 M-8.7 123.25 C-5.53 130.32, -4.09 135.85, -0.04 146.7" stroke="#1e1e1e" stroke-width="2" fill="none"></path></g><g transform="translate(1375.010478745986 184.52994957983537) rotate(0 0.15677060212692595 74.09199572817033)"><path d="M8.4 123.17 C6.64 130.83, 4.23 138.74, -0.04 146.7 M8.4 123.17 C6.89 130.19, 3.63 135.74, -0.04 146.7" stroke="#1e1e1e" stroke-width="2" fill="none"></path></g></g><mask></mask><g transform="translate(1321.5656249008462 126.1769472439264) rotate(0 53.26197814941406 22.5)"><text x="53.26197814941406" y="0" font-family="Virgil, Segoe UI Emoji" font-size="36px" fill="#1e1e1e" text-anchor="middle" style="white-space: pre;" direction="ltr" dominant-baseline="text-before-edge">React</text></g><g stroke-linecap="round"><g transform="translate(1598.6441463709853 190.81295835339188) rotate(0 0.1344899086143414 74.09199572817033)"><path d="M0.96 -0.31 C0.85 24.23, -0.35 122.82, -0.28 147.69 M0 -1.52 C-0.35 23.15, -1.71 124.22, -1.52 148.97" stroke="#1e1e1e" stroke-width="2" fill="none"></path></g><g transform="translate(1598.6441463709853 190.81295835339188) rotate(0 0.1344899086143414 74.09199572817033)"><path d="M-9.96 125.43 C-7.59 132.27, -5.09 142.83, -1.52 148.97 M-9.96 125.43 C-7.51 133.53, -4.39 141.79, -1.52 148.97" stroke="#1e1e1e" stroke-width="2" fill="none"></path></g><g transform="translate(1598.6441463709853 190.81295835339188) rotate(0 0.1344899086143414 74.09199572817033)"><path d="M7.14 125.51 C3.83 132.46, 0.64 142.99, -1.52 148.97 M7.14 125.51 C3.43 133.53, 0.39 141.76, -1.52 148.97" stroke="#1e1e1e" stroke-width="2" fill="none"></path></g></g><mask></mask><g transform="translate(1517.5787347399018 132.4599560174829) rotate(0 80.83797454833984 22.5)"><text x="80.83797454833984" y="0" font-family="Virgil, Segoe UI Emoji" font-size="36px" fill="#1e1e1e" text-anchor="middle" style="white-space: pre;" direction="ltr" dominant-baseline="text-before-edge">Hydration</text></g><g stroke-linecap="round"><g transform="translate(1853.647029272106 238.03748647724387) rotate(0 0.09487148891093966 50.80643406723766)"><path d="M1.09 0.72 C1.2 17.68, 0.41 84.52, 0.15 101.25 M0.2 0.06 C0.2 17.23, -1.13 85.58, -0.82 102.6" stroke="#1e1e1e" stroke-width="2" fill="none"></path></g><g transform="translate(1853.647029272106 238.03748647724387) rotate(0 0.09487148891093966 50.80643406723766)"><path d="M-9.3 79.08 C-6.03 84.91, -5.68 89.79, -0.82 102.6 M-9.3 79.08 C-6.34 85.36, -4.44 90.82, -0.82 102.6" stroke="#1e1e1e" stroke-width="2" fill="none"></path></g><g transform="translate(1853.647029272106 238.03748647724387) rotate(0 0.09487148891093966 50.80643406723766)"><path d="M7.81 79.14 C6.72 85.11, 2.72 89.98, -0.82 102.6 M7.81 79.14 C6.32 85.29, 3.79 90.74, -0.82 102.6" stroke="#1e1e1e" stroke-width="2" fill="none"></path></g></g><mask></mask><g transform="translate(1754.9343876375424 134.6844841413349) rotate(0 98.40596771240234 45)"><text x="98.40596771240234" y="0" font-family="Virgil, Segoe UI Emoji" font-size="36px" fill="#1e1e1e" text-anchor="middle" style="white-space: pre;" direction="ltr" dominant-baseline="text-before-edge">Server</text><text x="98.40596771240234" y="45" font-family="Virgil, Segoe UI Emoji" font-size="36px" fill="#1e1e1e" text-anchor="middle" style="white-space: pre;" direction="ltr" dominant-baseline="text-before-edge">Components</text></g></svg>