<svg version="1.1" xmlns="http://www.w3.org/2000/svg" viewBox="0 0 2035.6320007475479 354.5626486090914" width="4071.2640014950957" height="709.1252972181828" filter="invert(93%) hue-rotate(180deg)">
  <!-- svg-source:excalidraw -->
  
  <defs>
    <style class="style-fonts">
      @font-face {
        font-family: "Virgil";
        src: url("https://excalidraw.com/Virgil.woff2");
      }
      @font-face {
        font-family: "Cascadia";
        src: url("https://excalidraw.com/Cascadia.woff2");
      }
      @font-face {
        font-family: "Assistant";
        src: url("https://excalidraw.com/Assistant-Regular.woff2");
      }
    </style>
    
  </defs>
  <g stroke-linecap="round"><g transform="translate(130.38530072502908 182.78783697593462) rotate(0 0 49.63884939166928)"><path d="M0.98 -0.17 C0.89 16.44, -0.29 82.71, -0.39 99.21 M0.04 -1.31 C-0.26 15.54, -1.5 83.85, -1.54 100.7" stroke="#1e1e1e" stroke-width="2" fill="none"></path></g></g><mask></mask><g stroke-linecap="round"><g transform="translate(90.60863040955155 235.4321039344868) rotate(0 967.3257899687378 0)"><path d="M-0.39 -0.07 C321.95 -0.13, 1612.36 -0.61, 1935.02 -0.51 M1.61 -1.16 C323.74 -1.04, 1611.99 0.82, 1934.27 0.77" stroke="#1e1e1e" stroke-width="2" fill="none"></path></g></g><mask></mask><g transform="translate(90.60083716281224 299.5626486090914) rotate(0 39.18598937988281 22.5)"><text x="39.18598937988281" y="0" font-family="Virgil, Segoe UI Emoji" font-size="36px" fill="#1e1e1e" text-anchor="middle" style="white-space: pre;" direction="ltr" dominant-baseline="text-before-edge">1990</text></g><g stroke-linecap="round"><g transform="translate(692.7839930020127 180.73620847386337) rotate(0 0 49.63884939166928)"><path d="M0.92 0.57 C0.74 17.39, -0.52 84.06, -0.68 100.37 M-0.06 -0.17 C0.12 16.38, 1.8 82.24, 1.68 98.83" stroke="#1e1e1e" stroke-width="2" fill="none"></path></g></g><mask></mask><g transform="translate(642.2175393885118 297.51102010702016) rotate(0 49.967979431152344 22.5)"><text x="49.967979431152344" y="0" font-family="Virgil, Segoe UI Emoji" font-size="36px" fill="#1e1e1e" text-anchor="middle" style="white-space: pre;" direction="ltr" dominant-baseline="text-before-edge">2000</text></g><g stroke-linecap="round"><g transform="translate(1253.0887657778512 179.74611991007987) rotate(0 0 49.63884939166928)"><path d="M-0.03 -0.8 C-0.08 15.76, -0.97 83.87, -0.97 100.42 M-1.5 1.4 C-1.13 18.16, 1.12 82.57, 1.23 98.9" stroke="#1e1e1e" stroke-width="2" fill="none"></path></g></g><mask></mask><g transform="translate(1210.0283088684519 296.52093154323666) rotate(0 42.46198272705078 22.5)"><text x="42.46198272705078" y="0" font-family="Virgil, Segoe UI Emoji" font-size="36px" fill="#1e1e1e" text-anchor="middle" style="white-space: pre;" direction="ltr" dominant-baseline="text-before-edge">2010</text></g><g stroke-linecap="round"><g transform="translate(1813.9664241740684 180.6504360837789) rotate(0 0 49.63884939166928)"><path d="M-0.05 -0.81 C-0.07 15.74, -1.15 83.58, -1.06 100.45 M-1.54 1.38 C-1.11 18.14, 0.85 82.73, 1.1 98.95" stroke="#1e1e1e" stroke-width="2" fill="none"></path></g></g><mask></mask><g transform="translate(1762.9679713540245 297.4252477169357) rotate(0 50.39997863769531 22.5)"><text x="50.39997863769531" y="0" font-family="Virgil, Segoe UI Emoji" font-size="36px" fill="#1e1e1e" text-anchor="middle" style="white-space: pre;" direction="ltr" dominant-baseline="text-before-edge">2020</text></g><g stroke-linecap="round"><g transform="translate(89.28681077330839 113.3530023359126) rotate(0 0 59.58667959149261)"><path d="M0.48 1.16 C0.71 20.73, 0.64 99, 0.36 118.56 M-0.73 0.72 C-0.53 20.95, -0.7 99.98, -0.39 119.78" stroke="#1e1e1e" stroke-width="2" fill="none"></path></g><g transform="translate(89.28681077330839 113.3530023359126) rotate(0 0 59.58667959149261)"><path d="M-9.08 96.33 C-5.07 101.87, -6.19 104.29, -0.39 119.78 M-9.08 96.33 C-6.18 101.99, -4.14 107.97, -0.39 119.78" stroke="#1e1e1e" stroke-width="2" fill="none"></path></g><g transform="translate(89.28681077330839 113.3530023359126) rotate(0 0 59.58667959149261)"><path d="M8.02 96.24 C8.41 101.86, 3.67 104.31, -0.39 119.78 M8.02 96.24 C6.68 101.78, 4.49 107.78, -0.39 119.78" stroke="#1e1e1e" stroke-width="2" fill="none"></path></g></g><mask></mask><g transform="translate(10 10) rotate(0 79.12796783447266 45)"><text x="79.12796783447266" y="0" font-family="Virgil, Segoe UI Emoji" font-size="36px" fill="#1e1e1e" text-anchor="middle" style="white-space: pre;" direction="ltr" dominant-baseline="text-before-edge">WWW</text><text x="79.12796783447266" y="45" font-family="Virgil, Segoe UI Emoji" font-size="36px" fill="#1e1e1e" text-anchor="middle" style="white-space: pre;" direction="ltr" dominant-baseline="text-before-edge">Imvented</text></g></svg>