<svg version="1.1" xmlns="http://www.w3.org/2000/svg" viewBox="0 0 2035.8557800205745 461.6832306178585" width="4071.711560041149" height="923.366461235717" filter="invert(93%) hue-rotate(180deg)">
  <!-- svg-source:excalidraw -->
  
  <defs>
    <style class="style-fonts">
      @font-face {
        font-family: "Virgil";
        src: url("https://excalidraw.com/Virgil.woff2");
      }
      @font-face {
        font-family: "Cascadia";
        src: url("https://excalidraw.com/Cascadia.woff2");
      }
      @font-face {
        font-family: "Assistant";
        src: url("https://excalidraw.com/Assistant-Regular.woff2");
      }
    </style>
    
  </defs>
  <g stroke-linecap="round"><g transform="translate(130.3853007250218 289.9084189847017) rotate(0 0 49.63884939166883)"><path d="M0.76 -0.18 C0.58 16.51, -0.61 83.67, -0.64 100.11 M-0.3 -1.32 C-0.12 15.04, 1.66 81.65, 1.74 98.42" stroke="#1e1e1e" stroke-width="2" fill="none"></path></g></g><mask></mask><g stroke-linecap="round"><g transform="translate(90.60863040954428 342.55268594325753) rotate(0 967.3257899687378 0)"><path d="M-0.64 0.83 C321.77 0.72, 1612.88 -0.74, 1935.25 -0.86 M1.22 0.22 C323.47 0.25, 1612.16 0.02, 1934.61 0.23" stroke="#1e1e1e" stroke-width="2" fill="none"></path></g></g><mask></mask><g transform="translate(90.60083716280496 406.6832306178585) rotate(0 39.18598937988281 22.5)"><text x="39.18598937988281" y="0" font-family="Virgil, Segoe UI Emoji" font-size="36px" fill="#1e1e1e" text-anchor="middle" style="white-space: pre;" direction="ltr" dominant-baseline="text-before-edge">1990</text></g><g stroke-linecap="round"><g transform="translate(692.7839930020054 287.8567904826341) rotate(0 0 49.63884939166883)"><path d="M-1.07 0.12 C-1.11 16.78, 0.26 82.75, 0.4 99.11 M0.56 -0.86 C0.36 16.07, -0.05 83.91, -0.33 100.56" stroke="#1e1e1e" stroke-width="2" fill="none"></path></g></g><mask></mask><g transform="translate(642.2175393885045 404.6316021157909) rotate(0 49.967979431152344 22.5)"><text x="49.967979431152344" y="0" font-family="Virgil, Segoe UI Emoji" font-size="36px" fill="#1e1e1e" text-anchor="middle" style="white-space: pre;" direction="ltr" dominant-baseline="text-before-edge">2000</text></g><g stroke-linecap="round"><g transform="translate(1253.088765777844 286.8667019188506) rotate(0 0 49.63884939166883)"><path d="M-0.25 -1.03 C-0.4 15.74, -0.38 83.65, -0.52 100.46 M1.83 1.05 C1.43 17.53, -1.65 82.84, -1.74 98.96" stroke="#1e1e1e" stroke-width="2" fill="none"></path></g></g><mask></mask><g transform="translate(1210.0283088684446 403.6415135520074) rotate(0 42.46198272705078 22.5)"><text x="42.46198272705078" y="0" font-family="Virgil, Segoe UI Emoji" font-size="36px" fill="#1e1e1e" text-anchor="middle" style="white-space: pre;" direction="ltr" dominant-baseline="text-before-edge">2010</text></g><g stroke-linecap="round"><g transform="translate(1813.966424174061 287.77101809254964) rotate(0 0 49.63884939166883)"><path d="M-1.08 0.55 C-1.16 16.76, -1.33 82.08, -1.02 98.41 M0.56 -0.21 C0.89 16.63, 1.19 82.88, 1.16 99.5" stroke="#1e1e1e" stroke-width="2" fill="none"></path></g></g><mask></mask><g transform="translate(1762.9679713540172 404.5458297257064) rotate(0 50.39997863769531 22.5)"><text x="50.39997863769531" y="0" font-family="Virgil, Segoe UI Emoji" font-size="36px" fill="#1e1e1e" text-anchor="middle" style="white-space: pre;" direction="ltr" dominant-baseline="text-before-edge">2020</text></g><g stroke-linecap="round"><g transform="translate(89.28681077330839 220.4735843446797) rotate(0 0 59.58667959149261)"><path d="M0.77 -0.73 C1.06 19.19, 1.04 98.47, 0.73 118.65 M-0.28 1.5 C0 21.65, -0.09 100.39, 0.16 119.91" stroke="#868e96" stroke-width="2" fill="none"></path></g><g transform="translate(89.28681077330839 220.4735843446797) rotate(0 0 59.58667959149261)"><path d="M-8.51 96.46 C-8.03 102.66, -5.82 104.64, 0.16 119.91 M-8.51 96.46 C-5.73 106.82, -1.48 115.58, 0.16 119.91" stroke="#868e96" stroke-width="2" fill="none"></path></g><g transform="translate(89.28681077330839 220.4735843446797) rotate(0 0 59.58667959149261)"><path d="M8.59 96.38 C5.39 102.71, 3.92 104.7, 0.16 119.91 M8.59 96.38 C4.56 106.75, 1.99 115.53, 0.16 119.91" stroke="#868e96" stroke-width="2" fill="none"></path></g></g><mask></mask><g transform="translate(10 117.12058200877073) rotate(0 79.12796783447266 45)"><text x="79.12796783447266" y="0" font-family="Virgil, Segoe UI Emoji" font-size="36px" fill="#868e96" text-anchor="middle" style="white-space: pre;" direction="ltr" dominant-baseline="text-before-edge">WWW</text><text x="79.12796783447266" y="45" font-family="Virgil, Segoe UI Emoji" font-size="36px" fill="#868e96" text-anchor="middle" style="white-space: pre;" direction="ltr" dominant-baseline="text-before-edge">Imvented</text></g><g stroke-linecap="round"><g transform="translate(279.20331722487754 215.67567057270207) rotate(0 0.099526843867352 59.58667959149261)"><path d="M-1.11 1.18 C-1.01 21.11, 1.34 99.14, 1.38 119.01 M0.5 0.76 C0.49 20.92, 0.89 100.81, 1.05 120.46" stroke="#868e96" stroke-width="2" fill="none"></path></g><g transform="translate(279.20331722487754 215.67567057270207) rotate(0 0.099526843867352 59.58667959149261)"><path d="M-7.65 97.02 C-2.64 107.52, -1.75 112.19, 1.05 120.46 M-7.65 97.02 C-3.73 107.24, -0.24 116.35, 1.05 120.46" stroke="#868e96" stroke-width="2" fill="none"></path></g><g transform="translate(279.20331722487754 215.67567057270207) rotate(0 0.099526843867352 59.58667959149261)"><path d="M9.45 96.91 C8.3 107.29, 3.02 112, 1.05 120.46 M9.45 96.91 C6.54 107.24, 3.18 116.39, 1.05 120.46" stroke="#868e96" stroke-width="2" fill="none"></path></g></g><mask></mask><g transform="translate(179.401994356871 112.3226682367931) rotate(0 99.50395965576172 45)"><text x="99.50395965576172" y="0" font-family="Virgil, Segoe UI Emoji" font-size="36px" fill="#868e96" text-anchor="middle" style="white-space: pre;" direction="ltr" dominant-baseline="text-before-edge">Server Side</text><text x="99.50395965576172" y="45" font-family="Virgil, Segoe UI Emoji" font-size="36px" fill="#868e96" text-anchor="middle" style="white-space: pre;" direction="ltr" dominant-baseline="text-before-edge">Rendering</text></g><g stroke-linecap="round"><g transform="translate(1174.4013780690802 218.90445309065035) rotate(0 0.10413322273052472 59.58667959149261)"><path d="M-1.09 1.2 C-1.27 21.17, -0.23 99.82, 0.08 119.66 M0.55 0.78 C0.09 20.4, -0.9 98.18, -0.94 117.79" stroke="#868e96" stroke-width="2" fill="none"></path></g><g transform="translate(1174.4013780690802 218.90445309065035) rotate(0 0.10413322273052472 59.58667959149261)"><path d="M-9.3 94.23 C-4 103.46, -1.87 114.01, -0.94 117.79 M-9.3 94.23 C-4.95 104.1, -2.26 112.59, -0.94 117.79" stroke="#868e96" stroke-width="2" fill="none"></path></g><g transform="translate(1174.4013780690802 218.90445309065035) rotate(0 0.10413322273052472 59.58667959149261)"><path d="M7.8 94.37 C6.29 103.4, 1.61 113.88, -0.94 117.79 M7.8 94.37 C5.52 104.3, 1.57 112.73, -0.94 117.79" stroke="#868e96" stroke-width="2" fill="none"></path></g></g><mask></mask><g transform="translate(1081.4492719260816 115.55145075474138) rotate(0 92.66395568847656 45)"><text x="92.66395568847656" y="0" font-family="Virgil, Segoe UI Emoji" font-size="36px" fill="#868e96" text-anchor="middle" style="white-space: pre;" direction="ltr" dominant-baseline="text-before-edge">Client Side</text><text x="92.66395568847656" y="45" font-family="Virgil, Segoe UI Emoji" font-size="36px" fill="#868e96" text-anchor="middle" style="white-space: pre;" direction="ltr" dominant-baseline="text-before-edge">Rendering</text></g><g stroke-linecap="round"><g transform="translate(405.82275456424395 99.48336072452003) rotate(0 0.132051436790789 116.99699378794367)"><path d="M0.56 1.06 C0.73 40.1, 0.69 195.75, 0.84 234.73 M-0.6 0.56 C-0.53 39.22, -0.13 194.25, 0.19 233" stroke="#868e96" stroke-width="2" fill="none"></path></g><g transform="translate(405.82275456424395 99.48336072452003) rotate(0 0.132051436790789 116.99699378794367)"><path d="M-8.48 209.55 C-4.12 217.24, -2.14 225.05, 0.19 233 M-8.48 209.55 C-5.58 219, -2.77 227.1, 0.19 233" stroke="#868e96" stroke-width="2" fill="none"></path></g><g transform="translate(405.82275456424395 99.48336072452003) rotate(0 0.132051436790789 116.99699378794367)"><path d="M8.62 209.47 C8.04 217.26, 5.08 225.09, 0.19 233 M8.62 209.47 C5.05 218.97, 1.38 227.1, 0.19 233" stroke="#868e96" stroke-width="2" fill="none"></path></g></g><mask></mask><g transform="translate(310.04647996655694 41.13035838861106) rotate(0 95.54396057128906 22.5)"><text x="95.54396057128906" y="0" font-family="Virgil, Segoe UI Emoji" font-size="36px" fill="#868e96" text-anchor="middle" style="white-space: pre;" direction="ltr" dominant-baseline="text-before-edge">JavaScript</text></g><g stroke-linecap="round"><g transform="translate(1297.1803915283454 113.35300233590715) rotate(0 0.3889903171129845 110.11845422211991)"><path d="M1.19 0.94 C1.31 37.55, 1.48 183.74, 1.31 220.4 M0.36 0.39 C0.32 37.16, 0.85 185.6, 0.64 222.02" stroke="#868e96" stroke-width="2" fill="none"></path></g><g transform="translate(1297.1803915283454 113.35300233590715) rotate(0 0.3889903171129845 110.11845422211991)"><path d="M-7.9 198.53 C-3.21 207.5, -1.54 213.81, 0.64 222.02 M-7.9 198.53 C-4.15 207.78, -1.96 216.01, 0.64 222.02" stroke="#868e96" stroke-width="2" fill="none"></path></g><g transform="translate(1297.1803915283454 113.35300233590715) rotate(0 0.3889903171129845 110.11845422211991)"><path d="M9.2 198.53 C7.94 207.68, 3.67 213.98, 0.64 222.02 M9.2 198.53 C6.83 207.75, 2.89 215.98, 0.64 222.02" stroke="#868e96" stroke-width="2" fill="none"></path></g></g><mask></mask><g transform="translate(1196.602891412629 10) rotate(0 100.16996765136719 45)"><text x="100.16996765136719" y="0" font-family="Virgil, Segoe UI Emoji" font-size="36px" fill="#868e96" text-anchor="middle" style="white-space: pre;" direction="ltr" dominant-baseline="text-before-edge">Static Site</text><text x="100.16996765136719" y="45" font-family="Virgil, Segoe UI Emoji" font-size="36px" fill="#868e96" text-anchor="middle" style="white-space: pre;" direction="ltr" dominant-baseline="text-before-edge">Generation</text></g><g stroke-linecap="round"><g transform="translate(1023.6704397335488 97.4351978357954) rotate(0 0.16273755123620504 117.3415418872396)"><path d="M-0.59 0.7 C-0.81 39.74, -1.17 195.28, -0.83 234.44 M1.31 0.02 C1.38 39.23, 1.28 196.88, 1.27 235.85" stroke="#868e96" stroke-width="2" fill="none"></path></g><g transform="translate(1023.6704397335488 97.4351978357954) rotate(0 0.16273755123620504 117.3415418872396)"><path d="M-7.27 212.35 C-3.13 218.56, -1.76 230.42, 1.27 235.85 M-7.27 212.35 C-4.83 221.06, 0.08 231.18, 1.27 235.85" stroke="#868e96" stroke-width="2" fill="none"></path></g><g transform="translate(1023.6704397335488 97.4351978357954) rotate(0 0.16273755123620504 117.3415418872396)"><path d="M9.83 212.36 C8.08 218.48, 3.56 230.34, 1.27 235.85 M9.83 212.36 C5.73 221.18, 4.11 231.29, 1.27 235.85" stroke="#868e96" stroke-width="2" fill="none"></path></g></g><mask></mask><g transform="translate(963.1455245473771 39.08219549988644) rotate(0 60.353973388671875 22.5)"><text x="60.353973388671875" y="0" font-family="Virgil, Segoe UI Emoji" font-size="36px" fill="#868e96" text-anchor="middle" style="white-space: pre;" direction="ltr" dominant-baseline="text-before-edge">JQuery</text></g><g stroke-linecap="round"><g transform="translate(1375.0104787459786 184.52994957983537) rotate(0 0.15677060212692595 74.09199572817033)"><path d="M1.11 0.99 C1.36 25.85, 0.67 124.46, 0.37 148.95 M0.23 0.46 C0.43 25.01, -0.79 122.46, -0.55 147.24" stroke="#868e96" stroke-width="2" fill="none"></path></g><g transform="translate(1375.0104787459786 184.52994957983537) rotate(0 0.15677060212692595 74.09199572817033)"><path d="M-9.04 123.72 C-5.71 128.52, -4.35 131.54, -0.55 147.24 M-9.04 123.72 C-6.27 130.61, -4.91 135.78, -0.55 147.24" stroke="#868e96" stroke-width="2" fill="none"></path></g><g transform="translate(1375.0104787459786 184.52994957983537) rotate(0 0.15677060212692595 74.09199572817033)"><path d="M8.06 123.77 C7.91 128.71, 5.79 131.73, -0.55 147.24 M8.06 123.77 C6.08 130.8, 2.68 135.95, -0.55 147.24" stroke="#868e96" stroke-width="2" fill="none"></path></g></g><mask></mask><g transform="translate(1321.5656249008462 126.1769472439264) rotate(0 53.26197814941406 22.5)"><text x="53.26197814941406" y="0" font-family="Virgil, Segoe UI Emoji" font-size="36px" fill="#868e96" text-anchor="middle" style="white-space: pre;" direction="ltr" dominant-baseline="text-before-edge">React</text></g><g stroke-linecap="round"><g transform="translate(1598.6441463709853 190.81295835339188) rotate(0 0.1344899086143414 74.09199572817033)"><path d="M-1.01 -0.26 C-0.81 24.49, 0.98 124.45, 1.24 149.28 M0.67 -1.44 C0.79 22.93, 0.93 123.05, 0.8 147.73" stroke="#1e1e1e" stroke-width="2" fill="none"></path></g><g transform="translate(1598.6441463709853 190.81295835339188) rotate(0 0.1344899086143414 74.09199572817033)"><path d="M-7.72 124.22 C-5.41 133.07, -0.56 139.05, 0.8 147.73 M-7.72 124.22 C-5.85 131.79, -1.36 141.12, 0.8 147.73" stroke="#1e1e1e" stroke-width="2" fill="none"></path></g><g transform="translate(1598.6441463709853 190.81295835339188) rotate(0 0.1344899086143414 74.09199572817033)"><path d="M9.38 124.25 C6.49 132.95, 6.13 138.92, 0.8 147.73 M9.38 124.25 C5.39 131.64, 4.02 140.97, 0.8 147.73" stroke="#1e1e1e" stroke-width="2" fill="none"></path></g></g><mask></mask><g transform="translate(1517.5787347399018 132.4599560174829) rotate(0 80.83797454833984 22.5)"><text x="80.83797454833984" y="0" font-family="Virgil, Segoe UI Emoji" font-size="36px" fill="#1e1e1e" text-anchor="middle" style="white-space: pre;" direction="ltr" dominant-baseline="text-before-edge">Hydration</text></g></svg>