<svg version="1.1" xmlns="http://www.w3.org/2000/svg" viewBox="0 0 2035.4746856237216 359.3605623810654" width="4070.949371247443" height="718.7211247621308" filter="invert(93%) hue-rotate(180deg)">
  <!-- svg-source:excalidraw -->
  
  <defs>
    <style class="style-fonts">
      @font-face {
        font-family: "Virgil";
        src: url("https://excalidraw.com/Virgil.woff2");
      }
      @font-face {
        font-family: "Cascadia";
        src: url("https://excalidraw.com/Cascadia.woff2");
      }
      @font-face {
        font-family: "Assistant";
        src: url("https://excalidraw.com/Assistant-Regular.woff2");
      }
    </style>
    
  </defs>
  <g stroke-linecap="round"><g transform="translate(130.38530072502908 187.5857507479086) rotate(0 0 49.63884939166928)"><path d="M0.34 -0.72 C0.13 15.7, -0.78 83.09, -0.8 99.65 M-0.94 1.51 C-0.81 18.08, 1.4 81.37, 1.49 97.72" stroke="#1e1e1e" stroke-width="2" fill="none"></path></g></g><mask></mask><g stroke-linecap="round"><g transform="translate(90.60863040955155 240.23001770646079) rotate(0 967.3257899687378 0)"><path d="M-0.8 0.37 C321.62 0.38, 1612.43 -0.73, 1934.87 -0.66 M0.97 -0.48 C323.23 -0.26, 1611.48 0.64, 1934.03 0.52" stroke="#1e1e1e" stroke-width="2" fill="none"></path></g></g><mask></mask><g transform="translate(90.60083716281224 304.3605623810654) rotate(0 39.18598937988281 22.5)"><text x="39.18598937988281" y="0" font-family="Virgil, Segoe UI Emoji" font-size="36px" fill="#1e1e1e" text-anchor="middle" style="white-space: pre;" direction="ltr" dominant-baseline="text-before-edge">1990</text></g><g stroke-linecap="round"><g transform="translate(692.7839930020127 185.53412224583735) rotate(0 0 49.63884939166928)"><path d="M-0.82 0.75 C-0.73 17.32, 0.62 82.18, 0.78 98.77 M0.95 0.1 C0.94 16.89, 0.5 83.64, 0.24 100.03" stroke="#1e1e1e" stroke-width="2" fill="none"></path></g></g><mask></mask><g transform="translate(642.2175393885118 302.30893387899414) rotate(0 49.967979431152344 22.5)"><text x="49.967979431152344" y="0" font-family="Virgil, Segoe UI Emoji" font-size="36px" fill="#1e1e1e" text-anchor="middle" style="white-space: pre;" direction="ltr" dominant-baseline="text-before-edge">2000</text></g><g stroke-linecap="round"><g transform="translate(1253.0887657778512 184.54403368205385) rotate(0 0 49.63884939166928)"><path d="M0.12 0.98 C-0.17 17.54, -0.88 82.27, -0.96 98.83 M-1.27 0.46 C-1.26 17.22, 1.26 83.79, 1.24 100.14" stroke="#1e1e1e" stroke-width="2" fill="none"></path></g></g><mask></mask><g transform="translate(1210.0283088684519 301.31884531521064) rotate(0 42.46198272705078 22.5)"><text x="42.46198272705078" y="0" font-family="Virgil, Segoe UI Emoji" font-size="36px" fill="#1e1e1e" text-anchor="middle" style="white-space: pre;" direction="ltr" dominant-baseline="text-before-edge">2010</text></g><g stroke-linecap="round"><g transform="translate(1813.9664241740684 185.4483498557529) rotate(0 0 49.63884939166928)"><path d="M-0.4 1.07 C-0.44 17.49, -1.07 81.56, -1.17 98.1 M1.59 0.58 C1.99 17.15, 0.96 82.7, 0.93 99.02" stroke="#1e1e1e" stroke-width="2" fill="none"></path></g></g><mask></mask><g transform="translate(1762.9679713540245 302.2231614889097) rotate(0 50.39997863769531 22.5)"><text x="50.39997863769531" y="0" font-family="Virgil, Segoe UI Emoji" font-size="36px" fill="#1e1e1e" text-anchor="middle" style="white-space: pre;" direction="ltr" dominant-baseline="text-before-edge">2020</text></g><g stroke-linecap="round"><g transform="translate(89.28681077330839 118.15091610788659) rotate(0 0 59.58667959149261)"><path d="M-0.98 1.06 C-0.77 21.06, -0.13 99.14, 0.05 118.81 M0.71 0.58 C0.86 20.85, -0.65 100.19, -0.88 120.15" stroke="#868e96" stroke-width="2" fill="none"></path></g><g transform="translate(89.28681077330839 118.15091610788659) rotate(0 0 59.58667959149261)"><path d="M-9.07 96.53 C-5.87 101.46, -6.59 106.26, -0.88 120.15 M-9.07 96.53 C-5.89 102.56, -3.58 109.75, -0.88 120.15" stroke="#868e96" stroke-width="2" fill="none"></path></g><g transform="translate(89.28681077330839 118.15091610788659) rotate(0 0 59.58667959149261)"><path d="M8.03 96.79 C7.77 101.53, 3.58 106.27, -0.88 120.15 M8.03 96.79 C6.24 102.6, 3.58 109.71, -0.88 120.15" stroke="#868e96" stroke-width="2" fill="none"></path></g></g><mask></mask><g transform="translate(10 14.797913771973981) rotate(0 79.12796783447266 45)"><text x="79.12796783447266" y="0" font-family="Virgil, Segoe UI Emoji" font-size="36px" fill="#868e96" text-anchor="middle" style="white-space: pre;" direction="ltr" dominant-baseline="text-before-edge">WWW</text><text x="79.12796783447266" y="45" font-family="Virgil, Segoe UI Emoji" font-size="36px" fill="#868e96" text-anchor="middle" style="white-space: pre;" direction="ltr" dominant-baseline="text-before-edge">Imvented</text></g><g stroke-linecap="round"><g transform="translate(279.20331722487754 113.35300233590533) rotate(0 0.099526843867352 59.58667959149261)"><path d="M0.06 -0.11 C0.05 19.64, -0.18 98.45, 0.02 118.15 M-1.37 -1.22 C-1.56 18.68, -1.42 99.14, -1.03 119.15" stroke="#1e1e1e" stroke-width="2" fill="none"></path></g><g transform="translate(279.20331722487754 113.35300233590533) rotate(0 0.099526843867352 59.58667959149261)"><path d="M-9.79 95.73 C-7.39 102.53, -6.25 111.62, -1.03 119.15 M-9.79 95.73 C-7.43 101.32, -5.13 105.68, -1.03 119.15" stroke="#1e1e1e" stroke-width="2" fill="none"></path></g><g transform="translate(279.20331722487754 113.35300233590533) rotate(0 0.099526843867352 59.58667959149261)"><path d="M7.31 95.58 C4.52 102.43, 0.46 111.57, -1.03 119.15 M7.31 95.58 C6.09 101.1, 4.81 105.49, -1.03 119.15" stroke="#1e1e1e" stroke-width="2" fill="none"></path></g></g><mask></mask><g transform="translate(179.401994356871 10) rotate(0 99.50395965576172 45)"><text x="99.50395965576172" y="0" font-family="Virgil, Segoe UI Emoji" font-size="36px" fill="#1e1e1e" text-anchor="middle" style="white-space: pre;" direction="ltr" dominant-baseline="text-before-edge">Server Side</text><text x="99.50395965576172" y="45" font-family="Virgil, Segoe UI Emoji" font-size="36px" fill="#1e1e1e" text-anchor="middle" style="white-space: pre;" direction="ltr" dominant-baseline="text-before-edge">Rendering</text></g></svg>