<svg version="1.1" xmlns="http://www.w3.org/2000/svg" viewBox="0 0 2035.3590411091536 461.6832306178585" width="4070.7180822183072" height="923.366461235717" filter="invert(93%) hue-rotate(180deg)">
  <!-- svg-source:excalidraw -->
  
  <defs>
    <style class="style-fonts">
      @font-face {
        font-family: "Virgil";
        src: url("https://excalidraw.com/Virgil.woff2");
      }
      @font-face {
        font-family: "Cascadia";
        src: url("https://excalidraw.com/Cascadia.woff2");
      }
      @font-face {
        font-family: "Assistant";
        src: url("https://excalidraw.com/Assistant-Regular.woff2");
      }
    </style>
    
  </defs>
  <g stroke-linecap="round"><g transform="translate(130.3853007250218 289.9084189847017) rotate(0 0 49.63884939166883)"><path d="M0.89 0.11 C0.77 16.8, -0.03 83.76, -0.16 100.2 M-0.1 -0.88 C-0.44 15.48, -1.1 81.79, -1.19 98.56" stroke="#1e1e1e" stroke-width="2" fill="none"></path></g></g><mask></mask><g stroke-linecap="round"><g transform="translate(90.60863040954428 342.55268594325753) rotate(0 967.3257899687378 0)"><path d="M-0.16 0.92 C322.15 0.81, 1612.13 -0.21, 1934.75 -0.54 M-1.7 0.36 C320.38 0.4, 1611.03 0.82, 1933.85 0.71" stroke="#1e1e1e" stroke-width="2" fill="none"></path></g></g><mask></mask><g transform="translate(90.60083716280496 406.6832306178585) rotate(0 39.18598937988281 22.5)"><text x="39.18598937988281" y="0" font-family="Virgil, Segoe UI Emoji" font-size="36px" fill="#1e1e1e" text-anchor="middle" style="white-space: pre;" direction="ltr" dominant-baseline="text-before-edge">1990</text></g><g stroke-linecap="round"><g transform="translate(692.7839930020054 287.8567904826341) rotate(0 0 49.63884939166883)"><path d="M0.89 -1.06 C1.06 15.63, 1.05 82.91, 1.09 99.6 M-0.1 0.99 C-0.01 17.35, 0.54 81.09, 0.71 97.65" stroke="#1e1e1e" stroke-width="2" fill="none"></path></g></g><mask></mask><g transform="translate(642.2175393885045 404.6316021157909) rotate(0 49.967979431152344 22.5)"><text x="49.967979431152344" y="0" font-family="Virgil, Segoe UI Emoji" font-size="36px" fill="#1e1e1e" text-anchor="middle" style="white-space: pre;" direction="ltr" dominant-baseline="text-before-edge">2000</text></g><g stroke-linecap="round"><g transform="translate(1253.088765777844 286.8667019188506) rotate(0 0 49.63884939166883)"><path d="M1.1 -0.16 C0.73 16.27, -1.18 82.25, -1.17 98.89 M0.22 -1.29 C0.1 15.28, 0.8 83.75, 0.92 100.23" stroke="#1e1e1e" stroke-width="2" fill="none"></path></g></g><mask></mask><g transform="translate(1210.0283088684446 403.6415135520074) rotate(0 42.46198272705078 22.5)"><text x="42.46198272705078" y="0" font-family="Virgil, Segoe UI Emoji" font-size="36px" fill="#1e1e1e" text-anchor="middle" style="white-space: pre;" direction="ltr" dominant-baseline="text-before-edge">2010</text></g><g stroke-linecap="round"><g transform="translate(1813.966424174061 287.77101809254964) rotate(0 0 49.63884939166883)"><path d="M1.12 0.41 C1.4 17.07, 0.91 83.21, 0.52 99.57 M0.24 -0.41 C0.51 15.9, -0.29 80.94, -0.15 97.6" stroke="#1e1e1e" stroke-width="2" fill="none"></path></g></g><mask></mask><g transform="translate(1762.9679713540172 404.5458297257064) rotate(0 50.39997863769531 22.5)"><text x="50.39997863769531" y="0" font-family="Virgil, Segoe UI Emoji" font-size="36px" fill="#1e1e1e" text-anchor="middle" style="white-space: pre;" direction="ltr" dominant-baseline="text-before-edge">2020</text></g><g stroke-linecap="round"><g transform="translate(89.28681077330839 220.4735843446797) rotate(0 0 59.58667959149261)"><path d="M-1.19 -0.69 C-1.21 19.22, 0.22 99.68, 0.44 119.76 M0.38 1.56 C0.2 21.09, -0.12 98.57, -0.28 117.94" stroke="#868e96" stroke-width="2" fill="none"></path></g><g transform="translate(89.28681077330839 220.4735843446797) rotate(0 0 59.58667959149261)"><path d="M-8.69 94.4 C-6.9 103.3, -1.88 110.85, -0.28 117.94 M-8.69 94.4 C-4.86 103.29, -2.11 111.29, -0.28 117.94" stroke="#868e96" stroke-width="2" fill="none"></path></g><g transform="translate(89.28681077330839 220.4735843446797) rotate(0 0 59.58667959149261)"><path d="M8.41 94.5 C4.33 103.2, 3.47 110.71, -0.28 117.94 M8.41 94.5 C6.22 103.35, 2.96 111.32, -0.28 117.94" stroke="#868e96" stroke-width="2" fill="none"></path></g></g><mask></mask><g transform="translate(10 117.12058200877073) rotate(0 79.12796783447266 45)"><text x="79.12796783447266" y="0" font-family="Virgil, Segoe UI Emoji" font-size="36px" fill="#868e96" text-anchor="middle" style="white-space: pre;" direction="ltr" dominant-baseline="text-before-edge">WWW</text><text x="79.12796783447266" y="45" font-family="Virgil, Segoe UI Emoji" font-size="36px" fill="#868e96" text-anchor="middle" style="white-space: pre;" direction="ltr" dominant-baseline="text-before-edge">Imvented</text></g><g stroke-linecap="round"><g transform="translate(279.20331722487754 215.67567057270207) rotate(0 0.099526843867352 59.58667959149261)"><path d="M0.11 0.62 C0.11 20.38, 0.28 99.27, 0.46 119.14 M-1.29 -0.09 C-1.46 19.81, -0.72 101, -0.35 120.66" stroke="#868e96" stroke-width="2" fill="none"></path></g><g transform="translate(279.20331722487754 215.67567057270207) rotate(0 0.099526843867352 59.58667959149261)"><path d="M-9.2 97.28 C-5.07 105.57, -3.19 114.65, -0.35 120.66 M-9.2 97.28 C-5.33 104.83, -2.32 114.24, -0.35 120.66" stroke="#868e96" stroke-width="2" fill="none"></path></g><g transform="translate(279.20331722487754 215.67567057270207) rotate(0 0.099526843867352 59.58667959149261)"><path d="M7.89 97.06 C6.28 105.44, 2.41 114.59, -0.35 120.66 M7.89 97.06 C5.62 104.74, 2.49 114.24, -0.35 120.66" stroke="#868e96" stroke-width="2" fill="none"></path></g></g><mask></mask><g transform="translate(179.401994356871 112.3226682367931) rotate(0 99.50395965576172 45)"><text x="99.50395965576172" y="0" font-family="Virgil, Segoe UI Emoji" font-size="36px" fill="#868e96" text-anchor="middle" style="white-space: pre;" direction="ltr" dominant-baseline="text-before-edge">Server Side</text><text x="99.50395965576172" y="45" font-family="Virgil, Segoe UI Emoji" font-size="36px" fill="#868e96" text-anchor="middle" style="white-space: pre;" direction="ltr" dominant-baseline="text-before-edge">Rendering</text></g><g stroke-linecap="round"><g transform="translate(1174.4013780690802 218.90445309065035) rotate(0 0.10413322273052472 59.58667959149261)"><path d="M0.98 0.72 C1.1 20.65, 0.97 99.98, 0.95 119.55 M0.04 0.05 C0.04 19.61, 0.32 97.81, 0.38 117.63" stroke="#868e96" stroke-width="2" fill="none"></path></g><g transform="translate(1174.4013780690802 218.90445309065035) rotate(0 0.10413322273052472 59.58667959149261)"><path d="M-8.25 94.17 C-4.28 102.87, -2.07 110.28, 0.38 117.63 M-8.25 94.17 C-5.98 98.51, -4.89 104.56, 0.38 117.63" stroke="#868e96" stroke-width="2" fill="none"></path></g><g transform="translate(1174.4013780690802 218.90445309065035) rotate(0 0.10413322273052472 59.58667959149261)"><path d="M8.86 94.11 C7.32 102.97, 4.03 110.4, 0.38 117.63 M8.86 94.11 C7.42 98.5, 4.81 104.55, 0.38 117.63" stroke="#868e96" stroke-width="2" fill="none"></path></g></g><mask></mask><g transform="translate(1081.4492719260816 115.55145075474138) rotate(0 92.66395568847656 45)"><text x="92.66395568847656" y="0" font-family="Virgil, Segoe UI Emoji" font-size="36px" fill="#868e96" text-anchor="middle" style="white-space: pre;" direction="ltr" dominant-baseline="text-before-edge">Client Side</text><text x="92.66395568847656" y="45" font-family="Virgil, Segoe UI Emoji" font-size="36px" fill="#868e96" text-anchor="middle" style="white-space: pre;" direction="ltr" dominant-baseline="text-before-edge">Rendering</text></g><g stroke-linecap="round"><g transform="translate(405.82275456424395 99.48336072452003) rotate(0 0.132051436790789 116.99699378794367)"><path d="M0.65 -1 C0.65 37.97, 0.72 195.18, 0.72 234.2 M-0.46 1.08 C-0.65 39.63, -0.08 193.37, 0.01 232.19" stroke="#868e96" stroke-width="2" fill="none"></path></g><g transform="translate(405.82275456424395 99.48336072452003) rotate(0 0.132051436790789 116.99699378794367)"><path d="M-8.61 208.72 C-7.09 217.91, -1.96 226.25, 0.01 232.19 M-8.61 208.72 C-6.9 214.61, -4.49 219.71, 0.01 232.19" stroke="#868e96" stroke-width="2" fill="none"></path></g><g transform="translate(405.82275456424395 99.48336072452003) rotate(0 0.132051436790789 116.99699378794367)"><path d="M8.49 208.67 C3.83 217.97, 2.78 226.33, 0.01 232.19 M8.49 208.67 C6.3 214.61, 4.81 219.73, 0.01 232.19" stroke="#868e96" stroke-width="2" fill="none"></path></g></g><mask></mask><g transform="translate(310.04647996655694 41.13035838861106) rotate(0 95.54396057128906 22.5)"><text x="95.54396057128906" y="0" font-family="Virgil, Segoe UI Emoji" font-size="36px" fill="#868e96" text-anchor="middle" style="white-space: pre;" direction="ltr" dominant-baseline="text-before-edge">JavaScript</text></g><g stroke-linecap="round"><g transform="translate(1297.1803915283454 113.35300233590897) rotate(0 0.3889903171129845 110.11845422211991)"><path d="M0.37 -0.86 C0.33 35.86, 0.17 183.58, 0.21 220.54 M-0.9 1.3 C-1.19 37.62, -1.14 182.3, -1.03 218.57" stroke="#868e96" stroke-width="2" fill="none"></path></g><g transform="translate(1297.1803915283454 113.35300233590897) rotate(0 0.3889903171129845 110.11845422211991)"><path d="M-9.61 195.09 C-8.11 202.06, -3.27 210.64, -1.03 218.57 M-9.61 195.09 C-5.84 203.54, -3.32 211.88, -1.03 218.57" stroke="#868e96" stroke-width="2" fill="none"></path></g><g transform="translate(1297.1803915283454 113.35300233590897) rotate(0 0.3889903171129845 110.11845422211991)"><path d="M7.49 195.07 C3.22 202.09, 2.27 210.69, -1.03 218.57 M7.49 195.07 C5.19 203.58, 1.62 211.93, -1.03 218.57" stroke="#868e96" stroke-width="2" fill="none"></path></g></g><mask></mask><g transform="translate(1196.602891412629 10) rotate(0 100.16996765136719 45)"><text x="100.16996765136719" y="0" font-family="Virgil, Segoe UI Emoji" font-size="36px" fill="#868e96" text-anchor="middle" style="white-space: pre;" direction="ltr" dominant-baseline="text-before-edge">Static Site</text><text x="100.16996765136719" y="45" font-family="Virgil, Segoe UI Emoji" font-size="36px" fill="#868e96" text-anchor="middle" style="white-space: pre;" direction="ltr" dominant-baseline="text-before-edge">Generation</text></g><g stroke-linecap="round"><g transform="translate(1023.6704397335488 97.4351978357954) rotate(0 0.16273755123620504 117.3415418872396)"><path d="M-0.17 0.66 C0.04 39.79, 0.47 196.02, 0.69 235.04 M-1.72 -0.03 C-1.59 38.69, -0.49 193.73, -0.07 233.11" stroke="#868e96" stroke-width="2" fill="none"></path></g><g transform="translate(1023.6704397335488 97.4351978357954) rotate(0 0.16273755123620504 117.3415418872396)"><path d="M-8.82 209.69 C-5.44 216.23, -3.73 222.87, -0.07 233.11 M-8.82 209.69 C-5.2 216.73, -2.7 224.93, -0.07 233.11" stroke="#868e96" stroke-width="2" fill="none"></path></g><g transform="translate(1023.6704397335488 97.4351978357954) rotate(0 0.16273755123620504 117.3415418872396)"><path d="M8.28 209.55 C7.33 216.1, 4.71 222.77, -0.07 233.11 M8.28 209.55 C6.54 216.65, 3.69 224.89, -0.07 233.11" stroke="#868e96" stroke-width="2" fill="none"></path></g></g><mask></mask><g transform="translate(963.1455245473771 39.08219549988644) rotate(0 60.353973388671875 22.5)"><text x="60.353973388671875" y="0" font-family="Virgil, Segoe UI Emoji" font-size="36px" fill="#868e96" text-anchor="middle" style="white-space: pre;" direction="ltr" dominant-baseline="text-before-edge">JQuery</text></g><g stroke-linecap="round"><g transform="translate(1375.0104787459786 184.52994957983537) rotate(0 0.15677060212692595 74.09199572817033)"><path d="M0.79 0.16 C0.8 24.82, 0.36 123.72, 0.45 148.34 M-0.26 -0.8 C-0.42 24.04, -0.65 124.99, -0.42 149.95" stroke="#1e1e1e" stroke-width="2" fill="none"></path></g><g transform="translate(1375.0104787459786 184.52994957983537) rotate(0 0.15677060212692595 74.09199572817033)"><path d="M-9.03 126.48 C-5.85 134.41, -3.02 143.62, -0.42 149.95 M-9.03 126.48 C-6.24 133.35, -3.58 139.71, -0.42 149.95" stroke="#1e1e1e" stroke-width="2" fill="none"></path></g><g transform="translate(1375.0104787459786 184.52994957983537) rotate(0 0.15677060212692595 74.09199572817033)"><path d="M8.07 126.44 C5.6 134.49, 2.79 143.72, -0.42 149.95 M8.07 126.44 C6.22 133.42, 4.23 139.79, -0.42 149.95" stroke="#1e1e1e" stroke-width="2" fill="none"></path></g></g><mask></mask><g transform="translate(1321.5656249008462 126.1769472439264) rotate(0 53.26197814941406 22.5)"><text x="53.26197814941406" y="0" font-family="Virgil, Segoe UI Emoji" font-size="36px" fill="#1e1e1e" text-anchor="middle" style="white-space: pre;" direction="ltr" dominant-baseline="text-before-edge">React</text></g></svg>